<svg width="30" height="30" viewBox="0 0 30 30" fill="none" xmlns="http://www.w3.org/2000/svg">
<path d="M2.17741 14.9762C2.17741 7.89007 7.93967 2.1266 15.0219 2.1266C17.3018 2.1266 19.4429 2.7267 21.3029 3.77313L22.3203 1.91282C20.1556 0.694307 17.7206 0.0367441 15.2369 0H14.9931C6.76222 0.0125021 0.0899962 6.63486 0 14.855V14.9988C0.00178455 17.0417 0.421297 19.0627 1.23275 20.9375C2.0442 22.8122 3.23044 24.5012 4.71855 25.9006L6.19974 24.3003C4.92928 23.1022 3.91711 21.6569 3.22541 20.0533C2.5337 18.4496 2.17707 16.7215 2.17741 14.975V14.9762ZM25.4514 4.25321L24.009 5.80347C25.2314 6.9977 26.2027 8.42446 26.8656 9.99977C27.5284 11.5751 27.8696 13.2671 27.8688 14.9762C27.8688 22.0599 22.1066 27.8234 15.0244 27.8234C12.7957 27.8234 10.6996 27.2533 8.87213 26.2506L7.80467 28.1534C10.0092 29.3648 12.484 29.9996 14.9994 29.9988C23.2815 29.9988 30 23.2814 30 14.9963C29.9993 12.9923 29.5965 11.0089 28.8154 9.16357C28.0343 7.31821 26.8908 5.64844 25.4527 4.25321H25.4514ZM2.45365 14.9762C2.45358 16.6842 2.80234 18.3741 3.47854 19.9424C4.15473 21.5107 5.14411 22.9243 6.38598 24.0965L7.86092 22.5013C6.8396 21.5321 6.0263 20.3652 5.47057 19.0714C4.91485 17.7777 4.62836 16.3843 4.62856 14.9762C4.62856 9.24279 9.29086 4.58076 15.0219 4.58076C16.8755 4.58076 18.6155 5.0696 20.1242 5.92474L21.1679 4.01692C19.2928 2.9578 17.1753 2.40259 15.0219 2.4054C8.09341 2.4029 2.45365 8.04384 2.45365 14.9762ZM25.4152 14.9762C25.4152 20.7097 20.7529 25.3717 15.0219 25.3717C13.292 25.3738 11.5893 24.9418 10.0696 24.1153L9.00462 26.0106C10.8493 27.0206 12.9189 27.5491 15.0219 27.5471C21.9503 27.5471 27.5901 21.9062 27.5901 14.9762C27.5901 11.4657 26.1439 8.29138 23.819 6.0085L22.3403 7.60127C23.3157 8.56555 24.0898 9.71408 24.6177 10.9801C25.1455 12.2462 25.4166 13.6045 25.4152 14.9762V14.9762ZM22.9803 14.9762C22.9783 17.086 22.1394 19.1088 20.6478 20.6005C19.1562 22.0922 17.1337 22.9309 15.0244 22.9326C13.713 22.9339 12.4218 22.6091 11.267 21.9874L10.2071 23.8715C11.6853 24.6756 13.3417 25.0956 15.0244 25.0929C20.6041 25.0929 25.1427 20.5547 25.1427 14.9737C25.1427 12.1733 24.0002 9.63536 22.1553 7.80005L20.6816 9.38406C22.1547 10.8723 22.9807 12.8821 22.9803 14.9762V14.9762ZM4.9073 14.9762C4.9073 17.853 6.116 20.4547 8.05091 22.3L9.5171 20.7122C8.74236 19.9714 8.12583 19.0811 7.70475 18.0952C7.28367 17.1093 7.06678 16.0483 7.06721 14.9762C7.06919 12.8667 7.90791 10.8441 9.39927 9.35247C10.8906 7.8608 12.9128 7.02191 15.0219 7.01992C16.4004 7.01896 17.7553 7.37886 18.9517 8.06385L19.9892 6.16728C18.4745 5.30828 16.7631 4.85685 15.0219 4.85706C9.44586 4.85706 4.9073 9.39532 4.9073 14.9762ZM20.5691 14.9762C20.5688 16.4476 19.9842 17.8585 18.9439 18.8988C17.9037 19.939 16.4929 20.5234 15.0219 20.5234C14.1242 20.5238 13.24 20.3054 12.4457 19.8871L11.402 21.7474C12.515 22.3449 13.7587 22.6572 15.0219 22.6563C17.0577 22.6543 19.0096 21.8445 20.4492 20.4047C21.8887 18.9648 22.6983 17.0125 22.7003 14.9762C22.7016 12.9599 21.9075 11.0245 20.4904 9.59035L19.038 11.1531C20.0203 12.1834 20.5681 13.5526 20.5679 14.9762H20.5691ZM7.34344 14.9762C7.34276 16.01 7.55151 17.0332 7.95711 17.984C8.36271 18.9348 8.95674 19.7936 9.70335 20.5084L11.1495 18.9457L11.167 18.9632C10.631 18.4473 10.2047 17.8285 9.91371 17.1438C9.62267 16.4591 9.47289 15.7227 9.47336 14.9787C9.47319 14.2502 9.61653 13.5288 9.89519 12.8557C10.1738 12.1827 10.5824 11.5711 11.0974 11.0559C11.6124 10.5408 12.2239 10.1322 12.8968 9.85349C13.5698 9.57478 14.291 9.43141 15.0194 9.43157C16.0293 9.43157 16.9743 9.70537 17.7905 10.1792L18.8155 8.30639C17.6599 7.64454 16.351 7.29711 15.0194 7.29872C10.7896 7.29247 7.34344 10.7405 7.34344 14.9762V14.9762ZM15.6931 14.9762C15.6827 15.1472 15.6074 15.3078 15.4827 15.4251C15.3579 15.5425 15.1931 15.6079 15.0219 15.6079C14.8506 15.6079 14.6858 15.5425 14.5611 15.4251C14.4364 15.3078 14.3611 15.1472 14.3507 14.9762C14.3507 14.798 14.4214 14.6271 14.5474 14.5011C14.6734 14.3751 14.8443 14.3043 15.0225 14.3043C15.2007 14.3043 15.3716 14.3751 15.4976 14.5011C15.6236 14.6271 15.6943 14.798 15.6943 14.9762H15.6931ZM10.7683 14.9762C10.7683 13.8487 11.2161 12.7674 12.0132 11.9701C12.8103 11.1728 13.8915 10.7249 15.0187 10.7249C16.146 10.7249 17.2272 11.1728 18.0243 11.9701C18.8214 12.7674 19.2692 13.8487 19.2692 14.9762C19.2692 16.1036 18.8214 17.1848 18.0245 17.982C17.2275 18.7791 16.1465 19.227 15.0194 19.227C13.8923 19.227 12.8113 18.7791 12.0143 17.982C11.2173 17.1848 10.7696 16.1036 10.7696 14.9762H10.7683ZM10.9545 14.9762C10.9559 16.0541 11.3845 17.0875 12.1466 17.8497C12.9086 18.6118 13.9417 19.0406 15.0194 19.0419C16.0976 19.0416 17.1315 18.6132 17.8942 17.8509C18.6568 17.0886 19.0857 16.0547 19.0867 14.9762C19.0867 14.4422 18.9815 13.9133 18.7772 13.4199C18.5729 12.9265 18.2733 12.4781 17.8958 12.1005C17.5182 11.7228 17.07 11.4233 16.5766 11.2189C16.0833 11.0145 15.5546 10.9093 15.0206 10.9093C14.4867 10.9093 13.9579 11.0145 13.4646 11.2189C12.9713 11.4233 12.523 11.7228 12.1455 12.1005C11.7679 12.4781 11.4684 12.9265 11.2641 13.4199C11.0597 13.9133 10.9545 14.4422 10.9545 14.9762V14.9762Z" fill="#0B0C10"/>
</svg>
