<svg width="180" height="180" viewBox="0 0 180 180" fill="none" xmlns="http://www.w3.org/2000/svg">
<path d="M89.9773 179.955C139.67 179.955 179.955 139.67 179.955 89.9773C179.955 40.2842 139.67 0 89.9773 0C40.2842 0 0 40.2842 0 89.9773C0 139.67 40.2842 179.955 89.9773 179.955Z" fill="#262626"/>
<path d="M113.727 113.731C126.845 100.613 126.845 79.3453 113.727 66.2275C100.609 53.1097 79.3413 53.1097 66.2235 66.2275C53.1057 79.3453 53.1057 100.613 66.2235 113.731C79.3413 126.849 100.609 126.849 113.727 113.731Z" fill="black"/>
<path d="M94.6192 88.5626C95.3995 91.1252 93.9597 93.8338 91.3971 94.6192C88.8345 95.3995 86.1259 93.9596 85.3405 91.3971C84.5602 88.8345 86.0001 86.1259 88.5626 85.3405C91.1252 84.5602 93.8338 86 94.6192 88.5626Z" fill="#3F3F3F"/>
<path d="M115.367 173.093C104.145 176.521 92.5903 177.649 81.0209 176.441C69.8442 175.278 59.1257 172 49.1623 166.699C39.1989 161.397 30.4892 154.339 23.2797 145.72C15.8135 136.799 10.2906 126.583 6.8671 115.361C3.44361 104.139 2.31084 92.5852 3.51913 81.0158C4.68211 69.8392 7.9596 59.1206 13.261 49.1573C18.5573 39.1939 25.6157 30.4892 34.2349 23.2797C43.1561 15.8135 53.3712 10.2906 64.5932 6.8671C75.8152 3.44361 87.3694 2.31084 98.9388 3.51913C110.116 4.68211 120.834 7.9596 130.797 13.261C140.761 18.5623 149.471 25.6208 156.68 34.2399C164.146 43.1611 169.669 53.3762 173.093 64.5982C176.521 75.8202 177.649 87.3745 176.441 98.9439C175.278 110.121 172 120.839 166.699 130.802C161.397 140.766 154.339 149.476 145.72 156.685C136.799 164.146 126.589 169.669 115.367 173.093ZM65.0815 8.46305C20.1281 22.1923 -5.27118 69.9298 8.46305 114.878C22.1923 159.827 69.9298 185.226 114.883 171.497C159.832 157.767 185.231 110.03 171.502 65.0765C157.767 20.1281 110.03 -5.27118 65.0815 8.46305Z" fill="black"/>
<path d="M99.4272 120.91C82.3752 126.12 64.2609 116.484 59.0502 99.4272C53.8394 82.3752 63.4755 64.2609 80.5325 59.0501C97.5845 53.8394 115.699 63.4755 120.91 80.5325C126.115 97.5845 116.479 115.699 99.4272 120.91ZM80.885 60.203C64.4673 65.2174 55.1887 82.6571 60.2031 99.0747C65.2175 115.492 82.6571 124.771 99.0748 119.757C115.492 114.742 124.771 97.3026 119.757 80.8849C114.742 64.4623 97.3026 55.1886 80.885 60.203Z" fill="#3F3F3F"/>
<path d="M92.5853 98.5058C87.883 99.9407 82.8887 97.2875 81.4539 92.5852C80.019 87.883 82.6722 82.8887 87.3795 81.4539C92.0818 80.019 97.0761 82.6722 98.5109 87.3745C99.9458 92.0767 97.2875 97.071 92.5853 98.5058ZM88.0139 83.5533C84.4696 84.6357 82.4658 88.4015 83.5483 91.9458C84.6307 95.4902 88.3965 97.4939 91.9408 96.4115C95.4852 95.329 97.4889 91.5632 96.4065 88.0189C95.324 84.4695 91.5582 82.4708 88.0139 83.5533Z" fill="#3F3F3F"/>
<path d="M91.6085 89.4789C91.8854 90.3801 91.377 91.3316 90.4758 91.6085C89.5746 91.8854 88.6231 91.3769 88.3462 90.4757C88.0693 89.5746 88.5777 88.623 89.4789 88.3461C90.3801 88.0743 91.3367 88.5777 91.6085 89.4789Z" fill="white"/>
<path d="M114.506 170.278C103.666 173.591 92.4997 174.678 81.323 173.516C70.5239 172.393 60.1678 169.226 50.5418 164.101C40.9157 158.981 32.503 152.159 25.5352 143.832C18.3257 135.213 12.9891 125.345 9.6764 114.501C6.36368 103.661 5.27621 92.4946 6.43919 81.3179C7.5619 70.5188 10.7286 60.1628 15.8538 50.5367C20.9739 40.9157 27.7957 32.503 36.1229 25.5352C44.742 18.3257 54.6097 12.9891 65.4541 9.67637C76.2935 6.36365 87.4601 5.27618 98.6368 6.43916C109.436 7.56187 119.792 10.7286 129.418 15.8538C139.044 20.9739 147.457 27.7957 154.425 36.1228C161.634 44.742 166.971 54.6097 170.283 65.4541C173.596 76.2934 174.684 87.4601 173.521 98.6367C172.398 109.436 169.231 119.792 164.106 129.418C158.986 139.044 152.164 147.457 143.837 154.425C135.218 161.634 125.35 166.971 114.506 170.278ZM65.6303 10.2654C21.6737 23.6925 -3.16168 70.3728 10.2654 114.329C23.6926 158.286 70.3728 183.121 114.329 169.694C158.286 156.267 183.121 109.587 169.694 65.6303C156.267 21.6737 109.587 -3.16171 65.6303 10.2654Z" fill="url(#paint0_linear)"/>
<path d="M113.836 168.078C103.294 171.3 92.4342 172.358 81.5646 171.225C71.0626 170.132 60.9935 167.051 51.6292 162.072C42.265 157.093 34.0839 150.457 27.3074 142.362C20.2943 133.979 15.1036 124.378 11.8866 113.836C8.66447 103.294 7.60721 92.4342 8.73998 81.5646C9.83248 71.0626 12.9136 60.9935 17.8928 51.6292C22.8719 42.265 29.5075 34.0838 37.603 27.3124C45.9855 20.2993 55.5864 15.1086 66.1287 11.8916C76.6711 8.66947 87.5306 7.61222 98.4002 8.74499C108.902 9.83748 118.971 12.9186 128.336 17.8978C137.7 22.8769 145.881 29.5125 152.657 37.608C159.671 45.9905 164.861 55.5914 168.078 66.1337C171.3 76.6761 172.358 87.5356 171.225 98.4052C170.132 108.907 167.051 118.976 162.072 128.341C157.093 137.705 150.457 145.886 142.362 152.662C133.974 159.665 124.378 164.856 113.836 168.078ZM66.2999 12.4605C23.5566 25.515 -0.599092 70.9115 12.4605 113.66C25.5151 156.403 70.9166 180.559 113.66 167.504C156.403 154.45 180.559 109.048 167.504 66.3049C154.445 23.5566 109.043 -0.599121 66.2999 12.4605Z" fill="url(#paint1_linear)"/>
<path d="M113.161 165.873C102.916 169.005 92.3637 170.032 81.7962 168.934C71.5912 167.872 61.8041 164.881 52.7067 160.038C43.6092 155.195 35.6547 148.751 29.0745 140.882C22.2577 132.736 17.2182 123.407 14.0867 113.161C10.9552 102.916 9.92814 92.3637 11.0257 81.7962C12.088 71.5912 15.0785 61.804 19.9217 52.7066C24.7649 43.6092 31.2092 35.6546 39.0781 29.0744C47.224 22.2577 56.553 17.2181 66.7983 14.0866C77.0436 10.9551 87.596 9.92808 98.1635 11.0256C108.369 12.0879 118.156 15.0784 127.253 19.9216C136.351 24.7649 144.305 31.2091 150.885 39.0781C157.702 47.224 162.742 56.553 165.873 66.7983C169.005 77.0436 170.032 87.596 168.934 98.1635C167.872 108.368 164.881 118.156 160.038 127.253C155.195 136.35 148.751 144.305 140.882 150.885C132.731 157.702 123.407 162.742 113.161 165.873ZM66.9695 14.6505C25.4345 27.3375 1.9635 71.4502 14.6505 112.99C27.3376 154.525 71.4503 177.996 112.985 165.309C154.52 152.622 177.991 108.509 165.304 66.9694C152.622 25.4345 108.504 1.96343 66.9695 14.6505Z" fill="url(#paint2_linear)"/>
<path d="M112.487 163.668C102.539 166.709 92.2933 167.706 82.0329 166.638C72.1249 165.606 62.6197 162.701 53.784 157.999C44.9535 153.302 37.2355 147.044 30.8416 139.401C24.2262 131.492 19.3276 122.435 16.2868 112.487C13.2459 102.539 12.2491 92.2932 13.3164 82.0328C14.3485 72.1249 17.2534 62.6196 21.9557 53.784C26.6579 44.9534 32.9159 37.2355 40.5533 30.8416C48.4625 24.2262 57.5197 19.3276 67.4679 16.2867C77.4162 13.2459 87.6615 12.249 97.9219 13.3164C107.83 14.3484 117.335 17.2534 126.171 21.9556C135.006 26.6579 142.724 32.9158 149.118 40.5532C155.734 48.4625 160.632 57.5196 163.673 67.4679C166.714 77.4162 167.711 87.6615 166.643 97.9218C165.611 107.83 162.706 117.335 158.004 126.171C153.302 135.006 147.044 142.724 139.407 149.118C131.492 155.734 122.435 160.632 112.487 163.668ZM67.6391 16.8456C27.3124 29.1651 4.52608 71.994 16.8456 112.321C29.1651 152.647 71.994 175.434 112.321 163.114C152.647 150.795 175.434 107.966 163.114 67.6391C150.795 27.3124 107.966 4.52605 67.6391 16.8456Z" fill="url(#paint3_linear)"/>
<path d="M111.817 161.468C102.166 164.418 92.2278 165.385 82.2745 164.348C72.6636 163.346 63.4403 160.526 54.8715 155.97C46.3027 151.409 38.8113 145.342 32.6087 137.926C26.1897 130.254 21.4371 121.468 18.4919 111.817C15.5416 102.166 14.575 92.2278 15.6121 82.2745C16.614 72.6636 19.4333 63.4403 23.9896 54.8715C28.5509 46.3027 34.6175 38.8113 42.0334 32.6087C49.706 26.1897 58.4913 21.4371 68.1425 18.4919C77.7938 15.5416 87.7319 14.575 97.6852 15.6121C107.296 16.614 116.519 19.4333 125.088 23.9896C133.657 28.5509 141.148 34.6175 147.351 42.0334C153.77 49.706 158.523 58.4913 161.468 68.1425C164.418 77.7938 165.385 87.7319 164.348 97.6852C163.346 107.296 160.526 116.519 155.97 125.088C151.409 133.657 145.342 141.148 137.926 147.351C130.249 153.77 121.463 158.518 111.817 161.468ZM68.3087 19.0356C29.1903 30.9826 7.08864 72.5276 19.0356 111.646C30.9826 150.764 72.5276 172.866 111.646 160.919C150.764 148.972 172.866 107.427 160.919 68.3087C148.972 29.1903 107.427 7.08864 68.3087 19.0356Z" fill="url(#paint4_linear)"/>
<path d="M111.143 159.263C101.788 162.117 92.1573 163.059 82.5111 162.057C73.1972 161.085 64.2609 158.356 55.9539 153.936C47.6469 149.516 40.3871 143.635 34.3809 136.451C28.1582 129.015 23.5566 120.502 20.697 111.148C17.8424 101.793 16.901 92.1623 17.9029 82.5161C18.8745 73.2022 21.6032 64.2659 26.0236 55.9589C30.4439 47.6519 36.3242 40.3921 43.5085 34.3859C50.9446 28.1632 59.458 23.5617 68.8121 20.702C78.1663 17.8474 87.7974 16.906 97.4436 17.9079C106.757 18.8795 115.694 21.6082 124.001 26.0286C132.308 30.4489 139.568 36.3293 145.574 43.5135C151.797 50.9496 156.398 59.463 159.258 68.8171C162.112 78.1713 163.054 87.8024 162.052 97.4486C161.08 106.762 158.351 115.699 153.931 124.006C149.511 132.313 143.63 139.573 136.446 145.579C129.01 151.802 120.497 156.403 111.143 159.263ZM68.9783 21.2307C31.0682 32.8101 9.65124 73.0713 21.2307 110.976C32.8101 148.887 73.0714 170.303 110.976 158.724C148.887 147.145 170.303 106.883 158.724 68.9783C147.15 31.0732 106.888 9.65121 68.9783 21.2307Z" fill="url(#paint5_linear)"/>
<path d="M110.468 157.058C101.411 159.822 92.0868 160.733 82.7478 159.761C73.7259 158.825 65.0765 156.177 57.0364 151.897C48.9962 147.618 41.968 141.924 36.148 134.966C30.1217 127.767 25.6661 119.52 22.9022 110.468C20.1382 101.411 19.2269 92.0868 20.1986 82.7477C21.135 73.7258 23.7832 65.0765 28.0626 57.0363C32.3419 48.9961 38.036 41.9679 44.9937 36.148C52.1931 30.1216 60.4397 25.6661 69.4918 22.9021C78.549 20.1381 87.8729 19.2269 97.212 20.1985C106.234 21.135 114.883 23.7831 122.923 28.0625C130.964 32.3419 137.992 38.0359 143.812 44.9937C149.838 52.1931 154.294 60.4397 157.058 69.4918C159.822 78.5489 160.733 87.8729 159.761 97.212C158.825 106.234 156.177 114.883 151.897 122.923C147.618 130.964 141.924 137.992 134.966 143.812C127.767 149.833 119.525 154.294 110.468 157.058ZM69.6479 23.4257C32.9511 34.6326 12.2138 73.61 23.4258 110.307C34.6377 147.004 73.6101 167.741 110.312 156.534C147.009 145.322 167.746 106.35 156.539 69.6478C145.322 32.951 106.35 12.2138 69.6479 23.4257Z" fill="url(#paint6_linear)"/>
<path d="M109.793 154.852C92.4644 160.144 74.1135 158.372 58.1137 149.863C42.119 141.355 30.3935 127.122 25.1022 109.793C19.8109 92.4644 21.5831 74.1135 30.0915 58.1137C38.5999 42.1189 52.8325 30.3935 70.1614 25.1022C87.4903 19.8109 105.841 21.583 121.841 30.0914C137.836 38.5998 149.561 52.8324 154.852 70.1613C160.144 87.4902 158.372 105.841 149.863 121.841C141.355 137.836 127.122 149.561 109.793 154.852ZM70.3175 25.6157C34.829 36.4551 14.7764 74.1487 25.6158 109.637C36.4551 145.126 74.1488 165.178 109.637 154.339C145.126 143.5 165.178 105.806 154.339 70.3174C143.5 34.8289 105.811 14.7763 70.3175 25.6157Z" fill="url(#paint7_linear)"/>
<path d="M109.124 152.652C92.3839 157.767 74.6522 156.056 59.2012 147.834C43.7502 139.613 32.4225 125.864 27.3074 109.124C22.1923 92.3838 23.904 74.6522 32.1254 59.2011C40.3469 43.7501 54.0962 32.4224 70.836 27.3073C87.5759 22.1922 105.308 23.904 120.759 32.1254C136.21 40.3468 147.537 54.0961 152.652 70.836C157.767 87.5758 156.056 105.307 147.834 120.758C139.608 136.21 125.864 147.537 109.124 152.652ZM70.9921 27.8108C36.7119 38.2826 17.344 74.6874 27.8159 108.968C38.2877 143.248 74.6925 162.616 108.973 152.149C143.253 141.677 162.621 105.272 152.154 70.992C141.677 36.7119 105.267 17.3389 70.9921 27.8108Z" fill="url(#paint8_linear)"/>
<path d="M108.449 150.447C92.2983 155.381 75.1909 153.73 60.2836 145.795C45.3763 137.861 34.4463 124.6 29.5125 108.449C24.5786 92.2983 26.23 75.1909 34.1644 60.2836C42.0988 45.3763 55.3598 34.4463 71.5107 29.5125C87.6615 24.5786 104.769 26.23 119.676 34.1644C134.583 42.0988 145.513 55.3598 150.447 71.5106C155.381 87.6615 153.73 104.769 145.795 119.676C137.861 134.583 124.6 145.513 108.449 150.447ZM71.6617 30.0059C38.5898 40.1052 19.9015 75.2261 30.0059 108.298C40.1052 141.37 75.2312 160.053 108.303 149.954C141.375 139.855 160.058 104.729 149.959 71.6566C139.855 38.5898 104.729 19.9015 71.6617 30.0059Z" fill="url(#paint9_linear)"/>
<path d="M107.774 148.242C92.2127 152.995 75.7296 151.404 61.361 143.761C46.9925 136.119 36.4652 123.336 31.7126 107.774C26.96 92.2127 28.5509 75.7296 36.1934 61.361C43.8358 46.9924 56.6185 36.4652 72.1803 31.7126C87.742 26.9599 104.225 28.5509 118.594 36.1933C132.962 43.8357 143.49 56.6184 148.242 72.1802C152.995 87.742 151.404 104.225 143.761 118.594C136.119 132.962 123.341 143.489 107.774 148.242ZM72.3313 32.1959C40.4677 41.9276 22.4692 75.7648 32.201 107.628C41.9327 139.492 75.7699 157.491 107.634 147.759C139.497 138.027 157.496 104.19 147.764 72.3262C138.027 40.4676 104.19 22.4641 72.3313 32.1959Z" fill="url(#paint10_linear)"/>
<path d="M107.105 146.042C92.1321 150.618 76.2733 149.083 62.4485 141.732C48.6236 134.377 38.4941 122.083 33.9228 107.105C29.3464 92.1321 30.8819 76.2733 38.2323 62.4484C45.5878 48.6236 57.8822 38.4941 72.8599 33.9177C87.8377 29.3413 103.691 30.8768 117.516 38.2273C131.341 45.5827 141.471 57.8771 146.047 72.8548C150.623 87.8276 149.088 103.686 141.737 117.511C134.377 131.336 122.078 141.466 107.105 146.042ZM73.0009 34.3909C42.3506 43.7552 25.0318 76.3085 34.391 106.959C43.7552 137.609 76.3086 154.933 106.959 145.569C137.609 136.204 154.933 103.651 145.569 73.0008C136.205 42.3455 103.651 25.0267 73.0009 34.3909Z" fill="url(#paint11_linear)"/>
<path d="M106.43 143.837C92.0466 148.232 76.807 146.762 63.5309 139.693C50.2498 132.63 40.518 120.814 36.1229 106.43C31.7277 92.0465 33.1978 76.8069 40.2663 63.5308C47.3298 50.2497 59.1458 40.518 73.5295 36.1228C87.9132 31.7276 103.153 33.1977 116.429 40.2662C129.71 47.3297 139.442 59.1458 143.837 73.5294C148.232 87.9131 146.762 103.153 139.693 116.429C132.63 129.71 120.814 139.442 106.43 143.837ZM73.6705 36.586C44.2285 45.5777 27.5893 76.8472 36.586 106.289C45.5828 135.731 76.8473 152.37 106.289 143.374C135.731 134.382 152.37 103.112 143.374 73.6704C134.382 44.2284 103.112 27.5892 73.6705 36.586Z" fill="url(#paint12_linear)"/>
<path d="M105.756 141.632C91.961 145.846 77.3457 144.436 64.6083 137.659C51.8709 130.883 42.5369 119.555 38.323 105.756C34.109 91.9609 35.5187 77.3457 42.2952 64.6083C49.0717 51.8709 60.3994 42.5368 74.1991 38.3229C87.9937 34.109 102.609 35.5187 115.346 42.2952C128.084 49.0717 137.418 60.3994 141.632 74.1991C145.846 87.9937 144.436 102.609 137.66 115.346C130.883 128.084 119.555 137.418 105.756 141.632ZM74.3401 38.776C46.1064 47.4002 30.1519 77.3859 38.7761 105.62C47.4002 133.853 77.386 149.808 105.62 141.184C133.853 132.56 149.808 102.574 141.184 74.34C132.56 46.1063 102.574 30.1519 74.3401 38.776Z" fill="url(#paint13_linear)"/>
<path d="M105.086 139.432C91.8754 143.464 77.8894 142.115 65.6958 135.631C53.5021 129.146 44.5658 118.297 40.5331 105.086C36.5005 91.8753 37.8497 77.8894 44.3342 65.6957C50.8187 53.5021 61.6681 44.5657 74.8788 40.5331C88.0844 36.4954 102.07 37.8446 114.264 44.3341C126.458 50.8237 135.394 61.6681 139.427 74.8787C143.459 88.0894 142.11 102.075 135.626 114.269C129.141 126.458 118.292 135.394 105.086 139.432ZM75.0097 40.9711C47.9842 49.2277 32.7145 77.9246 40.9711 104.95C49.2278 131.975 77.9247 147.245 104.95 138.989C131.976 130.732 147.245 102.035 138.989 75.0096C130.732 47.9842 102.035 32.7144 75.0097 40.9711Z" fill="url(#paint14_linear)"/>
<path d="M104.411 137.227C91.7898 141.083 78.4281 139.789 66.7782 133.592C55.1283 127.394 46.5897 117.028 42.7332 104.411C38.8768 91.7898 40.1706 78.4281 46.3682 66.7781C52.5657 55.1282 62.9318 46.5896 75.5484 42.7332C88.17 38.8767 101.532 40.1706 113.182 46.3681C124.832 52.5656 133.37 62.9318 137.227 75.5483C141.083 88.1699 139.789 101.532 133.592 113.182C127.394 124.831 117.033 133.37 104.411 137.227ZM75.6793 43.1611C49.8672 51.0452 35.2771 78.4633 43.1612 104.275C51.0453 130.088 78.4634 144.678 104.275 136.794C130.088 128.909 144.678 101.491 136.794 75.6792C128.91 49.8671 101.491 35.277 75.6793 43.1611Z" fill="url(#paint15_linear)"/>
<path d="M103.737 135.021C91.7042 138.697 78.9618 137.468 67.8556 131.558C56.7494 125.647 48.6085 115.769 44.9333 103.737C41.2581 91.7042 42.4865 78.9618 48.3971 67.8556C54.3076 56.7494 64.1854 48.6085 76.2179 44.9333C88.2505 41.2581 100.993 42.4865 112.099 48.3971C123.205 54.3076 131.346 64.1854 135.021 76.2179C138.697 88.2505 137.468 100.993 131.558 112.099C125.647 123.205 115.769 131.346 103.737 135.021ZM76.3488 45.3562C51.745 52.8728 37.8396 79.002 45.3562 103.611C52.8728 128.215 79.002 142.12 103.611 134.604C128.215 127.087 142.12 100.958 134.604 76.3488C127.087 51.745 100.953 37.8396 76.3488 45.3562Z" fill="url(#paint16_linear)"/>
<path d="M103.062 132.816C91.6186 136.31 79.5005 135.142 68.938 129.524C58.3755 123.905 50.6324 114.506 47.1384 103.067C43.6445 91.6236 44.8125 79.5055 50.431 68.943C56.0496 58.3805 65.4491 50.6374 76.8875 47.1434C88.331 43.6495 100.449 44.8175 111.012 50.436C121.574 56.0546 129.317 65.4541 132.811 76.8925C136.305 88.3361 135.137 100.454 129.519 111.017C123.905 121.579 114.506 129.322 103.062 132.816ZM77.0184 47.5512C53.6229 54.6952 40.4022 79.5457 47.5513 102.941C54.6953 126.337 79.5458 139.558 102.941 132.408C126.337 125.264 139.558 100.414 132.408 77.0184C125.264 53.6229 100.414 40.4022 77.0184 47.5512Z" fill="url(#paint17_linear)"/>
<path d="M102.393 130.616C91.5381 133.934 80.0442 132.821 70.0255 127.49C60.0067 122.158 52.6613 113.247 49.3486 102.392C46.0308 91.538 47.1435 80.0441 52.4751 70.0254C57.8066 60.0067 66.7178 52.6613 77.5722 49.3485C88.4267 46.0308 99.9206 47.1434 109.939 52.475C119.958 57.8066 127.303 66.7177 130.616 77.5722C133.934 88.4267 132.821 99.9205 127.49 109.939C122.158 119.953 113.247 127.298 102.393 130.616ZM77.688 49.7412C55.5008 56.5177 42.9648 80.0794 49.7413 102.267C56.5178 124.454 80.0794 136.99 102.267 130.213C124.454 123.437 136.99 99.8752 130.213 77.688C123.437 55.5008 99.8753 42.9647 77.688 49.7412Z" fill="url(#paint18_linear)"/>
<path d="M101.718 128.411C80.5275 134.885 58.0181 122.908 51.5487 101.718C45.0743 80.5275 57.0514 58.018 78.2418 51.5487C99.4322 45.0742 121.942 57.0514 128.411 78.2418C134.885 99.4322 122.908 121.937 101.718 128.411ZM78.3576 51.9363C57.3787 58.3453 45.5274 80.6231 51.9363 101.602C58.3453 122.581 80.6232 134.432 101.602 128.023C122.581 121.614 134.432 99.3365 128.023 78.3576C121.614 57.3837 99.3366 45.5273 78.3576 51.9363Z" fill="url(#paint19_linear)"/>
<path d="M101.043 126.206C81.0662 132.308 59.8507 121.02 53.7488 101.043C47.6469 81.0662 58.9344 59.8506 78.9114 53.7488C98.8885 47.6469 120.104 58.9343 126.206 78.9114C132.308 98.8885 121.02 120.104 101.043 126.206ZM79.0272 54.1314C59.2616 60.1678 48.09 81.1618 54.1264 100.932C60.1628 120.698 81.1568 131.87 100.927 125.833C120.693 119.797 131.865 98.8029 125.828 79.0322C119.792 59.2616 98.7979 48.0899 79.0272 54.1314Z" fill="url(#paint20_linear)"/>
<path d="M100.374 124.006C81.615 129.735 61.6883 119.137 55.959 100.374C50.2296 81.6099 60.8274 61.6882 79.5911 55.9589C98.3498 50.2296 118.277 60.8273 124.006 79.5911C129.735 98.3498 119.132 118.271 100.374 124.006ZM79.6968 56.3214C61.1395 61.9903 50.6525 81.7005 56.3214 100.258C61.9903 118.815 81.7006 129.302 100.258 123.633C118.815 117.964 129.302 98.2541 123.633 79.6968C117.969 61.1395 98.2592 50.6525 79.6968 56.3214Z" fill="url(#paint21_linear)"/>
<path d="M89.9773 121.111C107.172 121.111 121.111 107.172 121.111 89.9774C121.111 72.7827 107.172 58.8438 89.9773 58.8438C72.7827 58.8438 58.8437 72.7827 58.8437 89.9774C58.8437 107.172 72.7827 121.111 89.9773 121.111Z" fill="url(#paint22_linear)"/>
<path d="M69.2803 84.7565V95.3291H67.6794V88.0793L66.1841 95.3291H65.0664L63.5712 88.0793V95.3291H62.0004V84.7565H64.2659L65.6555 91.5079L66.9846 84.7565H69.2803Z" fill="black"/>
<path d="M71.6667 94.7904C71.2035 94.3322 70.972 93.7382 70.972 93.0031V84.7565H72.5729V93.0031C72.5729 93.3052 72.6585 93.5418 72.8247 93.713C72.9908 93.8841 73.2023 93.9697 73.4691 93.9697C73.7309 93.9697 73.9423 93.8841 74.1085 93.713C74.2746 93.5418 74.3602 93.3052 74.3602 93.0031V84.7565H75.931V93.0031C75.931 93.7382 75.7044 94.3373 75.2513 94.7904C74.7982 95.2485 74.2041 95.4801 73.4691 95.4801C72.729 95.4801 72.1299 95.2485 71.6667 94.7904Z" fill="black"/>
<path d="M78.4936 95.1478C78.1009 94.9263 77.7938 94.6192 77.5773 94.2265C77.3608 93.8338 77.25 93.3857 77.25 92.8823V92.5047L78.7906 92.3386V92.7312C78.7906 93.1139 78.8812 93.4159 79.0625 93.6375C79.2437 93.859 79.4954 93.9697 79.8177 93.9697C80.1298 93.9697 80.3765 93.8791 80.5678 93.6979C80.7541 93.5166 80.8447 93.2699 80.8447 92.9578C80.8447 92.6154 80.744 92.2882 80.5527 91.9761C80.3563 91.6639 79.9637 91.2309 79.3797 90.6772C78.5943 89.932 78.0556 89.3128 77.7686 88.8194C77.4816 88.326 77.3407 87.7873 77.3407 87.2033C77.3407 86.4079 77.5571 85.7785 77.9901 85.3103C78.4231 84.8421 79.0172 84.6105 79.7723 84.6105C80.5275 84.6105 81.1216 84.8472 81.5546 85.3204C81.9875 85.7936 82.204 86.428 82.204 87.2235V87.4953L80.6635 87.6615V87.3594C80.6635 86.9566 80.5879 86.6495 80.4369 86.4381C80.2859 86.2266 80.0694 86.1209 79.7875 86.1209C79.5055 86.1209 79.289 86.2065 79.138 86.3777C78.987 86.5488 78.9114 86.8006 78.9114 87.1328C78.9114 87.4651 79.0121 87.7823 79.2135 88.0944C79.4149 88.4015 79.8026 88.8395 80.3765 89.4185C81.1619 90.2039 81.7006 90.8332 81.9825 91.3115C82.2695 91.7898 82.4155 92.3184 82.4155 92.8873C82.4155 93.3908 82.3047 93.8388 82.0882 94.2315C81.8718 94.6242 81.5646 94.9313 81.177 95.1529C80.7843 95.3744 80.3362 95.4851 79.8328 95.4851C79.3343 95.4801 78.8863 95.3693 78.4936 95.1478Z" fill="black"/>
<path d="M83.7798 84.7565H85.3808V95.3291H83.7798V84.7565Z" fill="black"/>
<path d="M87.6917 94.7853C87.2285 94.3221 86.9969 93.718 86.9969 92.9729V87.1127C86.9969 86.3676 87.2285 85.7634 87.6917 85.3002C88.1548 84.8371 88.759 84.6055 89.5041 84.6055C90.2492 84.6055 90.8534 84.8371 91.3165 85.3002C91.7797 85.7634 92.0113 86.3676 92.0113 87.1127V88.3512H90.4405V87.1127C90.4405 86.8106 90.3549 86.5689 90.1838 86.3877C90.0126 86.2065 89.7911 86.1158 89.5192 86.1158C89.2473 86.1158 89.0258 86.2065 88.8546 86.3877C88.6835 86.5689 88.5979 86.8106 88.5979 87.1127V92.9729C88.5979 93.275 88.6835 93.5166 88.8546 93.6978C89.0258 93.8791 89.2473 93.9697 89.5192 93.9697C89.7911 93.9697 90.0126 93.8791 90.1838 93.6978C90.3549 93.5166 90.4405 93.275 90.4405 92.9729V91.4625H92.0113V92.9729C92.0113 93.718 91.7797 94.3221 91.3165 94.7853C90.8534 95.2485 90.2492 95.4801 89.5041 95.4801C88.759 95.4801 88.1548 95.2485 87.6917 94.7853Z" fill="black"/>
<path d="M96.4971 84.7565H98.0981V95.3291H96.4971V84.7565Z" fill="black"/>
<path d="M99.8501 84.7565H101.617L103.656 91.8552V84.7565H105.227V95.3291H103.535L101.421 88.5626V95.3291H99.8501V84.7565Z" fill="black"/>
<path d="M106.979 84.7565H111.45V86.2669H108.58V89.3631H110.846V90.8735H108.58V95.3291H106.979V84.7565Z" fill="black"/>
<path d="M113.262 94.7753C112.789 94.3071 112.552 93.6928 112.552 92.9276V87.158C112.552 86.3928 112.789 85.7735 113.262 85.3103C113.735 84.8472 114.355 84.6105 115.12 84.6105C115.885 84.6105 116.504 84.8421 116.978 85.3103C117.451 85.7785 117.687 86.3978 117.687 87.158V92.9276C117.687 93.6928 117.451 94.3121 116.978 94.7753C116.504 95.2435 115.885 95.4801 115.12 95.4801C114.355 95.4801 113.735 95.2435 113.262 94.7753ZM115.83 93.6979C116.001 93.5166 116.086 93.2599 116.086 92.9276V87.158C116.086 86.8257 116.001 86.569 115.83 86.3877C115.659 86.2065 115.422 86.1159 115.12 86.1159C114.818 86.1159 114.581 86.2065 114.41 86.3877C114.239 86.569 114.153 86.8257 114.153 87.158V92.9276C114.153 93.2599 114.239 93.5166 114.41 93.6979C114.581 93.8791 114.818 93.9697 115.12 93.9697C115.422 93.9697 115.659 93.8791 115.83 93.6979Z" fill="black"/>
<defs>
<linearGradient id="paint0_linear" x1="32.685" y1="151.384" x2="147.274" y2="28.5741" gradientUnits="userSpaceOnUse">
<stop stop-color="#070707"/>
<stop offset="0.3051" stop-color="#A6A6A6"/>
<stop offset="0.511" stop-color="#4E4E4E"/>
<stop offset="0.6215" stop-color="#232323"/>
<stop offset="0.6407" stop-color="#2E2E2E"/>
<stop offset="0.6747" stop-color="#4C4C4C"/>
<stop offset="0.7191" stop-color="#7B7B7B"/>
<stop offset="0.7542" stop-color="#A6A6A6"/>
<stop offset="0.8475" stop-color="#070707"/>
<stop offset="0.9605" stop-color="#070707"/>
<stop offset="1" stop-color="#808080"/>
</linearGradient>
<linearGradient id="paint1_linear" x1="34.2573" y1="149.699" x2="145.701" y2="30.2593" gradientUnits="userSpaceOnUse">
<stop stop-color="#070707"/>
<stop offset="0.3051" stop-color="#A6A6A6"/>
<stop offset="0.511" stop-color="#4E4E4E"/>
<stop offset="0.6215" stop-color="#232323"/>
<stop offset="0.6407" stop-color="#2E2E2E"/>
<stop offset="0.6747" stop-color="#4C4C4C"/>
<stop offset="0.7191" stop-color="#7B7B7B"/>
<stop offset="0.7542" stop-color="#A6A6A6"/>
<stop offset="0.8475" stop-color="#070707"/>
<stop offset="0.9605" stop-color="#070707"/>
<stop offset="1" stop-color="#808080"/>
</linearGradient>
<linearGradient id="paint2_linear" x1="35.8297" y1="148.014" x2="144.129" y2="31.9443" gradientUnits="userSpaceOnUse">
<stop stop-color="#070707"/>
<stop offset="0.3051" stop-color="#A6A6A6"/>
<stop offset="0.511" stop-color="#4E4E4E"/>
<stop offset="0.6215" stop-color="#232323"/>
<stop offset="0.6407" stop-color="#2E2E2E"/>
<stop offset="0.6747" stop-color="#4C4C4C"/>
<stop offset="0.7191" stop-color="#7B7B7B"/>
<stop offset="0.7542" stop-color="#A6A6A6"/>
<stop offset="0.8475" stop-color="#070707"/>
<stop offset="0.9605" stop-color="#070707"/>
<stop offset="1" stop-color="#808080"/>
</linearGradient>
<linearGradient id="paint3_linear" x1="37.402" y1="146.329" x2="142.557" y2="33.6295" gradientUnits="userSpaceOnUse">
<stop stop-color="#070707"/>
<stop offset="0.3051" stop-color="#A6A6A6"/>
<stop offset="0.511" stop-color="#4E4E4E"/>
<stop offset="0.6215" stop-color="#232323"/>
<stop offset="0.6407" stop-color="#2E2E2E"/>
<stop offset="0.6747" stop-color="#4C4C4C"/>
<stop offset="0.7191" stop-color="#7B7B7B"/>
<stop offset="0.7542" stop-color="#A6A6A6"/>
<stop offset="0.8475" stop-color="#070707"/>
<stop offset="0.9605" stop-color="#070707"/>
<stop offset="1" stop-color="#808080"/>
</linearGradient>
<linearGradient id="paint4_linear" x1="38.9743" y1="144.644" x2="140.984" y2="35.3146" gradientUnits="userSpaceOnUse">
<stop stop-color="#070707"/>
<stop offset="0.3051" stop-color="#A6A6A6"/>
<stop offset="0.511" stop-color="#4E4E4E"/>
<stop offset="0.6215" stop-color="#232323"/>
<stop offset="0.6407" stop-color="#2E2E2E"/>
<stop offset="0.6747" stop-color="#4C4C4C"/>
<stop offset="0.7191" stop-color="#7B7B7B"/>
<stop offset="0.7542" stop-color="#A6A6A6"/>
<stop offset="0.8475" stop-color="#070707"/>
<stop offset="0.9605" stop-color="#070707"/>
<stop offset="1" stop-color="#808080"/>
</linearGradient>
<linearGradient id="paint5_linear" x1="40.5466" y1="142.959" x2="139.412" y2="36.9997" gradientUnits="userSpaceOnUse">
<stop stop-color="#070707"/>
<stop offset="0.3051" stop-color="#A6A6A6"/>
<stop offset="0.511" stop-color="#4E4E4E"/>
<stop offset="0.6215" stop-color="#232323"/>
<stop offset="0.6407" stop-color="#2E2E2E"/>
<stop offset="0.6747" stop-color="#4C4C4C"/>
<stop offset="0.7191" stop-color="#7B7B7B"/>
<stop offset="0.7542" stop-color="#A6A6A6"/>
<stop offset="0.8475" stop-color="#070707"/>
<stop offset="0.9605" stop-color="#070707"/>
<stop offset="1" stop-color="#808080"/>
</linearGradient>
<linearGradient id="paint6_linear" x1="42.1188" y1="141.274" x2="137.84" y2="38.6848" gradientUnits="userSpaceOnUse">
<stop stop-color="#070707"/>
<stop offset="0.3051" stop-color="#A6A6A6"/>
<stop offset="0.511" stop-color="#4E4E4E"/>
<stop offset="0.6215" stop-color="#232323"/>
<stop offset="0.6407" stop-color="#2E2E2E"/>
<stop offset="0.6747" stop-color="#4C4C4C"/>
<stop offset="0.7191" stop-color="#7B7B7B"/>
<stop offset="0.7542" stop-color="#A6A6A6"/>
<stop offset="0.8475" stop-color="#070707"/>
<stop offset="0.9605" stop-color="#070707"/>
<stop offset="1" stop-color="#808080"/>
</linearGradient>
<linearGradient id="paint7_linear" x1="43.6821" y1="139.598" x2="136.276" y2="40.3603" gradientUnits="userSpaceOnUse">
<stop stop-color="#070707"/>
<stop offset="0.3051" stop-color="#A6A6A6"/>
<stop offset="0.511" stop-color="#4E4E4E"/>
<stop offset="0.6215" stop-color="#232323"/>
<stop offset="0.6407" stop-color="#2E2E2E"/>
<stop offset="0.6747" stop-color="#4C4C4C"/>
<stop offset="0.7191" stop-color="#7B7B7B"/>
<stop offset="0.7542" stop-color="#A6A6A6"/>
<stop offset="0.8475" stop-color="#070707"/>
<stop offset="0.9605" stop-color="#070707"/>
<stop offset="1" stop-color="#808080"/>
</linearGradient>
<linearGradient id="paint8_linear" x1="45.2548" y1="137.913" x2="134.704" y2="42.0457" gradientUnits="userSpaceOnUse">
<stop stop-color="#070707"/>
<stop offset="0.3051" stop-color="#A6A6A6"/>
<stop offset="0.511" stop-color="#4E4E4E"/>
<stop offset="0.6215" stop-color="#232323"/>
<stop offset="0.6407" stop-color="#2E2E2E"/>
<stop offset="0.6747" stop-color="#4C4C4C"/>
<stop offset="0.7191" stop-color="#7B7B7B"/>
<stop offset="0.7542" stop-color="#A6A6A6"/>
<stop offset="0.8475" stop-color="#070707"/>
<stop offset="0.9605" stop-color="#070707"/>
<stop offset="1" stop-color="#808080"/>
</linearGradient>
<linearGradient id="paint9_linear" x1="46.8274" y1="136.227" x2="133.131" y2="43.7311" gradientUnits="userSpaceOnUse">
<stop stop-color="#070707"/>
<stop offset="0.3051" stop-color="#A6A6A6"/>
<stop offset="0.511" stop-color="#4E4E4E"/>
<stop offset="0.6215" stop-color="#232323"/>
<stop offset="0.6407" stop-color="#2E2E2E"/>
<stop offset="0.6747" stop-color="#4C4C4C"/>
<stop offset="0.7191" stop-color="#7B7B7B"/>
<stop offset="0.7542" stop-color="#A6A6A6"/>
<stop offset="0.8475" stop-color="#070707"/>
<stop offset="0.9605" stop-color="#070707"/>
<stop offset="1" stop-color="#808080"/>
</linearGradient>
<linearGradient id="paint10_linear" x1="48.4" y1="134.542" x2="131.559" y2="45.4166" gradientUnits="userSpaceOnUse">
<stop stop-color="#070707"/>
<stop offset="0.3051" stop-color="#A6A6A6"/>
<stop offset="0.511" stop-color="#4E4E4E"/>
<stop offset="0.6215" stop-color="#232323"/>
<stop offset="0.6407" stop-color="#2E2E2E"/>
<stop offset="0.6747" stop-color="#4C4C4C"/>
<stop offset="0.7191" stop-color="#7B7B7B"/>
<stop offset="0.7542" stop-color="#A6A6A6"/>
<stop offset="0.8475" stop-color="#070707"/>
<stop offset="0.9605" stop-color="#070707"/>
<stop offset="1" stop-color="#808080"/>
</linearGradient>
<linearGradient id="paint11_linear" x1="49.9725" y1="132.856" x2="129.986" y2="47.102" gradientUnits="userSpaceOnUse">
<stop stop-color="#070707"/>
<stop offset="0.3051" stop-color="#A6A6A6"/>
<stop offset="0.511" stop-color="#4E4E4E"/>
<stop offset="0.6215" stop-color="#232323"/>
<stop offset="0.6407" stop-color="#2E2E2E"/>
<stop offset="0.6747" stop-color="#4C4C4C"/>
<stop offset="0.7191" stop-color="#7B7B7B"/>
<stop offset="0.7542" stop-color="#A6A6A6"/>
<stop offset="0.8475" stop-color="#070707"/>
<stop offset="0.9605" stop-color="#070707"/>
<stop offset="1" stop-color="#808080"/>
</linearGradient>
<linearGradient id="paint12_linear" x1="51.5452" y1="131.171" x2="128.413" y2="48.7875" gradientUnits="userSpaceOnUse">
<stop stop-color="#070707"/>
<stop offset="0.3051" stop-color="#A6A6A6"/>
<stop offset="0.511" stop-color="#4E4E4E"/>
<stop offset="0.6215" stop-color="#232323"/>
<stop offset="0.6407" stop-color="#2E2E2E"/>
<stop offset="0.6747" stop-color="#4C4C4C"/>
<stop offset="0.7191" stop-color="#7B7B7B"/>
<stop offset="0.7542" stop-color="#A6A6A6"/>
<stop offset="0.8475" stop-color="#070707"/>
<stop offset="0.9605" stop-color="#070707"/>
<stop offset="1" stop-color="#808080"/>
</linearGradient>
<linearGradient id="paint13_linear" x1="53.1178" y1="129.485" x2="126.841" y2="50.4729" gradientUnits="userSpaceOnUse">
<stop stop-color="#070707"/>
<stop offset="0.3051" stop-color="#A6A6A6"/>
<stop offset="0.511" stop-color="#4E4E4E"/>
<stop offset="0.6215" stop-color="#232323"/>
<stop offset="0.6407" stop-color="#2E2E2E"/>
<stop offset="0.6747" stop-color="#4C4C4C"/>
<stop offset="0.7191" stop-color="#7B7B7B"/>
<stop offset="0.7542" stop-color="#A6A6A6"/>
<stop offset="0.8475" stop-color="#070707"/>
<stop offset="0.9605" stop-color="#070707"/>
<stop offset="1" stop-color="#808080"/>
</linearGradient>
<linearGradient id="paint14_linear" x1="54.6903" y1="127.8" x2="125.268" y2="52.1583" gradientUnits="userSpaceOnUse">
<stop stop-color="#070707"/>
<stop offset="0.3051" stop-color="#A6A6A6"/>
<stop offset="0.511" stop-color="#4E4E4E"/>
<stop offset="0.6215" stop-color="#232323"/>
<stop offset="0.6407" stop-color="#2E2E2E"/>
<stop offset="0.6747" stop-color="#4C4C4C"/>
<stop offset="0.7191" stop-color="#7B7B7B"/>
<stop offset="0.7542" stop-color="#A6A6A6"/>
<stop offset="0.8475" stop-color="#070707"/>
<stop offset="0.9605" stop-color="#070707"/>
<stop offset="1" stop-color="#808080"/>
</linearGradient>
<linearGradient id="paint15_linear" x1="56.263" y1="126.115" x2="123.696" y2="53.8438" gradientUnits="userSpaceOnUse">
<stop stop-color="#070707"/>
<stop offset="0.3051" stop-color="#A6A6A6"/>
<stop offset="0.511" stop-color="#4E4E4E"/>
<stop offset="0.6215" stop-color="#232323"/>
<stop offset="0.6407" stop-color="#2E2E2E"/>
<stop offset="0.6747" stop-color="#4C4C4C"/>
<stop offset="0.7191" stop-color="#7B7B7B"/>
<stop offset="0.7542" stop-color="#A6A6A6"/>
<stop offset="0.8475" stop-color="#070707"/>
<stop offset="0.9605" stop-color="#070707"/>
<stop offset="1" stop-color="#808080"/>
</linearGradient>
<linearGradient id="paint16_linear" x1="57.8355" y1="124.429" x2="122.123" y2="55.5292" gradientUnits="userSpaceOnUse">
<stop stop-color="#070707"/>
<stop offset="0.3051" stop-color="#A6A6A6"/>
<stop offset="0.511" stop-color="#4E4E4E"/>
<stop offset="0.6215" stop-color="#232323"/>
<stop offset="0.6407" stop-color="#2E2E2E"/>
<stop offset="0.6747" stop-color="#4C4C4C"/>
<stop offset="0.7191" stop-color="#7B7B7B"/>
<stop offset="0.7542" stop-color="#A6A6A6"/>
<stop offset="0.8475" stop-color="#070707"/>
<stop offset="0.9605" stop-color="#070707"/>
<stop offset="1" stop-color="#808080"/>
</linearGradient>
<linearGradient id="paint17_linear" x1="59.4081" y1="122.744" x2="120.55" y2="57.2146" gradientUnits="userSpaceOnUse">
<stop stop-color="#070707"/>
<stop offset="0.3051" stop-color="#A6A6A6"/>
<stop offset="0.511" stop-color="#4E4E4E"/>
<stop offset="0.6215" stop-color="#232323"/>
<stop offset="0.6407" stop-color="#2E2E2E"/>
<stop offset="0.6747" stop-color="#4C4C4C"/>
<stop offset="0.7191" stop-color="#7B7B7B"/>
<stop offset="0.7542" stop-color="#A6A6A6"/>
<stop offset="0.8475" stop-color="#070707"/>
<stop offset="0.9605" stop-color="#070707"/>
<stop offset="1" stop-color="#808080"/>
</linearGradient>
<linearGradient id="paint18_linear" x1="60.9808" y1="121.058" x2="118.978" y2="58.9" gradientUnits="userSpaceOnUse">
<stop stop-color="#070707"/>
<stop offset="0.3051" stop-color="#A6A6A6"/>
<stop offset="0.511" stop-color="#4E4E4E"/>
<stop offset="0.6215" stop-color="#232323"/>
<stop offset="0.6407" stop-color="#2E2E2E"/>
<stop offset="0.6747" stop-color="#4C4C4C"/>
<stop offset="0.7191" stop-color="#7B7B7B"/>
<stop offset="0.7542" stop-color="#A6A6A6"/>
<stop offset="0.8475" stop-color="#070707"/>
<stop offset="0.9605" stop-color="#070707"/>
<stop offset="1" stop-color="#808080"/>
</linearGradient>
<linearGradient id="paint19_linear" x1="62.5705" y1="119.355" x2="117.388" y2="60.604" gradientUnits="userSpaceOnUse">
<stop stop-color="#070707"/>
<stop offset="0.3051" stop-color="#A6A6A6"/>
<stop offset="0.511" stop-color="#4E4E4E"/>
<stop offset="0.6215" stop-color="#232323"/>
<stop offset="0.6407" stop-color="#2E2E2E"/>
<stop offset="0.6747" stop-color="#4C4C4C"/>
<stop offset="0.7191" stop-color="#7B7B7B"/>
<stop offset="0.7542" stop-color="#A6A6A6"/>
<stop offset="0.8475" stop-color="#070707"/>
<stop offset="0.9605" stop-color="#070707"/>
<stop offset="1" stop-color="#808080"/>
</linearGradient>
<linearGradient id="paint20_linear" x1="64.1422" y1="117.67" x2="115.816" y2="62.2882" gradientUnits="userSpaceOnUse">
<stop stop-color="#070707"/>
<stop offset="0.3051" stop-color="#A6A6A6"/>
<stop offset="0.511" stop-color="#4E4E4E"/>
<stop offset="0.6215" stop-color="#232323"/>
<stop offset="0.6407" stop-color="#2E2E2E"/>
<stop offset="0.6747" stop-color="#4C4C4C"/>
<stop offset="0.7191" stop-color="#7B7B7B"/>
<stop offset="0.7542" stop-color="#A6A6A6"/>
<stop offset="0.8475" stop-color="#070707"/>
<stop offset="0.9605" stop-color="#070707"/>
<stop offset="1" stop-color="#808080"/>
</linearGradient>
<linearGradient id="paint21_linear" x1="65.7138" y1="115.986" x2="114.245" y2="63.9727" gradientUnits="userSpaceOnUse">
<stop stop-color="#070707"/>
<stop offset="0.3051" stop-color="#A6A6A6"/>
<stop offset="0.511" stop-color="#4E4E4E"/>
<stop offset="0.6215" stop-color="#232323"/>
<stop offset="0.6407" stop-color="#2E2E2E"/>
<stop offset="0.6747" stop-color="#4C4C4C"/>
<stop offset="0.7191" stop-color="#7B7B7B"/>
<stop offset="0.7542" stop-color="#A6A6A6"/>
<stop offset="0.8475" stop-color="#070707"/>
<stop offset="0.9605" stop-color="#070707"/>
<stop offset="1" stop-color="#808080"/>
</linearGradient>
<linearGradient id="paint22_linear" x1="109.998" y1="113.837" x2="69.9605" y2="66.1216" gradientUnits="userSpaceOnUse">
<stop stop-color="#FFDA8A"/>
<stop offset="1" stop-color="#F3CE7D"/>
</linearGradient>
</defs>
</svg>
