<svg width="30" height="24" viewBox="0 0 30 24" fill="none" xmlns="http://www.w3.org/2000/svg">
<path d="M0 23.9992H14.9995V23.6092C17.2794 24.2092 19.7543 24.1342 22.1392 23.2492C28.349 20.9693 31.5439 14.0695 29.264 7.85973C27.1191 2.02493 20.8943 -1.13996 14.9995 0.389986V0H0V23.9992ZM13.4995 1.49995V22.4992H1.49995V1.49995H13.4995ZM21.6742 13.8295C21.1862 14.8016 20.3335 15.5411 19.3022 15.8868C18.2709 16.2324 17.1447 16.1561 16.1694 15.6745C15.7045 15.4495 15.3145 15.1495 14.9995 14.7895V9.19468C16.1994 7.90473 18.1644 7.49974 19.8293 8.32471C21.8542 9.34468 22.6792 11.8046 21.6742 13.8295ZM17.5494 12.5996C17.8794 12.8396 18.3444 12.7796 18.5994 12.4496C18.8393 12.1196 18.7794 11.6546 18.4494 11.3996C18.1194 11.1446 17.6544 11.2196 17.3994 11.5496C17.1594 11.8646 17.2194 12.3446 17.5494 12.5996ZM22.0642 18.1044C20.3093 19.2743 18.2244 19.5893 16.3194 19.1393C15.9144 19.0493 15.6595 18.6294 15.7645 18.2244C15.8695 17.8194 16.2744 17.5794 16.6944 17.6844L16.9494 17.7444C18.3894 17.9994 19.9193 17.7294 21.2393 16.8594C21.9442 16.3794 22.5292 15.7795 22.9492 15.0895C23.1742 14.7445 23.6242 14.6395 23.9842 14.8495C24.3292 15.0745 24.4342 15.5395 24.2242 15.8844C23.6842 16.7394 22.9642 17.5044 22.0642 18.1044ZM23.6392 20.4593C21.5075 21.8885 18.9133 22.4567 16.3794 22.0492C16.2819 22.0295 16.1893 21.9908 16.1067 21.9353C16.0242 21.8798 15.9534 21.8086 15.8984 21.7257C15.8433 21.6428 15.8052 21.5499 15.7861 21.4523C15.767 21.3547 15.7673 21.2543 15.787 21.1568C15.8067 21.0593 15.8454 20.9666 15.9009 20.8841C15.9564 20.8015 16.0276 20.7307 16.1105 20.6757C16.1934 20.6207 16.2863 20.5825 16.3839 20.5634C16.4815 20.5443 16.5819 20.5446 16.6794 20.5643L17.0094 20.6243C18.9743 20.8493 21.0293 20.4143 22.8142 19.2143C23.8792 18.5094 24.7191 17.6094 25.3641 16.6044C25.5741 16.2444 26.0391 16.1394 26.3841 16.3644C26.7441 16.5744 26.8491 17.0394 26.6241 17.3994C25.8891 18.5844 24.8841 19.6343 23.6392 20.4593Z" fill="#202020"/>
</svg>
