<svg width="182" height="183" viewBox="0 0 182 183" fill="none" xmlns="http://www.w3.org/2000/svg">
<path d="M87.135 0.103202C87.135 0.103202 54.455 1.7582 33.355 29.4332C12.255 57.1082 11.675 94.9332 10.39 125.548C9.10502 156.163 27.06 179.353 53.36 182.408C79.66 185.463 86.755 161.953 116.265 148.718C145.775 135.483 155.615 136.433 173.265 109.258C190.915 82.0832 178.57 40.3132 146.565 18.8882C114.56 -2.5368 87.135 0.103202 87.135 0.103202Z" fill="#FFDA8A"/>
<path opacity="0.7" d="M87.135 0.103202C87.135 0.103202 54.455 1.7582 33.355 29.4332C12.255 57.1082 11.675 94.9332 10.39 125.548C9.10502 156.163 27.06 179.353 53.36 182.408C79.66 185.463 86.755 161.953 116.265 148.718C145.775 135.483 155.615 136.433 173.265 109.258C190.915 82.0832 178.57 40.3132 146.565 18.8882C114.56 -2.5368 87.135 0.103202 87.135 0.103202Z" fill="white"/>
<path d="M35.69 111.753C34.996 111.752 34.3309 111.475 33.8406 110.984C33.3504 110.493 33.075 109.827 33.075 109.133V80.0032C33.075 79.4025 32.8364 78.8264 32.4116 78.4016C31.9869 77.9768 31.4107 77.7382 30.81 77.7382C30.2093 77.7382 29.6332 77.9768 29.2084 78.4016C28.7837 78.8264 28.545 79.4025 28.545 80.0032V101.753C28.5173 102.35 28.2605 102.914 27.828 103.327C27.3955 103.74 26.8205 103.97 26.2225 103.97C25.6246 103.97 25.0496 103.74 24.6171 103.327C24.1845 102.914 23.9277 102.35 23.9 101.753V89.7532C23.9125 89.5259 23.8784 89.2984 23.8 89.0846C23.7215 88.8709 23.6004 88.6754 23.4438 88.5101C23.2873 88.3448 23.0987 88.2131 22.8896 88.1231C22.6805 88.0331 22.4552 87.9867 22.2275 87.9867C21.9999 87.9867 21.7746 88.0331 21.5654 88.1231C21.3563 88.2131 21.1677 88.3448 21.0112 88.5101C20.8547 88.6754 20.7335 88.8709 20.6551 89.0846C20.5766 89.2984 20.5426 89.5259 20.555 89.7532V94.2182H16.865V93.7182H20.055V89.7532C20.0409 89.4591 20.0866 89.1652 20.1895 88.8894C20.2923 88.6135 20.45 88.3614 20.6531 88.1483C20.8563 87.9352 21.1005 87.7655 21.3712 87.6496C21.6418 87.5337 21.9331 87.4739 22.2275 87.4739C22.5219 87.4739 22.8133 87.5337 23.0839 87.6496C23.3545 87.7655 23.5988 87.9352 23.8019 88.1483C24.005 88.3614 24.1628 88.6135 24.2656 88.8894C24.3684 89.1652 24.4141 89.4591 24.4 89.7532V101.753C24.4245 102.22 24.6272 102.66 24.9663 102.981C25.3054 103.303 25.755 103.483 26.2225 103.483C26.69 103.483 27.1397 103.303 27.4788 102.981C27.8179 102.66 28.0206 102.22 28.045 101.753V80.0032C28.045 79.2699 28.3363 78.5666 28.8549 78.048C29.3734 77.5295 30.0767 77.2382 30.81 77.2382C31.5433 77.2382 32.2466 77.5295 32.7652 78.048C33.2837 78.5666 33.575 79.2699 33.575 80.0032V109.133C33.5611 109.42 33.6055 109.706 33.7056 109.976C33.8058 110.245 33.9595 110.49 34.1575 110.698C34.3555 110.906 34.5936 111.072 34.8575 111.185C35.1214 111.298 35.4055 111.356 35.6925 111.356C35.9796 111.356 36.2637 111.298 36.5275 111.185C36.7914 111.072 37.0295 110.906 37.2275 110.698C37.4255 110.49 37.5793 110.245 37.6794 109.976C37.7795 109.706 37.824 109.42 37.81 109.133V73.6032C37.7926 73.1514 37.8665 72.7007 38.0274 72.2781C38.1883 71.8556 38.4328 71.4698 38.7463 71.144C39.0598 70.8182 39.4358 70.5589 39.8518 70.3819C40.2679 70.2048 40.7154 70.1136 41.1675 70.1136C41.6197 70.1136 42.0672 70.2048 42.4832 70.3819C42.8993 70.5589 43.2753 70.8182 43.5888 71.144C43.9023 71.4698 44.1468 71.8556 44.3077 72.2781C44.4685 72.7007 44.5425 73.1514 44.525 73.6032V108.978C44.525 109.579 44.7637 110.155 45.1884 110.58C45.6132 111.005 46.1893 111.243 46.79 111.243C47.3907 111.243 47.9668 111.005 48.3916 110.58C48.8164 110.155 49.055 109.579 49.055 108.978V80.7832C49.055 79.9318 49.3932 79.1154 49.9952 78.5134C50.5972 77.9114 51.4137 77.5732 52.265 77.5732C53.1164 77.5732 53.9328 77.9114 54.5348 78.5134C55.1368 79.1154 55.475 79.9318 55.475 80.7832V101.603C55.475 102.126 55.6826 102.627 56.052 102.996C56.4215 103.366 56.9225 103.573 57.445 103.573C57.9675 103.573 58.4686 103.366 58.838 102.996C59.2075 102.627 59.415 102.126 59.415 101.603V90.2732C59.443 89.6641 59.7047 89.0892 60.1456 88.6681C60.5865 88.247 61.1728 88.012 61.7825 88.012C62.3922 88.012 62.9785 88.247 63.4194 88.6681C63.8604 89.0892 64.122 89.6641 64.15 90.2732V93.7082H67.835V94.2082H63.65V90.2732C63.6253 89.7946 63.4177 89.3438 63.0702 89.0138C62.7227 88.6838 62.2617 88.4998 61.7825 88.4998C61.3033 88.4998 60.8424 88.6838 60.4949 89.0138C60.1474 89.3438 59.9398 89.7946 59.915 90.2732V101.603C59.915 102.258 59.6548 102.887 59.1916 103.35C58.7284 103.813 58.1001 104.073 57.445 104.073C56.7899 104.073 56.1617 103.813 55.6985 103.35C55.2353 102.887 54.975 102.258 54.975 101.603V80.7832C54.975 80.0644 54.6895 79.3751 54.1813 78.8669C53.6731 78.3587 52.9838 78.0732 52.265 78.0732C51.5463 78.0732 50.857 78.3587 50.3488 78.8669C49.8405 79.3751 49.555 80.0644 49.555 80.7832V108.973C49.555 109.706 49.2637 110.41 48.7452 110.928C48.2266 111.447 47.5233 111.738 46.79 111.738C46.0567 111.738 45.3534 111.447 44.8349 110.928C44.3163 110.41 44.025 109.706 44.025 108.973V73.6032C44.0411 73.2179 43.9792 72.8333 43.8428 72.4725C43.7065 72.1118 43.4986 71.7824 43.2317 71.504C42.9647 71.2257 42.6443 71.0042 42.2896 70.8529C41.9348 70.7016 41.5532 70.6236 41.1675 70.6236C40.7819 70.6236 40.4002 70.7016 40.0455 70.8529C39.6908 71.0042 39.3703 71.2257 39.1034 71.504C38.8364 71.7824 38.6285 72.1118 38.4922 72.4725C38.3559 72.8333 38.2939 73.2179 38.31 73.6032V109.138C38.3074 109.832 38.0303 110.496 37.5394 110.986C37.0485 111.476 36.3836 111.752 35.69 111.753Z" fill="#202020"/>
<path d="M83.94 111.753C83.246 111.752 82.5809 111.475 82.0906 110.984C81.6004 110.493 81.325 109.827 81.325 109.133V80.0032C81.325 79.4025 81.0864 78.8264 80.6616 78.4016C80.2369 77.9768 79.6607 77.7382 79.06 77.7382C78.4593 77.7382 77.8832 77.9768 77.4584 78.4016C77.0337 78.8264 76.795 79.4025 76.795 80.0032V101.753C76.7673 102.35 76.5105 102.914 76.078 103.327C75.6455 103.74 75.0705 103.97 74.4725 103.97C73.8746 103.97 73.2996 103.74 72.8671 103.327C72.4345 102.914 72.1777 102.35 72.15 101.753V89.7532C72.1625 89.5259 72.1284 89.2984 72.05 89.0846C71.9715 88.8709 71.8504 88.6754 71.6938 88.5101C71.5373 88.3448 71.3487 88.2131 71.1396 88.1231C70.9305 88.0331 70.7052 87.9867 70.4775 87.9867C70.2499 87.9867 70.0246 88.0331 69.8154 88.1231C69.6063 88.2131 69.4177 88.3448 69.2612 88.5101C69.1047 88.6754 68.9835 88.8709 68.9051 89.0846C68.8266 89.2984 68.7926 89.5259 68.805 89.7532V94.2182H65.115V93.7182H68.305V89.7532C68.2909 89.4591 68.3367 89.1652 68.4395 88.8894C68.5423 88.6135 68.7 88.3614 68.9031 88.1483C69.1063 87.9352 69.3505 87.7655 69.6212 87.6496C69.8918 87.5337 70.1831 87.4739 70.4775 87.4739C70.7719 87.4739 71.0633 87.5337 71.3339 87.6496C71.6045 87.7655 71.8488 87.9352 72.0519 88.1483C72.255 88.3614 72.4128 88.6135 72.5156 88.8894C72.6184 89.1652 72.6641 89.4591 72.65 89.7532V101.753C72.6745 102.22 72.8772 102.66 73.2163 102.981C73.5554 103.303 74.005 103.483 74.4725 103.483C74.94 103.483 75.3897 103.303 75.7288 102.981C76.0679 102.66 76.2706 102.22 76.295 101.753V80.0032C76.295 79.2699 76.5863 78.5666 77.1049 78.048C77.6234 77.5295 78.3267 77.2382 79.06 77.2382C79.7933 77.2382 80.4966 77.5295 81.0152 78.048C81.5337 78.5666 81.825 79.2699 81.825 80.0032V109.133C81.8111 109.42 81.8555 109.706 81.9557 109.976C82.0558 110.245 82.2095 110.49 82.4075 110.698C82.6055 110.906 82.8437 111.072 83.1075 111.185C83.3714 111.298 83.6555 111.356 83.9425 111.356C84.2296 111.356 84.5137 111.298 84.7775 111.185C85.0414 111.072 85.2796 110.906 85.4776 110.698C85.6756 110.49 85.8293 110.245 85.9294 109.976C86.0295 109.706 86.074 109.42 86.06 109.133V73.6032C86.0426 73.1514 86.1165 72.7007 86.2774 72.2781C86.4383 71.8556 86.6828 71.4698 86.9963 71.144C87.3098 70.8182 87.6858 70.5589 88.1018 70.3819C88.5179 70.2048 88.9654 70.1136 89.4175 70.1136C89.8697 70.1136 90.3172 70.2048 90.7332 70.3819C91.1493 70.5589 91.5253 70.8182 91.8388 71.144C92.1523 71.4698 92.3968 71.8556 92.5577 72.2781C92.7185 72.7007 92.7925 73.1514 92.775 73.6032V108.978C92.775 109.579 93.0137 110.155 93.4384 110.58C93.8632 111.005 94.4393 111.243 95.04 111.243C95.6407 111.243 96.2169 111.005 96.6416 110.58C97.0664 110.155 97.305 109.579 97.305 108.978V80.7832C97.305 79.9318 97.6432 79.1154 98.2452 78.5134C98.8472 77.9114 99.6637 77.5732 100.515 77.5732C101.366 77.5732 102.183 77.9114 102.785 78.5134C103.387 79.1154 103.725 79.9318 103.725 80.7832V101.603C103.725 102.126 103.933 102.627 104.302 102.996C104.671 103.366 105.173 103.573 105.695 103.573C106.218 103.573 106.719 103.366 107.088 102.996C107.457 102.627 107.665 102.126 107.665 101.603V90.2732C107.665 89.6459 107.914 89.0444 108.358 88.6009C108.801 88.1574 109.403 87.9082 110.03 87.9082C110.657 87.9082 111.259 88.1574 111.702 88.6009C112.146 89.0444 112.395 89.6459 112.395 90.2732V93.7082H116.085V94.2082H111.895V90.2732C111.895 89.7785 111.699 89.3042 111.349 88.9544C110.999 88.6047 110.525 88.4082 110.03 88.4082C109.535 88.4082 109.061 88.6047 108.711 88.9544C108.362 89.3042 108.165 89.7785 108.165 90.2732V101.603C108.165 102.258 107.905 102.887 107.442 103.35C106.978 103.813 106.35 104.073 105.695 104.073C105.04 104.073 104.412 103.813 103.948 103.35C103.485 102.887 103.225 102.258 103.225 101.603V80.7832C103.225 80.0644 102.94 79.3751 102.431 78.8669C101.923 78.3587 101.234 78.0732 100.515 78.0732C99.7963 78.0732 99.107 78.3587 98.5988 78.8669C98.0905 79.3751 97.805 80.0644 97.805 80.7832V108.973C97.805 109.706 97.5137 110.41 96.9952 110.928C96.4766 111.447 95.7733 111.738 95.04 111.738C94.3067 111.738 93.6034 111.447 93.0849 110.928C92.5663 110.41 92.275 109.706 92.275 108.973V73.6032C92.2911 73.2179 92.2292 72.8333 92.0929 72.4725C91.9565 72.1118 91.7486 71.7824 91.4817 71.504C91.2148 71.2257 90.8943 71.0042 90.5396 70.8529C90.1848 70.7016 89.8032 70.6236 89.4175 70.6236C89.0319 70.6236 88.6502 70.7016 88.2955 70.8529C87.9408 71.0042 87.6203 71.2257 87.3534 71.504C87.0864 71.7824 86.8786 72.1118 86.7422 72.4725C86.6059 72.8333 86.5439 73.2179 86.56 73.6032V109.138C86.5574 109.832 86.2803 110.496 85.7894 110.986C85.2985 111.476 84.6336 111.752 83.94 111.753Z" fill="#202020"/>
<path d="M132.19 111.753C131.496 111.752 130.831 111.475 130.341 110.984C129.85 110.493 129.575 109.827 129.575 109.133V80.0032C129.575 79.4025 129.336 78.8264 128.912 78.4016C128.487 77.9768 127.911 77.7382 127.31 77.7382C126.709 77.7382 126.133 77.9768 125.708 78.4016C125.284 78.8264 125.045 79.4025 125.045 80.0032V101.753C125.017 102.35 124.761 102.914 124.328 103.327C123.895 103.74 123.32 103.97 122.723 103.97C122.125 103.97 121.55 103.74 121.117 103.327C120.685 102.914 120.428 102.35 120.4 101.753V89.7532C120.412 89.5259 120.378 89.2984 120.3 89.0846C120.222 88.8709 120.1 88.6754 119.944 88.5101C119.787 88.3448 119.599 88.2131 119.39 88.1231C119.18 88.0331 118.955 87.9867 118.728 87.9867C118.5 87.9867 118.275 88.0331 118.065 88.1231C117.856 88.2131 117.668 88.3448 117.511 88.5101C117.355 88.6754 117.234 88.8709 117.155 89.0846C117.077 89.2984 117.043 89.5259 117.055 89.7532V94.2182H113.36V93.7182H116.555V89.7532C116.541 89.4591 116.587 89.1652 116.689 88.8894C116.792 88.6135 116.95 88.3614 117.153 88.1483C117.356 87.9352 117.601 87.7655 117.871 87.6496C118.142 87.5337 118.433 87.4739 118.728 87.4739C119.022 87.4739 119.313 87.5337 119.584 87.6496C119.855 87.7655 120.099 87.9352 120.302 88.1483C120.505 88.3614 120.663 88.6135 120.766 88.8894C120.868 89.1652 120.914 89.4591 120.9 89.7532V101.753C120.924 102.22 121.127 102.66 121.466 102.981C121.805 103.303 122.255 103.483 122.723 103.483C123.19 103.483 123.64 103.303 123.979 102.981C124.318 102.66 124.521 102.22 124.545 101.753V80.0032C124.545 79.2699 124.836 78.5666 125.355 78.048C125.873 77.5295 126.577 77.2382 127.31 77.2382C128.043 77.2382 128.747 77.5295 129.265 78.048C129.784 78.5666 130.075 79.2699 130.075 80.0032V109.133C130.061 109.42 130.106 109.706 130.206 109.976C130.306 110.245 130.459 110.49 130.657 110.698C130.855 110.906 131.094 111.072 131.358 111.185C131.621 111.298 131.905 111.356 132.193 111.356C132.48 111.356 132.764 111.298 133.028 111.185C133.291 111.072 133.53 110.906 133.728 110.698C133.926 110.49 134.079 110.245 134.179 109.976C134.28 109.706 134.324 109.42 134.31 109.133V73.6032C134.293 73.1514 134.367 72.7007 134.527 72.2781C134.688 71.8556 134.933 71.4698 135.246 71.144C135.56 70.8182 135.936 70.5589 136.352 70.3819C136.768 70.2048 137.215 70.1136 137.668 70.1136C138.12 70.1136 138.567 70.2048 138.983 70.3819C139.399 70.5589 139.775 70.8182 140.089 71.144C140.402 71.4698 140.647 71.8556 140.808 72.2781C140.969 72.7007 141.042 73.1514 141.025 73.6032V108.978C141.025 109.579 141.264 110.155 141.688 110.58C142.113 111.005 142.689 111.243 143.29 111.243C143.891 111.243 144.467 111.005 144.892 110.58C145.316 110.155 145.555 109.579 145.555 108.978V80.7832C145.555 79.9318 145.893 79.1154 146.495 78.5134C147.097 77.9114 147.914 77.5732 148.765 77.5732C149.616 77.5732 150.433 77.9114 151.035 78.5134C151.637 79.1154 151.975 79.9318 151.975 80.7832V101.603C151.975 102.126 152.183 102.627 152.552 102.996C152.921 103.366 153.423 103.573 153.945 103.573C154.468 103.573 154.969 103.366 155.338 102.996C155.707 102.627 155.915 102.126 155.915 101.603V90.2732C155.915 89.6459 156.164 89.0444 156.608 88.6009C157.051 88.1574 157.653 87.9082 158.28 87.9082C158.907 87.9082 159.509 88.1574 159.952 88.6009C160.396 89.0444 160.645 89.6459 160.645 90.2732V93.7082H164.335V94.2082H160.145V90.2732C160.145 89.7785 159.949 89.3042 159.599 88.9544C159.249 88.6047 158.775 88.4082 158.28 88.4082C157.785 88.4082 157.311 88.6047 156.961 88.9544C156.612 89.3042 156.415 89.7785 156.415 90.2732V101.603C156.415 102.258 156.155 102.887 155.692 103.35C155.228 103.813 154.6 104.073 153.945 104.073C153.29 104.073 152.662 103.813 152.198 103.35C151.735 102.887 151.475 102.258 151.475 101.603V80.7832C151.475 80.0644 151.19 79.3751 150.681 78.8669C150.173 78.3587 149.484 78.0732 148.765 78.0732C148.046 78.0732 147.357 78.3587 146.849 78.8669C146.341 79.3751 146.055 80.0644 146.055 80.7832V108.973C146.055 109.706 145.764 110.41 145.245 110.928C144.727 111.447 144.023 111.738 143.29 111.738C142.557 111.738 141.853 111.447 141.335 110.928C140.816 110.41 140.525 109.706 140.525 108.973V73.6032C140.541 73.2179 140.479 72.8333 140.343 72.4725C140.207 72.1118 139.999 71.7824 139.732 71.504C139.465 71.2257 139.144 71.0042 138.79 70.8529C138.435 70.7016 138.053 70.6236 137.668 70.6236C137.282 70.6236 136.9 70.7016 136.545 70.8529C136.191 71.0042 135.87 71.2257 135.603 71.504C135.336 71.7824 135.129 72.1118 134.992 72.4725C134.856 72.8333 134.794 73.2179 134.81 73.6032V109.138C134.807 109.832 134.53 110.496 134.039 110.986C133.549 111.476 132.884 111.752 132.19 111.753Z" fill="#202020"/>
<path d="M89.105 16.8982V12.2632L85.095 14.5782L89.105 16.8982Z" fill="#202020"/>
<path d="M84.49 12.1532H83.76V16.8882H84.49V12.1532Z" fill="#202020"/>
<path d="M110.335 16.8982L114.35 14.5782L110.335 12.2632V16.8982Z" fill="#202020"/>
<path d="M115.685 12.1532H114.955V16.8882H115.685V12.1532Z" fill="#202020"/>
<path d="M99.955 7.84821C98.7347 7.84821 97.5418 8.21007 96.5272 8.88804C95.5125 9.56601 94.7217 10.5296 94.2547 11.6571C93.7877 12.7845 93.6655 14.0251 93.9036 15.2219C94.1416 16.4188 94.7293 17.5182 95.5922 18.3811C96.4551 19.244 97.5545 19.8316 98.7513 20.0697C99.9482 20.3077 101.189 20.1855 102.316 19.7186C103.444 19.2516 104.407 18.4607 105.085 17.4461C105.763 16.4314 106.125 15.2385 106.125 14.0182C106.125 12.3818 105.475 10.8125 104.318 9.65536C103.161 8.49826 101.591 7.84821 99.955 7.84821ZM99.08 17.2682H97.245V10.7682H99.08V17.2682ZM102.665 17.2682H100.83V10.7682H102.665V17.2682Z" fill="#202020"/>
<path d="M127.285 165.978H121.47V168.093H127.285V165.978Z" fill="#202020"/>
<path d="M127.285 162.983H121.47V165.098H127.285V162.983Z" fill="#202020"/>
<path d="M127.285 159.988H121.47V162.103H127.285V159.988Z" fill="#202020"/>
<path d="M127.285 156.993H121.47V159.108H127.285V156.993Z" fill="#202020"/>
<path d="M142.345 165.978H136.53V168.093H142.345V165.978Z" fill="#202020"/>
<path d="M142.345 162.983H136.53V165.098H142.345V162.983Z" fill="#202020"/>
<path d="M112.22 165.978H106.405V168.093H112.22V165.978Z" fill="#202020"/>
<path d="M112.22 162.983H106.405V165.098H112.22V162.983Z" fill="#202020"/>
<path d="M119.75 165.978H113.935V168.093H119.75V165.978Z" fill="#202020"/>
<path d="M119.75 162.983H113.935V165.098H119.75V162.983Z" fill="#202020"/>
<path d="M119.75 159.988H113.935V162.103H119.75V159.988Z" fill="#202020"/>
<path d="M119.75 156.993H113.935V159.108H119.75V156.993Z" fill="#202020"/>
<path d="M119.75 153.998H113.935V156.113H119.75V153.998Z" fill="#202020"/>
<path d="M119.75 151.003H113.935V153.118H119.75V151.003Z" fill="#202020"/>
<path d="M119.75 148.008H113.935V150.123H119.75V148.008Z" fill="#202020"/>
<path d="M134.815 165.978H129V168.093H134.815V165.978Z" fill="#202020"/>
<path d="M134.815 162.983H129V165.098H134.815V162.983Z" fill="#202020"/>
<path d="M134.815 159.988H129V162.103H134.815V159.988Z" fill="#202020"/>
<path d="M134.815 156.993H129V159.108H134.815V156.993Z" fill="#202020"/>
<path d="M134.815 153.998H129V156.113H134.815V153.998Z" fill="#202020"/>
<path d="M134.815 151.003H129V153.118H134.815V151.003Z" fill="#202020"/>
<path d="M5.64502 54.7532C5.44611 54.7532 5.25534 54.6742 5.11469 54.5335C4.97404 54.3929 4.89502 54.2021 4.89502 54.0032V47.2282C4.89502 47.0293 4.97404 46.8385 5.11469 46.6979C5.25534 46.5572 5.44611 46.4782 5.64502 46.4782C5.84393 46.4782 6.0347 46.5572 6.17535 46.6979C6.316 46.8385 6.39502 47.0293 6.39502 47.2282V54.0032C6.39502 54.2021 6.316 54.3929 6.17535 54.5335C6.0347 54.6742 5.84393 54.7532 5.64502 54.7532Z" fill="#202020"/>
<path d="M3.19002 53.8582C2.99111 53.8582 2.80035 53.7792 2.65969 53.6385C2.51904 53.4979 2.44002 53.3071 2.44002 53.1082V48.1032C2.44002 47.9043 2.51904 47.7135 2.65969 47.5729C2.80035 47.4322 2.99111 47.3532 3.19002 47.3532C3.38893 47.3532 3.5797 47.4322 3.72035 47.5729C3.861 47.7135 3.94002 47.9043 3.94002 48.1032V53.1032C3.94068 53.2021 3.92177 53.3002 3.88437 53.3918C3.84698 53.4833 3.79184 53.5666 3.72213 53.6368C3.65242 53.7069 3.56952 53.7626 3.47819 53.8006C3.38687 53.8386 3.28893 53.8582 3.19002 53.8582Z" fill="#202020"/>
<path d="M0.735022 53.8582C0.537851 53.8543 0.350165 53.7728 0.2126 53.6315C0.0750359 53.4902 -0.00133638 53.3004 1.77033e-05 53.1032V48.1032C1.77033e-05 47.9043 0.0790351 47.7135 0.219688 47.5729C0.360341 47.4322 0.551108 47.3532 0.750021 47.3532C0.948934 47.3532 1.1397 47.4322 1.28035 47.5729C1.42101 47.7135 1.50002 47.9043 1.50002 48.1032V53.1032C1.50071 53.2034 1.48132 53.3027 1.44299 53.3953C1.40467 53.4878 1.34818 53.5718 1.27687 53.6422C1.20556 53.7125 1.12087 53.7679 1.02781 53.805C0.934744 53.8421 0.835191 53.8602 0.735022 53.8582Z" fill="#202020"/>
<path d="M30.185 53.8582C29.9861 53.8582 29.7953 53.7792 29.6547 53.6385C29.514 53.4979 29.435 53.3071 29.435 53.1082V48.1032C29.435 47.9043 29.514 47.7135 29.6547 47.5729C29.7953 47.4322 29.9861 47.3532 30.185 47.3532C30.3839 47.3532 30.5747 47.4322 30.7154 47.5729C30.856 47.7135 30.935 47.9043 30.935 48.1032V53.1032C30.9357 53.2021 30.9168 53.3002 30.8794 53.3918C30.842 53.4833 30.7868 53.5666 30.7171 53.6368C30.6474 53.7069 30.5645 53.7626 30.4732 53.8006C30.3819 53.8386 30.2839 53.8582 30.185 53.8582Z" fill="#202020"/>
<path d="M27.735 53.8582C27.5378 53.8543 27.3502 53.7728 27.2126 53.6315C27.075 53.4902 26.9987 53.3004 27 53.1032V48.1032C27 47.9043 27.079 47.7135 27.2197 47.5729C27.3603 47.4322 27.5511 47.3532 27.75 47.3532C27.9489 47.3532 28.1397 47.4322 28.2803 47.5729C28.421 47.7135 28.5 47.9043 28.5 48.1032V53.1032C28.5007 53.2034 28.4813 53.3027 28.443 53.3953C28.4047 53.4878 28.3482 53.5718 28.2769 53.6422C28.2056 53.7125 28.1209 53.7679 28.0278 53.805C27.9347 53.8421 27.8352 53.8602 27.735 53.8582Z" fill="#202020"/>
<path d="M8.10001 54.7532C7.9011 54.7532 7.71034 54.6742 7.56969 54.5335C7.42903 54.3929 7.35001 54.2021 7.35001 54.0032V47.2282C7.35001 47.0293 7.42903 46.8385 7.56969 46.6979C7.71034 46.5572 7.9011 46.4782 8.10001 46.4782C8.29893 46.4782 8.48969 46.5572 8.63034 46.6979C8.771 46.8385 8.85001 47.0293 8.85001 47.2282V54.0032C8.85001 54.2021 8.771 54.3929 8.63034 54.5335C8.48969 54.6742 8.29893 54.7532 8.10001 54.7532Z" fill="#202020"/>
<path d="M10.555 55.9432C10.3561 55.9432 10.1653 55.8642 10.0247 55.7235C9.88404 55.5829 9.80502 55.3921 9.80502 55.1932V46.0332C9.80502 45.8343 9.88404 45.6435 10.0247 45.5029C10.1653 45.3622 10.3561 45.2832 10.555 45.2832C10.7539 45.2832 10.9447 45.3622 11.0854 45.5029C11.226 45.6435 11.305 45.8343 11.305 46.0332V55.1932C11.305 55.3921 11.226 55.5829 11.0854 55.7235C10.9447 55.8642 10.7539 55.9432 10.555 55.9432Z" fill="#202020"/>
<path d="M13 57.8232C12.8015 57.8219 12.6115 57.7424 12.4711 57.6021C12.3308 57.4617 12.2513 57.2717 12.25 57.0732V44.1582C12.25 43.9593 12.329 43.7685 12.4697 43.6279C12.6103 43.4872 12.8011 43.4082 13 43.4082C13.1989 43.4082 13.3897 43.4872 13.5304 43.6279C13.671 43.7685 13.75 43.9593 13.75 44.1582V57.0732C13.75 57.2721 13.671 57.4629 13.5304 57.6035C13.3897 57.7442 13.1989 57.8232 13 57.8232Z" fill="#202020"/>
<path d="M25.28 54.7532C25.0811 54.7532 24.8903 54.6742 24.7497 54.5335C24.609 54.3929 24.53 54.2021 24.53 54.0032V47.2282C24.53 47.0293 24.609 46.8385 24.7497 46.6979C24.8903 46.5572 25.0811 46.4782 25.28 46.4782C25.4789 46.4782 25.6697 46.5572 25.8104 46.6979C25.951 46.8385 26.03 47.0293 26.03 47.2282V54.0032C26.03 54.2021 25.951 54.3929 25.8104 54.5335C25.6697 54.6742 25.4789 54.7532 25.28 54.7532Z" fill="#202020"/>
<path d="M22.825 54.7532C22.6261 54.7532 22.4353 54.6742 22.2947 54.5335C22.154 54.3929 22.075 54.2021 22.075 54.0032V47.2282C22.075 47.0293 22.154 46.8385 22.2947 46.6979C22.4353 46.5572 22.6261 46.4782 22.825 46.4782C23.0239 46.4782 23.2147 46.5572 23.3553 46.6979C23.496 46.8385 23.575 47.0293 23.575 47.2282V54.0032C23.575 54.2021 23.496 54.3929 23.3553 54.5335C23.2147 54.6742 23.0239 54.7532 22.825 54.7532Z" fill="#202020"/>
<path d="M20.37 55.9432C20.1711 55.9432 19.9804 55.8642 19.8397 55.7235C19.6991 55.5829 19.62 55.3921 19.62 55.1932V46.0332C19.62 45.8343 19.6991 45.6435 19.8397 45.5029C19.9804 45.3622 20.1711 45.2832 20.37 45.2832C20.5689 45.2832 20.7597 45.3622 20.9004 45.5029C21.041 45.6435 21.12 45.8343 21.12 46.0332V55.1932C21.12 55.3921 21.041 55.5829 20.9004 55.7235C20.7597 55.8642 20.5689 55.9432 20.37 55.9432Z" fill="#202020"/>
<path d="M17.915 57.8232C17.7161 57.8232 17.5253 57.7442 17.3847 57.6035C17.244 57.4629 17.165 57.2721 17.165 57.0732V44.1582C17.165 43.9593 17.244 43.7685 17.3847 43.6279C17.5253 43.4872 17.7161 43.4082 17.915 43.4082C18.1139 43.4082 18.3047 43.4872 18.4453 43.6279C18.586 43.7685 18.665 43.9593 18.665 44.1582V57.0732C18.665 57.2721 18.586 57.4629 18.4453 57.6035C18.3047 57.7442 18.1139 57.8232 17.915 57.8232Z" fill="#202020"/>
<path d="M15.46 60.2082C15.2611 60.2082 15.0703 60.1292 14.9297 59.9885C14.789 59.8479 14.71 59.6571 14.71 59.4582V41.7682C14.71 41.5693 14.789 41.3785 14.9297 41.2379C15.0703 41.0972 15.2611 41.0182 15.46 41.0182C15.6589 41.0182 15.8497 41.0972 15.9903 41.2379C16.131 41.3785 16.21 41.5693 16.21 41.7682V59.4582C16.21 59.6571 16.131 59.8479 15.9903 59.9885C15.8497 60.1292 15.6589 60.2082 15.46 60.2082Z" fill="#202020"/>
<path d="M165.39 48.2432C165.077 46.9132 164.322 45.7288 163.248 44.8837C162.175 44.0386 160.846 43.5828 159.48 43.5909C158.113 43.5991 156.79 44.0706 155.727 44.9284C154.663 45.7862 153.922 46.9795 153.625 48.3132C152.146 48.5114 150.792 49.2507 149.826 50.3884C148.86 51.5261 148.35 52.9813 148.394 54.4732C148.438 55.965 149.034 57.3876 150.065 58.4662C151.097 59.5447 152.492 60.2028 153.98 60.3132L154.09 59.1032C152.888 58.9891 151.772 58.4279 150.964 57.5304C150.155 56.633 149.713 55.4648 149.725 54.257C149.737 53.0493 150.202 51.8901 151.028 51.0088C151.854 50.1275 152.981 49.5884 154.185 49.4982L154.685 49.4632L154.755 48.9632C154.914 47.8108 155.484 46.7548 156.361 45.9904C157.238 45.2261 158.362 44.8049 159.525 44.8049C160.688 44.8049 161.812 45.2261 162.689 45.9904C163.566 46.7548 164.136 47.8108 164.295 48.9632L164.375 49.5532L164.97 49.4882C165.149 49.4662 165.329 49.4546 165.51 49.4532C166.79 49.4545 168.016 49.9641 168.92 50.8699C169.824 51.7757 170.331 53.0035 170.33 54.2832C170.329 55.5628 169.819 56.7896 168.913 57.6935C168.007 58.5974 166.78 59.1045 165.5 59.1032V60.3232C167.102 60.3086 168.632 59.6582 169.755 58.5152C170.877 57.3722 171.5 55.8301 171.485 54.2282C171.47 52.6263 170.82 51.0958 169.677 49.9734C168.534 48.851 166.992 48.2286 165.39 48.2432Z" fill="#202020"/>
<path d="M163.395 53.1282C163.397 53.0313 163.376 52.9353 163.333 52.8483C163.291 52.7613 163.228 52.6858 163.15 52.6282C163.073 52.5717 162.985 52.5337 162.891 52.5172C162.798 52.5007 162.701 52.5062 162.61 52.5332L156.205 54.4332C156.079 54.4701 155.968 54.5472 155.89 54.6528C155.811 54.7584 155.769 54.8866 155.77 55.0182V62.3482C155.553 62.2639 155.323 62.2199 155.09 62.2182C154.722 62.2156 154.362 62.3203 154.053 62.5193C153.744 62.7184 153.5 63.0032 153.35 63.339C153.201 63.6747 153.152 64.0468 153.211 64.4096C153.27 64.7725 153.433 65.1103 153.68 65.3819C153.928 65.6534 154.25 65.8469 154.606 65.9385C154.962 66.0301 155.336 66.016 155.685 65.8978C156.033 65.7796 156.339 65.5625 156.565 65.2731C156.792 64.9836 156.929 64.6344 156.96 64.2682H157V58.6832L162.19 57.1482V60.3882C161.978 60.3038 161.753 60.2598 161.525 60.2582C161.152 60.2582 160.788 60.3687 160.478 60.5759C160.168 60.783 159.926 61.0774 159.784 61.4218C159.641 61.7663 159.604 62.1453 159.676 62.5109C159.749 62.8766 159.929 63.2125 160.192 63.4761C160.456 63.7397 160.792 63.9192 161.157 63.992C161.523 64.0647 161.902 64.0274 162.246 63.8847C162.591 63.742 162.885 63.5004 163.092 63.1904C163.299 62.8805 163.41 62.516 163.41 62.1432V53.1432L163.395 53.1282ZM162.175 55.8732L157 57.4132V55.4832L162.19 53.9432L162.175 55.8732Z" fill="#202020"/>
<path d="M33.045 139.518C31.4628 139.518 29.9161 139.987 28.6005 140.866C27.2849 141.745 26.2595 142.995 25.654 144.457C25.0485 145.919 24.8901 147.527 25.1987 149.079C25.5074 150.631 26.2694 152.056 27.3882 153.175C28.507 154.294 29.9325 155.056 31.4843 155.364C33.0362 155.673 34.6447 155.515 36.1065 154.909C37.5683 154.304 38.8177 153.278 39.6968 151.963C40.5758 150.647 41.045 149.1 41.045 147.518C41.045 145.396 40.2022 143.362 38.7019 141.861C37.2016 140.361 35.1668 139.518 33.045 139.518ZM33.045 150.433C32.4715 150.433 31.9108 150.263 31.4339 149.944C30.957 149.626 30.5853 149.173 30.3658 148.643C30.1463 148.113 30.0889 147.53 30.2007 146.967C30.3126 146.405 30.5888 145.888 30.9944 145.483C31.4 145.077 31.9167 144.801 32.4793 144.689C33.0418 144.577 33.6249 144.634 34.1548 144.854C34.6847 145.073 35.1376 145.445 35.4563 145.922C35.7749 146.399 35.945 146.96 35.945 147.533C35.945 147.914 35.87 148.291 35.7243 148.643C35.5785 148.995 35.3649 149.315 35.0956 149.584C34.8263 149.853 34.5067 150.067 34.1548 150.212C33.803 150.358 33.4259 150.433 33.045 150.433Z" fill="#202020"/>
<path d="M33.045 126.898C32.067 126.898 31.1109 127.188 30.2977 127.732C29.4845 128.275 28.8507 129.047 28.4764 129.951C28.1022 130.854 28.0042 131.849 28.195 132.808C28.3858 133.767 28.8568 134.648 29.5484 135.34C30.2399 136.031 31.1211 136.502 32.0803 136.693C33.0395 136.884 34.0338 136.786 34.9374 136.412C35.841 136.037 36.6133 135.404 37.1566 134.59C37.7 133.777 37.99 132.821 37.99 131.843C37.9907 131.194 37.8632 130.55 37.6149 129.95C37.3667 129.35 37.0024 128.804 36.5431 128.345C36.0838 127.886 35.5384 127.522 34.9382 127.273C34.3379 127.025 33.6946 126.898 33.045 126.898ZM33.045 133.628C32.6906 133.629 32.3438 133.525 32.0487 133.329C31.7535 133.132 31.5233 132.853 31.3872 132.526C31.2511 132.198 31.2153 131.838 31.2842 131.49C31.3531 131.143 31.5237 130.823 31.7743 130.572C32.0249 130.322 32.3443 130.151 32.692 130.082C33.0397 130.013 33.4001 130.049 33.7273 130.185C34.0546 130.322 34.3341 130.552 34.5304 130.847C34.7267 131.142 34.831 131.489 34.83 131.843C34.83 132.078 34.7838 132.31 34.6941 132.526C34.6044 132.743 34.473 132.94 34.3072 133.105C34.1414 133.271 33.9447 133.403 33.7281 133.492C33.5115 133.582 33.2794 133.628 33.045 133.628Z" fill="#202020"/>
<path d="M41.37 158.128H24.72C24.1308 158.128 23.5656 157.894 23.1485 157.478C22.7314 157.062 22.4964 156.497 22.495 155.908V126.333C22.4964 125.744 22.7314 125.179 23.1485 124.763C23.5656 124.347 24.1308 124.113 24.72 124.113H41.37C41.9588 124.113 42.5235 124.347 42.9398 124.763C43.3561 125.18 43.59 125.744 43.59 126.333V155.908C43.59 156.2 43.5326 156.488 43.421 156.758C43.3095 157.027 43.1459 157.272 42.9398 157.478C42.7337 157.684 42.4889 157.848 42.2196 157.959C41.9502 158.071 41.6616 158.128 41.37 158.128ZM24.72 124.628C24.2634 124.628 23.8254 124.809 23.502 125.132C23.1787 125.454 22.9964 125.892 22.995 126.348V155.923C22.9964 156.38 23.1787 156.817 23.502 157.14C23.8254 157.462 24.2634 157.643 24.72 157.643H41.37C41.8258 157.642 42.2625 157.46 42.5848 157.138C42.9071 156.816 43.0887 156.379 43.09 155.923V126.333C43.0887 125.877 42.9071 125.441 42.5848 125.118C42.2625 124.796 41.8258 124.615 41.37 124.613L24.72 124.628Z" fill="#202020"/>
<path d="M77.165 39.4332C77.165 38.7382 78.115 37.9882 78.025 37.3182C77.935 36.6482 76.825 36.1482 76.65 35.4932C76.475 34.8382 77.195 33.8582 76.935 33.2282C76.675 32.5982 75.47 32.4182 75.13 31.8282C74.79 31.2382 75.23 30.1082 74.815 29.5632C74.4 29.0182 73.195 29.1632 72.71 28.6782C72.225 28.1932 72.365 26.9882 71.82 26.5732C71.275 26.1582 70.155 26.6032 69.56 26.2582C68.965 25.9132 68.795 24.7182 68.16 24.4532C67.525 24.1882 66.56 24.9182 65.895 24.7382C65.23 24.5582 64.76 23.4482 64.07 23.3582C63.38 23.2682 62.65 24.2232 61.955 24.2232C61.26 24.2232 60.51 23.2732 59.84 23.3582C59.17 23.4432 58.675 24.5632 58.02 24.7382C57.365 24.9132 56.38 24.1932 55.75 24.4532C55.12 24.7132 54.94 25.9182 54.35 26.2582C53.76 26.5982 52.63 26.1532 52.09 26.5732C51.55 26.9932 51.685 28.1932 51.2 28.6782C50.715 29.1632 49.515 29.0182 49.095 29.5632C48.675 30.1082 49.125 31.2332 48.785 31.8282C48.445 32.4232 47.24 32.5932 46.98 33.2282C46.72 33.8632 47.44 34.8282 47.26 35.4932C47.08 36.1582 45.975 36.6282 45.885 37.3132C45.795 37.9982 46.75 38.7382 46.75 39.4332C46.75 40.1282 45.795 40.8732 45.885 41.5482C45.975 42.2232 47.085 42.7132 47.26 43.3682C47.435 44.0232 46.715 45.0082 46.98 45.6332C47.245 46.2582 48.44 46.4432 48.785 47.0382C49.13 47.6332 48.68 48.7582 49.095 49.2982C49.51 49.8382 50.72 49.6982 51.2 50.1832C51.68 50.6682 51.545 51.8732 52.09 52.2882C52.635 52.7032 53.755 52.2582 54.35 52.6032C54.945 52.9482 55.115 54.1432 55.75 54.4082C56.385 54.6732 57.35 53.9482 58.02 54.1232C58.69 54.2982 59.155 55.4132 59.84 55.5032C60.525 55.5932 61.26 54.6382 61.955 54.6382C62.65 54.6382 63.4 55.5882 64.07 55.5032C64.74 55.4182 65.235 54.2982 65.895 54.1232C66.555 53.9482 67.53 54.6682 68.16 54.4082C68.79 54.1482 68.97 52.9432 69.56 52.6032C70.15 52.2632 71.28 52.7082 71.825 52.2882C72.37 51.8682 72.225 50.6682 72.71 50.1832C73.195 49.6982 74.395 49.8432 74.815 49.2982C75.235 48.7532 74.785 47.6282 75.13 47.0332C75.475 46.4382 76.67 46.2732 76.935 45.6332C77.2 44.9932 76.47 44.0382 76.65 43.3682C76.83 42.6982 77.935 42.2332 78.025 41.5482C78.115 40.8632 77.165 40.1282 77.165 39.4332Z" fill="#202020"/>
<path d="M59.93 55.7582H59.81C59.3568 55.6376 58.9604 55.3615 58.69 54.9782C58.4973 54.7204 58.2452 54.5128 57.955 54.3732C57.6273 54.3485 57.2983 54.4016 56.995 54.5282C56.5763 54.7242 56.1019 54.7667 55.655 54.6482C55.2547 54.4112 54.9476 54.0442 54.785 53.6082C54.7515 53.448 54.6847 53.2967 54.589 53.1639C54.4933 53.0312 54.3708 52.92 54.2294 52.8375C54.0881 52.755 53.931 52.7031 53.7683 52.6852C53.6056 52.6672 53.441 52.6836 53.285 52.7332C52.8279 52.8115 52.3577 52.7284 51.955 52.4982C51.6314 52.1665 51.4304 51.7345 51.385 51.2732C51.3952 51.1075 51.3701 50.9415 51.3115 50.7862C51.2528 50.6309 51.1619 50.4898 51.0448 50.3721C50.9276 50.2545 50.7868 50.163 50.6318 50.1038C50.4767 50.0445 50.3108 50.0187 50.145 50.0282C49.6836 49.9875 49.2506 49.7878 48.92 49.4632C48.6898 49.0606 48.6068 48.5904 48.685 48.1332C48.7322 47.8099 48.6979 47.4799 48.585 47.1732C48.3778 46.9245 48.1112 46.7319 47.81 46.6132C47.5794 46.5647 47.364 46.461 47.1823 46.3108C47.0007 46.1606 46.8582 45.9685 46.7672 45.7511C46.6762 45.5337 46.6394 45.2975 46.6599 45.0627C46.6804 44.8279 46.7577 44.6016 46.885 44.4032C46.9772 44.2655 47.039 44.1099 47.0664 43.9465C47.0939 43.7831 47.0863 43.6158 47.0443 43.4555C47.0022 43.2953 46.9266 43.1458 46.8224 43.017C46.7182 42.8882 46.5879 42.7829 46.44 42.7082C46.0587 42.4349 45.7819 42.0399 45.655 41.5882C45.6633 41.1293 45.8273 40.6868 46.12 40.3332C46.2459 40.2211 46.3467 40.0836 46.4157 39.9298C46.4847 39.776 46.5204 39.6093 46.5204 39.4407C46.5204 39.2721 46.4847 39.1055 46.4157 38.9516C46.3467 38.7978 46.2459 38.6603 46.12 38.5482C45.8255 38.1957 45.6613 37.7526 45.655 37.2932C45.7807 36.8424 46.0579 36.4486 46.44 36.1782C46.6967 35.9835 46.9026 35.7296 47.04 35.4382C47.0701 35.1119 47.0167 34.7833 46.885 34.4832C46.7578 34.2845 46.6807 34.0579 46.6602 33.8228C46.6397 33.5878 46.6765 33.3512 46.7674 33.1335C46.8584 32.9157 47.0007 32.7233 47.1823 32.5726C47.3639 32.4219 47.5793 32.3175 47.81 32.2682C47.9702 32.2347 48.1216 32.1679 48.2543 32.0722C48.3871 31.9765 48.4983 31.854 48.5808 31.7126C48.6632 31.5713 48.7151 31.4142 48.7331 31.2515C48.751 31.0888 48.7347 30.9242 48.685 30.7682C48.6138 30.5439 48.5979 30.3057 48.6387 30.0739C48.6794 29.8422 48.7756 29.6237 48.919 29.437C49.0624 29.2504 49.2487 29.1013 49.4622 29.0022C49.6757 28.9032 49.91 28.8572 50.145 28.8682C50.4682 28.8298 50.7772 28.7131 51.045 28.5282C51.2299 28.2604 51.3466 27.9514 51.385 27.6282C51.3728 27.3928 51.418 27.1579 51.5167 26.9438C51.6154 26.7297 51.7646 26.5428 51.9515 26.3992C52.1385 26.2555 52.3575 26.1595 52.5898 26.1192C52.8221 26.079 53.0607 26.0958 53.285 26.1682C53.6085 26.2104 53.9373 26.1762 54.245 26.0682C54.4923 25.8576 54.6845 25.5899 54.805 25.2882C54.8552 25.0587 54.9601 24.8446 55.1107 24.6642C55.2613 24.4839 55.4533 24.3425 55.6702 24.2522C55.8872 24.1619 56.1227 24.1253 56.3569 24.1455C56.591 24.1657 56.8168 24.2421 57.015 24.3682C57.153 24.4602 57.309 24.5217 57.4726 24.5488C57.6362 24.5759 57.8037 24.5679 57.964 24.5254C58.1243 24.4828 58.2737 24.4067 58.4023 24.302C58.5309 24.1973 58.6358 24.0665 58.71 23.9182C58.9824 23.5371 59.378 23.2616 59.83 23.1382C60.2887 23.1431 60.7318 23.3055 61.085 23.5982C61.3448 23.8019 61.6503 23.9392 61.975 23.9982C62.3002 23.9404 62.6059 23.803 62.865 23.5982C63.0241 23.4247 63.2228 23.2923 63.4441 23.2122C63.6654 23.132 63.9028 23.1066 64.1361 23.138C64.3694 23.1694 64.5916 23.2568 64.7838 23.3927C64.976 23.5285 65.1325 23.7088 65.24 23.9182C65.4342 24.1767 65.6881 24.3843 65.98 24.5232C66.3061 24.5475 66.6334 24.4944 66.935 24.3682C67.1333 24.2421 67.3591 24.1657 67.5932 24.1455C67.8273 24.1253 68.0629 24.1619 68.2798 24.2522C68.4968 24.3425 68.6887 24.4839 68.8394 24.6642C68.99 24.8446 69.0948 25.0587 69.145 25.2882C69.1786 25.4484 69.2454 25.5998 69.3411 25.7325C69.4368 25.8653 69.5593 25.9765 69.7007 26.059C69.842 26.1414 69.9991 26.1933 70.1618 26.2113C70.3245 26.2292 70.4891 26.2129 70.645 26.1632C71.1022 26.0903 71.5706 26.173 71.975 26.3982C72.2997 26.7313 72.5008 27.1652 72.545 27.6282C72.5842 27.9497 72.7009 28.2568 72.885 28.5232C73.1524 28.7099 73.4614 28.8283 73.785 28.8682C74.0201 28.8572 74.2544 28.9032 74.4679 29.0022C74.6813 29.1013 74.8677 29.2504 75.0111 29.437C75.1545 29.6237 75.2507 29.8422 75.2914 30.0739C75.3321 30.3057 75.3162 30.5439 75.245 30.7682C75.1954 30.9242 75.179 31.0888 75.197 31.2515C75.215 31.4142 75.2668 31.5713 75.3493 31.7126C75.4318 31.854 75.543 31.9765 75.6757 32.0722C75.8085 32.1679 75.9599 32.2347 76.12 32.2682C76.3508 32.3175 76.5662 32.4219 76.7478 32.5726C76.9294 32.7233 77.0717 32.9157 77.1626 33.1335C77.2536 33.3512 77.2904 33.5878 77.2699 33.8228C77.2494 34.0579 77.1723 34.2845 77.045 34.4832C76.916 34.7841 76.8628 35.112 76.89 35.4382C77.0292 35.7286 77.2347 35.9821 77.49 36.1782C77.6997 36.2846 77.8806 36.4403 78.017 36.6318C78.1534 36.8234 78.2413 37.0451 78.2732 37.2781C78.3052 37.5111 78.2802 37.7483 78.2004 37.9695C78.1206 38.1907 77.9884 38.3893 77.815 38.5482C77.6891 38.6603 77.5884 38.7978 77.5194 38.9516C77.4504 39.1055 77.4147 39.2721 77.4147 39.4407C77.4147 39.6093 77.4504 39.776 77.5194 39.9298C77.5884 40.0836 77.6891 40.2211 77.815 40.3332C78.1078 40.6864 78.2702 41.1295 78.275 41.5882C78.1482 42.0399 77.8713 42.4349 77.49 42.7082C77.234 42.9016 77.0282 43.1537 76.89 43.4432C76.8619 43.7711 76.9152 44.1009 77.045 44.4032C77.1724 44.6016 77.2496 44.8279 77.2702 45.0627C77.2907 45.2975 77.2539 45.5337 77.1629 45.7511C77.0719 45.9685 76.9294 46.1606 76.7478 46.3108C76.5661 46.461 76.3507 46.5647 76.12 46.6132C75.8188 46.7319 75.5523 46.9245 75.345 47.1732C75.2322 47.4799 75.1978 47.8099 75.245 48.1332C75.3165 48.3573 75.3325 48.5953 75.2918 48.8269C75.2511 49.0585 75.1549 49.2768 75.0113 49.4631C74.8678 49.6494 74.6813 49.7981 74.4677 49.8965C74.2541 49.995 74.0199 50.0402 73.785 50.0282C73.6197 50.0188 73.4543 50.0444 73.2996 50.1034C73.1449 50.1624 73.0044 50.2534 72.8873 50.3705C72.7702 50.4876 72.6792 50.6281 72.6202 50.7828C72.5612 50.9375 72.5356 51.1029 72.545 51.2682C72.5569 51.5037 72.5116 51.7386 72.4129 51.9527C72.3142 52.1669 72.1651 52.3539 71.9784 52.4979C71.7917 52.6419 71.5728 52.7385 71.3406 52.7795C71.1084 52.8205 70.8698 52.8046 70.645 52.7332C70.4891 52.6836 70.3245 52.6672 70.1618 52.6852C69.9991 52.7031 69.842 52.755 69.7007 52.8375C69.5593 52.92 69.4368 53.0312 69.3411 53.1639C69.2454 53.2967 69.1786 53.448 69.145 53.6082C69.0948 53.8378 68.99 54.0519 68.8394 54.2322C68.6887 54.4126 68.4968 54.554 68.2798 54.6443C68.0629 54.7346 67.8273 54.7712 67.5932 54.751C67.3591 54.7308 67.1333 54.6544 66.935 54.5282C66.6336 54.4013 66.3062 54.3482 65.98 54.3732C65.6881 54.5121 65.4342 54.7197 65.24 54.9782C65.1325 55.1876 64.976 55.368 64.7838 55.5038C64.5916 55.6397 64.3694 55.727 64.1361 55.7585C63.9028 55.7899 63.6654 55.7645 63.4441 55.6843C63.2228 55.6042 63.0241 55.4717 62.865 55.2982C62.6059 55.0935 62.3002 54.956 61.975 54.8982C61.6503 54.9572 61.3448 55.0945 61.085 55.2982C60.7499 55.5554 60.3502 55.7146 59.93 55.7582ZM57.785 53.8432C57.8863 53.8442 57.9871 53.8577 58.085 53.8832C58.4807 54.0345 58.8268 54.2924 59.085 54.6282C59.35 54.9182 59.625 55.2182 59.895 55.2532C60.2342 55.2172 60.5555 55.0835 60.82 54.8682C60.9723 54.7158 61.1532 54.595 61.3522 54.5125C61.5512 54.43 61.7646 54.3875 61.98 54.3875C62.1955 54.3875 62.4088 54.43 62.6079 54.5125C62.8069 54.595 62.9877 54.7158 63.14 54.8682C63.4046 55.0835 63.7259 55.2172 64.065 55.2532C64.335 55.2182 64.61 54.9182 64.88 54.6282C65.1292 54.2938 65.4669 54.0357 65.855 53.8832C66.2736 53.8215 66.7011 53.8768 67.09 54.0432C67.4028 54.1857 67.7507 54.2327 68.09 54.1782C68.34 54.0732 68.525 53.7132 68.71 53.3682C68.765 53.1611 68.8606 52.9668 68.9912 52.7969C69.1218 52.6269 69.2849 52.4845 69.4709 52.378C69.6569 52.2715 69.8623 52.203 70.075 52.1764C70.2877 52.1499 70.5035 52.1658 70.71 52.2232C71.0489 52.2787 71.3966 52.2335 71.71 52.0932C71.9301 51.8258 72.0643 51.4982 72.095 51.1532C72.1456 50.7353 72.3099 50.3392 72.57 50.0082C72.9004 49.747 73.2968 49.5825 73.715 49.5332C73.8922 49.5609 74.0736 49.5404 74.2402 49.4739C74.4068 49.4074 74.5524 49.2973 74.6618 49.1552C74.7712 49.0131 74.8404 48.8441 74.8621 48.6661C74.8837 48.4881 74.8571 48.3075 74.785 48.1432C74.7277 47.7242 74.7847 47.2975 74.95 46.9082C75.2081 46.5711 75.5541 46.3116 75.95 46.1582C76.3 45.9782 76.66 45.7882 76.76 45.5382C76.8192 45.199 76.7721 44.8497 76.625 44.5382C76.4611 44.1486 76.4058 43.7218 76.465 43.3032C76.6184 42.9073 76.8779 42.5613 77.215 42.3032C77.505 42.0382 77.805 41.7582 77.84 41.4882C77.8034 41.1499 77.6677 40.8299 77.45 40.5682C77.1887 40.2322 77.0244 39.831 76.975 39.4082C77.0227 38.985 77.1871 38.5833 77.45 38.2482C77.6678 37.9848 77.8034 37.6631 77.84 37.3232C77.805 37.0532 77.505 36.7782 77.215 36.5082C76.8768 36.2513 76.617 35.9049 76.465 35.5082C76.4058 35.0897 76.4611 34.6629 76.625 34.2732C76.7724 33.9619 76.8196 33.6125 76.76 33.2732C76.66 33.0232 76.3 32.8332 75.95 32.6532C75.5531 32.5017 75.2066 32.2419 74.95 31.9032C74.7851 31.5156 74.7281 31.0906 74.785 30.6732C74.8584 30.5088 74.886 30.3276 74.8649 30.1488C74.8438 29.97 74.7748 29.8001 74.6652 29.6573C74.5557 29.5144 74.4095 29.4038 74.2423 29.337C74.075 29.2703 73.8929 29.25 73.715 29.2782C73.2968 29.2289 72.9004 29.0645 72.57 28.8032C72.3099 28.4722 72.1456 28.0762 72.095 27.6582C72.0643 27.3133 71.9301 26.9857 71.71 26.7182C71.3966 26.578 71.0489 26.5328 70.71 26.5882C70.2927 26.651 69.8661 26.5938 69.48 26.4232C69.1456 26.1729 68.8862 25.8357 68.73 25.4482C68.545 25.0982 68.36 24.7382 68.11 24.6332C67.7707 24.5788 67.4228 24.6257 67.11 24.7682C66.7211 24.9346 66.2936 24.99 65.875 24.9282C65.4869 24.7757 65.1492 24.5177 64.9 24.1832C64.63 23.8932 64.355 23.5932 64.085 23.5582C63.7443 23.5915 63.4218 23.7275 63.16 23.9482C62.8505 24.2524 62.434 24.4228 62 24.4228C61.5661 24.4228 61.1495 24.2524 60.84 23.9482C60.577 23.7297 60.2551 23.594 59.915 23.5582C59.645 23.5932 59.37 23.8932 59.105 24.1832C58.8879 24.5535 58.5332 24.8229 58.1182 24.9325C57.7032 25.0421 57.2617 24.983 56.89 24.7682C56.5773 24.6257 56.2294 24.5788 55.89 24.6332C55.64 24.7382 55.455 25.0982 55.27 25.4482C55.1152 25.8365 54.8556 26.174 54.52 26.4232C54.134 26.5938 53.7074 26.651 53.29 26.5882C53.1254 26.5158 52.9442 26.4891 52.7657 26.5109C52.5871 26.5328 52.4177 26.6024 52.2754 26.7125C52.1331 26.8225 52.0231 26.9689 51.9571 27.1363C51.891 27.3036 51.8713 27.4856 51.9 27.6632C51.8411 28.0819 51.6681 28.4763 51.4 28.8032C51.0697 29.0645 50.6733 29.2289 50.255 29.2782C49.9101 29.3128 49.5831 29.4485 49.315 29.6682C49.1725 29.981 49.1272 30.3294 49.185 30.6682C49.242 31.0856 49.185 31.5106 49.02 31.8982C48.7635 32.2369 48.417 32.4967 48.02 32.6482C47.67 32.8282 47.31 33.0182 47.21 33.2682C47.1531 33.6076 47.2002 33.9562 47.345 34.2682C47.5583 34.6394 47.6164 35.0797 47.5069 35.4935C47.3973 35.9073 47.129 36.2612 46.76 36.4782C46.47 36.7482 46.17 37.0232 46.135 37.2932C46.1696 37.6327 46.3035 37.9545 46.52 38.2182C46.7917 38.5507 46.9649 38.9525 47.02 39.3782C46.9629 39.8034 46.7899 40.2047 46.52 40.5382C46.3029 40.7997 46.1688 41.1201 46.135 41.4582C46.17 41.7282 46.47 42.0082 46.76 42.2732C47.0944 42.5329 47.3519 42.8785 47.505 43.2732C47.5668 43.6918 47.5114 44.1193 47.345 44.5082C47.2028 44.8211 47.1559 45.1689 47.21 45.5082C47.31 45.7582 47.67 45.9482 48.02 46.1282C48.4173 46.2816 48.7637 46.5431 49.02 46.8832C49.1857 47.2706 49.2427 47.6959 49.185 48.1132C49.1129 48.2775 49.0863 48.4581 49.108 48.6361C49.1297 48.8141 49.1989 48.9831 49.3083 49.1252C49.4177 49.2673 49.5633 49.3774 49.7299 49.4439C49.8964 49.5104 50.0778 49.5309 50.255 49.5032C50.6733 49.5525 51.0697 49.717 51.4 49.9782C51.6692 50.3065 51.8422 50.7027 51.9 51.1232C51.8723 51.3004 51.8928 51.4818 51.9593 51.6484C52.0259 51.815 52.1359 51.9606 52.2781 52.07C52.4202 52.1794 52.5891 52.2486 52.7672 52.2703C52.9452 52.2919 53.1258 52.2653 53.29 52.1932C53.7071 52.08 54.152 52.137 54.5271 52.3517C54.9021 52.5664 55.1766 52.9212 55.29 53.3382C55.47 53.6832 55.66 54.0432 55.905 54.1482C56.2444 54.2027 56.5923 54.1557 56.905 54.0132C57.189 53.916 57.4852 53.8587 57.785 53.8432Z" fill="#202020"/>
<path d="M53.595 44.3132C53.498 44.314 53.4028 44.2865 53.3212 44.2341C53.2395 44.1818 53.1748 44.1067 53.135 44.0182C52.7614 43.1712 52.4944 42.2811 52.34 41.3682C51.34 35.7282 54.785 30.4082 59.965 29.5132C65.145 28.6182 70.15 32.5132 71.125 38.1282C71.18 38.4582 71.225 38.7832 71.25 39.1282C71.2556 39.1939 71.2482 39.26 71.2282 39.3228C71.2083 39.3856 71.1761 39.4439 71.1336 39.4942C71.0912 39.5446 71.0392 39.5861 70.9806 39.6164C70.9221 39.6467 70.8582 39.6652 70.7925 39.6707C70.7269 39.6763 70.6608 39.6689 70.598 39.6489C70.5352 39.629 70.4769 39.5968 70.4265 39.5543C70.3762 39.5119 70.3346 39.4599 70.3044 39.4013C70.2741 39.3428 70.2556 39.2789 70.25 39.2132C70.25 38.9182 70.185 38.6182 70.135 38.3182C69.255 33.2182 64.77 29.7232 60.135 30.5182C55.5 31.3132 52.445 36.1182 53.325 41.2182C53.4684 42.0399 53.7119 42.8408 54.05 43.6032C54.0767 43.6633 54.0912 43.7281 54.0928 43.7937C54.0944 43.8594 54.083 43.9248 54.0593 43.9861C54.0357 44.0474 54.0001 44.1034 53.9548 44.151C53.9094 44.1985 53.8551 44.2367 53.795 44.2632C53.7326 44.2936 53.6644 44.3106 53.595 44.3132Z" fill="white"/>
<path d="M53.595 44.5632C53.4493 44.5635 53.3067 44.5217 53.1843 44.4427C53.0618 44.3638 52.9648 44.2511 52.905 44.1182C52.5254 43.2527 52.2518 42.3444 52.09 41.4132C51.5985 38.6825 52.1499 35.8668 53.635 33.5232C54.3214 32.4083 55.2372 31.4523 56.3216 30.7187C57.406 29.9851 58.6342 29.4907 59.9244 29.2684C61.2147 29.0461 62.5374 29.101 63.8048 29.4294C65.0722 29.7579 66.2551 30.3523 67.275 31.1732C69.4624 32.8865 70.9244 35.3607 71.37 38.1032C71.43 38.4332 71.47 38.7732 71.5 39.1032C71.5083 39.2014 71.4971 39.3002 71.4671 39.394C71.4371 39.4879 71.389 39.5749 71.3253 39.6501C71.2617 39.7253 71.1839 39.7873 71.0964 39.8324C71.0088 39.8776 70.9132 39.905 70.815 39.9132C70.7166 39.9228 70.6173 39.9126 70.5229 39.8831C70.4285 39.8537 70.3409 39.8056 70.2654 39.7417C70.1899 39.6779 70.128 39.5996 70.0832 39.5113C70.0385 39.4231 70.0119 39.3269 70.005 39.2282C70.005 38.9432 69.945 38.6482 69.895 38.3582C69.04 33.3932 64.68 29.9882 60.18 30.7632C55.68 31.5382 52.715 36.2082 53.57 41.1732C53.7089 41.9844 53.9474 42.7754 54.28 43.5282C54.3215 43.619 54.3444 43.7171 54.3474 43.8169C54.3504 43.9166 54.3335 44.016 54.2977 44.1091C54.2618 44.2023 54.2077 44.2873 54.1386 44.3593C54.0695 44.4312 53.9866 44.4887 53.895 44.5282C53.7988 44.5619 53.6964 44.5739 53.595 44.5632ZM61.47 29.6332C60.9808 29.6351 60.4925 29.6769 60.01 29.7582C58.7897 29.9767 57.629 30.4493 56.6031 31.1452C55.5772 31.8412 54.7091 32.7451 54.055 33.7982C52.636 36.0342 52.1112 38.7227 52.585 41.3282C52.7381 42.2202 53.0001 43.09 53.365 43.9182C53.3933 43.9776 53.4434 44.0237 53.5049 44.047C53.5664 44.0703 53.6345 44.069 53.695 44.0432C53.7553 44.0159 53.8023 43.9659 53.8257 43.904C53.8491 43.8422 53.8471 43.7736 53.82 43.7132C53.4728 42.923 53.2227 42.0936 53.075 41.2432C52.175 36.0082 55.32 31.0782 60.075 30.2432C64.83 29.4082 69.465 33.0132 70.365 38.2432C70.42 38.5482 70.46 38.8582 70.485 39.1582C70.4875 39.1909 70.4966 39.2227 70.5116 39.2519C70.5266 39.281 70.5473 39.3068 70.5725 39.3278C70.5977 39.3488 70.6268 39.3645 70.6581 39.374C70.6895 39.3835 70.7225 39.3867 70.755 39.3832C70.8205 39.3779 70.8815 39.3474 70.925 39.2982C70.9465 39.2729 70.9625 39.2433 70.972 39.2115C70.9814 39.1796 70.9842 39.1462 70.98 39.1132C70.955 38.7982 70.915 38.4782 70.86 38.1582C70.4323 35.5437 69.0365 33.1859 66.95 31.5532C65.387 30.323 63.4591 29.6476 61.47 29.6332Z" fill="#202020"/>
<path d="M87.12 116.278C87.12 116.278 107.435 111.278 113.765 105.278C113.765 105.278 111.935 114.778 115.265 119.778C118.595 124.778 131.905 138.008 134.235 140.673C136.565 143.338 140.935 149.613 142.265 149.443C143.595 149.273 147.265 143.278 148.435 141.613C149.605 139.948 151.63 138.888 151.96 136.053C152.29 133.218 150.63 133.053 149.96 133.888C149.29 134.723 145.855 137.328 143.685 137.993C141.515 138.658 139.185 139.438 139.185 139.438C135.688 134.53 132.594 129.347 129.935 123.938C125.935 115.603 121.775 99.9382 120.435 96.7782C119.095 93.6182 117.1 92.6132 114.6 92.6132C112.1 92.6132 104.1 92.6132 90.1 98.7782C76.1 104.943 76.6 110.943 77.935 113.113C79.27 115.283 82.6 117.138 87.12 116.278Z" fill="#202020"/>
<path d="M142.22 149.723C141.18 149.723 139.22 147.353 136.4 143.768C135.53 142.663 134.705 141.618 134.05 140.863C133.395 140.108 131.855 138.513 129.905 136.488C124.95 131.333 117.46 123.543 115.06 119.943C112.2 115.653 113.06 108.283 113.4 105.943C106.59 111.698 87.99 116.303 87.18 116.503C82.58 117.373 79.12 115.503 77.735 113.243C77.3642 112.593 77.1383 111.87 77.0727 111.125C77.0071 110.379 77.1034 109.628 77.355 108.923C78.145 106.388 80.985 102.528 90.015 98.5482C104.065 92.3632 112.015 92.3632 114.615 92.3632C117.51 92.3632 119.44 93.7332 120.68 96.6832C121.125 97.7432 121.885 100.183 122.845 103.273C124.81 109.608 127.505 118.273 130.165 123.828C132.795 129.166 135.845 134.287 139.285 139.143C139.87 138.953 141.82 138.308 143.625 137.753C145.755 137.103 149.16 134.508 149.78 133.753C149.952 133.524 150.194 133.358 150.469 133.278C150.744 133.199 151.037 133.211 151.305 133.313C151.66 133.458 152.47 134.033 152.225 136.103C151.98 138.173 150.89 139.313 149.835 140.413C149.406 140.835 149.012 141.289 148.655 141.773C148.43 142.093 148.12 142.563 147.75 143.123C145.515 146.518 143.415 149.573 142.315 149.713L142.22 149.723ZM113.765 105.053C113.807 105.053 113.848 105.063 113.885 105.083C113.931 105.108 113.969 105.148 113.992 105.195C114.016 105.242 114.024 105.296 114.015 105.348C114.015 105.443 112.235 114.808 115.475 119.663C117.85 123.228 125.32 130.998 130.265 136.163C132.215 138.193 133.765 139.793 134.425 140.558C135.085 141.323 135.925 142.368 136.795 143.478C138.635 145.813 141.435 149.343 142.235 149.243C143.2 149.123 145.98 144.903 147.32 142.873C147.69 142.308 148.005 141.833 148.23 141.513C148.603 141.008 149.014 140.531 149.46 140.088C150.46 139.048 151.49 137.973 151.715 136.088C151.855 134.883 151.625 134.033 151.095 133.813C150.928 133.755 150.747 133.752 150.577 133.804C150.408 133.856 150.26 133.961 150.155 134.103C149.495 134.933 146.01 137.603 143.76 138.293C141.62 138.953 139.26 139.728 139.26 139.738C139.208 139.746 139.155 139.737 139.108 139.713C139.062 139.689 139.024 139.65 139 139.603C135.495 134.68 132.393 129.481 129.725 124.058C127.045 118.478 124.345 109.783 122.375 103.438C121.42 100.363 120.665 97.9382 120.23 96.8882C119.06 94.1132 117.33 92.8882 114.625 92.8882C112.04 92.8882 104.18 92.8882 90.225 99.0332C81.37 102.933 78.605 106.658 77.845 109.098C77.6151 109.734 77.5251 110.412 77.5812 111.086C77.6373 111.76 77.8381 112.414 78.17 113.003C79.465 115.108 82.725 116.863 87.09 116.038C87.55 115.923 107.45 110.968 113.62 105.123C113.66 105.085 113.71 105.06 113.765 105.053Z" fill="#202020"/>
<path d="M151.96 136.103C152.295 133.273 150.63 133.103 149.96 133.938C149.29 134.773 145.855 137.378 143.685 138.043C141.515 138.708 139.185 139.488 139.185 139.488C136.312 135.455 133.706 131.237 131.385 126.863C130.027 129.026 128.052 130.733 125.715 131.763C129.54 135.793 133.135 139.458 134.245 140.723C136.58 143.393 140.945 149.663 142.275 149.493C143.605 149.323 147.275 143.328 148.445 141.663C149.615 139.998 151.63 138.913 151.96 136.103Z" fill="#D9D9D9"/>
<path d="M142.22 149.723C141.18 149.723 139.22 147.353 136.4 143.768C135.53 142.663 134.705 141.618 134.05 140.863C133.395 140.108 131.85 138.508 129.9 136.478C128.575 135.108 127.07 133.538 125.525 131.913C125.497 131.884 125.476 131.849 125.464 131.81C125.452 131.771 125.45 131.73 125.458 131.69C125.466 131.65 125.484 131.612 125.509 131.581C125.535 131.549 125.568 131.524 125.605 131.508C127.896 130.497 129.833 128.824 131.165 126.703C131.191 126.668 131.224 126.638 131.264 126.618C131.303 126.598 131.346 126.588 131.39 126.588C131.434 126.591 131.476 126.605 131.512 126.629C131.549 126.653 131.579 126.685 131.6 126.723C133.889 131.031 136.451 135.187 139.27 139.168C139.855 138.978 141.805 138.333 143.61 137.778C145.74 137.128 149.145 134.533 149.765 133.778C149.937 133.549 150.179 133.383 150.454 133.303C150.729 133.224 151.023 133.236 151.29 133.338C151.645 133.483 152.455 134.058 152.21 136.128C151.965 138.198 150.875 139.338 149.82 140.438C149.391 140.86 148.997 141.314 148.64 141.798C148.415 142.118 148.105 142.588 147.735 143.148C145.5 146.543 143.4 149.598 142.3 149.738L142.22 149.723ZM126.13 131.823C127.59 133.358 129.005 134.823 130.26 136.133C132.215 138.168 133.76 139.773 134.425 140.538C135.09 141.303 135.925 142.348 136.795 143.458C138.635 145.793 141.435 149.323 142.235 149.223C143.2 149.103 145.98 144.883 147.32 142.853C147.69 142.288 148.005 141.813 148.23 141.493C148.603 140.988 149.014 140.511 149.46 140.068C150.46 139.028 151.49 137.953 151.715 136.068C151.855 134.863 151.625 134.013 151.095 133.793C150.928 133.735 150.747 133.732 150.577 133.784C150.408 133.836 150.26 133.941 150.155 134.083C149.495 134.913 146.01 137.583 143.76 138.273C141.62 138.933 139.26 139.708 139.26 139.718C139.21 139.728 139.159 139.722 139.112 139.701C139.066 139.681 139.027 139.647 139 139.603C136.203 135.673 133.658 131.57 131.38 127.318C130.066 129.264 128.253 130.82 126.13 131.823Z" fill="#202020"/>
<path d="M61.61 52.5682C61.61 52.5682 63.805 57.0682 64.05 58.5682C64.295 60.0682 62.585 60.8882 60.875 61.2532C59.165 61.6182 56.5 60.6032 53.8 63.6732C51.1 66.7432 44.5 80.0282 43.545 82.1032C42.59 84.1782 43.545 85.8882 46.23 85.3982C48.915 84.9082 56.115 75.3982 56.115 75.3982C56.115 75.3982 65.025 86.2582 66.115 88.5782C67.205 90.8982 66.85 94.8032 66.615 98.8332C66.38 102.863 65.76 108.718 69.42 113.478C73.08 118.238 80.775 119.583 87.12 116.283C93.465 112.983 100.32 101.613 97.265 96.9732C94.21 92.3332 87.365 90.0432 85.29 85.6482C83.215 81.2532 83.935 78.8232 83.935 74.3082C83.8439 70.8441 83.5098 67.3906 82.935 63.9732C82.935 63.9732 93.435 61.4732 105.6 59.8082C109.835 59.2282 107.185 54.4382 104.745 53.4632C101.685 52.2382 88.13 53.6532 84.435 53.3082C79.1 52.8082 76.38 53.9132 75.16 54.7682C73.94 55.6232 72.35 56.8432 71.01 56.7232C69.67 56.6032 68.2 50.0082 68.2 50.0082C68.2 50.0082 64.66 52.9332 61.61 52.5682Z" fill="#FFDA8A"/>
<path d="M79.74 118.328C75.55 118.328 71.58 116.688 69.24 113.623C65.74 109.058 66.08 103.533 66.335 99.5032L66.445 97.7632C66.675 94.1532 66.89 90.7632 65.915 88.6782C64.94 86.5932 57.465 77.4182 56.14 75.7932C54.95 77.3432 48.82 85.1882 46.29 85.6482C44.955 85.8882 43.91 85.6232 43.355 84.8982C42.8 84.1732 42.8 83.1282 43.355 81.9982C44.21 80.1782 50.905 66.6232 53.645 63.4982C55.725 61.1332 57.79 61.1032 59.445 61.0782C59.9188 61.089 60.3925 61.0555 60.86 60.9782C61.625 60.8132 64.1 60.1582 63.86 58.5782C63.625 57.1682 61.46 52.7082 61.44 52.6632C61.4181 52.6252 61.4065 52.5821 61.4065 52.5382C61.4065 52.4943 61.4181 52.4512 61.44 52.4132C61.4664 52.3765 61.502 52.3474 61.5433 52.3289C61.5846 52.3105 61.6301 52.3033 61.675 52.3082C64.585 52.6532 68.04 49.8082 68.075 49.8082C68.1081 49.7812 68.1476 49.7633 68.1897 49.7563C68.2318 49.7493 68.275 49.7534 68.315 49.7682C68.3561 49.7807 68.3931 49.804 68.4221 49.8357C68.4512 49.8673 68.4712 49.9062 68.48 49.9482C69.18 53.1032 70.34 56.4032 71.065 56.4482C72.2 56.5482 73.605 55.5582 74.735 54.7632L75.05 54.5382C76.175 53.7532 78.895 52.5382 84.49 53.0382C85.875 53.1682 88.76 53.0382 91.81 52.9132C97.02 52.6832 102.925 52.4132 104.875 53.2082C106.515 53.8632 108.325 56.2082 108.1 58.0282C108.005 58.8082 107.505 59.7832 105.67 60.0282C94.63 61.5282 84.85 63.7632 83.255 64.1332C83.8119 67.4884 84.1344 70.8783 84.22 74.2782C84.22 75.2782 84.185 76.1432 84.15 76.9882C84.035 79.9882 83.955 82.1332 85.55 85.5132C86.605 87.7482 88.935 89.4282 91.4 91.2082C93.675 92.8532 96.025 94.5532 97.51 96.8082C98.4 98.1582 98.54 100.138 97.915 102.533C96.515 107.898 91.74 114.158 87.27 116.478C84.9454 117.692 82.3623 118.326 79.74 118.328ZM56.115 75.1432C56.1523 75.1421 56.1893 75.1496 56.2232 75.1652C56.257 75.1808 56.2868 75.2041 56.31 75.2332C56.675 75.6782 65.25 86.1482 66.35 88.4682C67.38 90.6432 67.16 94.1182 66.93 97.7932L66.82 99.5332C66.565 103.488 66.22 108.903 69.62 113.323C73.245 118.038 80.885 119.238 87.005 116.058C91.29 113.833 96.05 107.593 97.395 102.433C97.985 100.178 97.865 98.3382 97.06 97.1082C95.625 94.9282 93.31 93.2582 91.06 91.6382C88.56 89.8182 86.165 88.1032 85.06 85.7482C83.41 82.2482 83.5 79.9332 83.615 76.9932C83.645 76.1532 83.68 75.2832 83.68 74.3032C83.5875 70.8541 83.2533 67.4157 82.68 64.0132C82.6695 63.9505 82.6832 63.886 82.7186 63.8331C82.7539 63.7801 82.808 63.7426 82.87 63.7282C82.975 63.7032 93.52 61.2032 105.56 59.5532C106.785 59.3882 107.455 58.8582 107.56 57.9832C107.755 56.4032 106.09 54.2682 104.645 53.6882C102.795 52.9482 96.69 53.2132 91.785 53.4282C88.585 53.5632 85.82 53.6832 84.4 53.5532C78.96 53.0532 76.36 54.2182 75.29 54.9682L74.98 55.1882C73.785 56.0332 72.3 57.0882 70.98 56.9632C69.66 56.8382 68.43 52.1182 68.04 50.4632C67.145 51.1382 64.54 52.9632 62.015 52.8682C62.56 54.0032 64.085 57.2832 64.29 58.5282C64.52 59.8832 63.26 60.9982 60.925 61.4982C60.4296 61.5821 59.9274 61.6189 59.425 61.6082C57.865 61.6332 55.925 61.6582 53.99 63.8582C51.285 66.9332 44.63 80.4182 43.775 82.2332C43.325 83.1882 43.315 84.0532 43.74 84.6132C44.165 85.1732 45.05 85.3832 46.19 85.1732C48.24 84.8032 53.45 78.5282 55.92 75.2582C55.9436 75.229 55.9732 75.2054 56.0069 75.189C56.0406 75.1725 56.0775 75.1637 56.115 75.1632V75.1432Z" fill="#202020"/>
<path d="M90.18 53.2432L89.18 53.2832C89.0442 56.3976 89.8024 59.4858 91.365 62.1832L92.415 61.9832C90.8222 59.355 90.0444 56.3135 90.18 53.2432Z" fill="#202020"/>
<path d="M84.525 83.7432C84.415 83.4182 84.32 83.0982 84.24 82.7882C76.675 84.4682 70.275 89.3682 66.86 92.4332C66.86 92.8632 66.86 93.3132 66.86 93.7732C70 90.8632 76.625 85.4732 84.525 83.7432Z" fill="#202020"/>
<path d="M65.195 87.0682C65.415 87.3932 65.61 87.6832 65.765 87.9382C68.02 85.7132 73.765 80.9382 83.83 78.0532C83.83 77.7082 83.855 77.3482 83.87 76.9832C73.5 79.8732 67.645 84.6582 65.195 87.0682Z" fill="#202020"/>
<path d="M57.76 70.4032C59.555 70.2082 68.115 68.9032 80.555 60.9032C81.1399 62.0556 81.7893 63.174 82.5 64.2532C82.5465 64.3202 82.6085 64.3747 82.6809 64.4122C82.7532 64.4497 82.8336 64.4689 82.915 64.4682H82.995L82.915 63.9682L83.415 63.8582C83.4009 63.7974 83.3754 63.7397 83.34 63.6882C83.3 63.6282 79.51 58.0332 79.13 53.3682C78.775 53.4232 78.445 53.4832 78.13 53.5532C78.2232 54.4885 78.4057 55.4127 78.675 56.3132C72.4439 60.8959 65.1509 63.8206 57.48 64.8132C57.2765 63.7505 56.9838 62.7068 56.605 61.6932C56.2844 61.8043 55.9733 61.9414 55.675 62.1032C55.9944 62.9795 56.2468 63.8788 56.43 64.7932C55.84 64.1109 55.1466 63.5255 54.375 63.0582C54.166 63.2457 53.969 63.4461 53.785 63.6582L53.665 63.7982C55.055 64.6282 56.4 65.8732 56.79 67.6882C56.8332 68.6691 56.8031 69.6518 56.7 70.6282C55.6959 68.6486 53.9597 67.1384 51.86 66.4182C51.69 66.6932 51.515 66.9832 51.335 67.2832C52.5464 67.64 53.6441 68.3055 54.5207 69.2145C55.3972 70.1235 56.0225 71.2447 56.335 72.4682C56.3425 72.5075 56.3578 72.5449 56.38 72.5782C56.265 73.1182 56.12 73.6632 55.95 74.2232C54.4668 72.1115 52.258 70.62 49.745 70.0332L49.245 70.9382C50.5566 71.1921 51.7982 71.7254 52.8853 72.5019C53.9724 73.2784 54.8795 74.2799 55.545 75.4382C55.4 75.8482 55.265 76.2432 55.13 76.6332C55.725 75.8782 56.09 75.3982 56.09 75.3982L56.46 75.8482L56.56 75.5682C57.1823 73.9059 57.5857 72.1697 57.76 70.4032ZM79 57.3132C79.3201 58.2201 79.6873 59.1096 80.1 59.9782C68.27 67.6282 59.84 69.1232 57.815 69.3832C57.815 68.9082 57.815 68.4482 57.815 68.0032C57.8278 67.9389 57.8278 67.8726 57.815 67.8082V67.7282C57.785 67.0532 57.725 66.4182 57.64 65.8182C65.3565 64.8034 72.698 61.8802 79 57.3132Z" fill="#202020"/>
<path d="M87.11 88.1282C86.8467 87.8582 86.5967 87.5832 86.36 87.3032C77.66 89.8032 70.79 94.7282 66.645 98.3482L66.615 98.8482C66.595 99.1482 66.575 99.4582 66.555 99.7782C70.58 96.1032 77.8 90.6532 87.11 88.1282Z" fill="#202020"/>
<path d="M83.915 73.2482C83.915 72.9182 83.915 72.5882 83.875 72.2482C71.045 72.9282 64.715 79.4982 62.215 83.0432L62.85 83.8682C65.075 80.6032 71.125 73.9332 83.915 73.2482Z" fill="#202020"/>
<path d="M96.85 52.9832L95.815 53.0182C95.4188 55.7754 95.7355 58.5882 96.735 61.1882L97.735 61.0132C96.7405 58.4606 96.4353 55.6912 96.85 52.9832Z" fill="#202020"/>
<path d="M83.125 53.2133C83.6029 56.7098 84.6929 60.0948 86.345 63.2133L87.375 62.9933C85.7379 59.9738 84.6493 56.6879 84.16 53.2883C83.805 53.2533 83.46 53.2283 83.125 53.2133Z" fill="#202020"/>
<path d="M83.5 67.8032C83.455 67.4582 83.415 67.1232 83.375 66.8032C68.84 68.5532 61.55 74.7182 58.475 78.2732C58.69 78.5382 58.905 78.8132 59.135 79.0932C62 75.7382 69.18 69.5482 83.5 67.8032Z" fill="#202020"/>
<path d="M87.12 116.278C92.37 113.553 97.965 105.278 98.01 99.8982C98.0045 98.9541 97.7417 98.0293 97.25 97.2232C96.84 96.5882 96.385 95.9382 95.905 95.2782C94.24 93.5182 92.075 92.0782 90.095 90.6182C79.065 94.7732 70.23 103.118 66.62 106.383C66.9043 108.954 67.8711 111.402 69.42 113.473C73.085 118.233 80.775 119.603 87.12 116.278Z" fill="#202020"/>
<path d="M79.74 118.328C75.55 118.328 71.58 116.688 69.24 113.623C67.6569 111.523 66.6705 109.033 66.385 106.418C66.3795 106.377 66.3845 106.336 66.3993 106.297C66.4142 106.259 66.4385 106.225 66.47 106.198L67.145 105.588C71.185 101.928 79.585 94.3182 90.025 90.3882C90.0634 90.372 90.1053 90.3662 90.1466 90.3715C90.1879 90.3767 90.227 90.3929 90.26 90.4182C90.625 90.6882 90.995 90.9532 91.37 91.2232C93.0618 92.3716 94.6466 93.6702 96.105 95.1032C96.655 95.8632 97.105 96.5032 97.475 97.1032C97.9918 97.9481 98.2684 98.9179 98.275 99.9082C98.23 105.333 92.665 113.713 87.275 116.523C84.945 117.722 82.3603 118.341 79.74 118.328ZM66.885 106.478C67.172 108.962 68.1161 111.325 69.62 113.323C73.245 118.038 80.885 119.238 87.005 116.058C92.285 113.313 97.715 105.158 97.76 99.8982C97.7559 99.0018 97.5069 98.1235 97.04 97.3583C96.665 96.7833 96.23 96.1483 95.705 95.4233C94.2736 94.0216 92.719 92.7515 91.06 91.6282L90.06 90.9032C79.775 94.8132 71.47 102.333 67.47 105.958L66.885 106.478Z" fill="#202020"/>
<path d="M54.23 42.4733C54.0149 42.4825 53.8024 42.5246 53.6 42.5983C51.945 43.1783 51.295 45.5983 52.145 48.0233C52.995 50.4483 55.03 51.9283 56.68 51.3433C57.0263 51.2203 57.337 51.0143 57.585 50.7433L54.23 42.4733Z" fill="white"/>
<path d="M55.93 51.7233C55.2163 51.7011 54.5281 51.4524 53.965 51.0133C53.023 50.2554 52.311 49.2497 51.9091 48.1094C51.5073 46.9691 51.4314 45.7393 51.69 44.5582C51.7872 44.0687 52.005 43.6111 52.3237 43.2269C52.6423 42.8428 53.0518 42.5442 53.515 42.3582C53.7425 42.2803 53.9798 42.2348 54.22 42.2232C54.2711 42.2215 54.3214 42.2354 54.3644 42.2631C54.4073 42.2908 54.4406 42.331 54.46 42.3782L57.82 50.6482C57.8373 50.6927 57.8418 50.7411 57.8329 50.7879C57.8241 50.8347 57.8023 50.8782 57.77 50.9132C57.4943 51.2124 57.1516 51.4421 56.77 51.5833C56.4995 51.6752 56.2158 51.7224 55.93 51.7233ZM54.07 42.7232C53.9372 42.7417 53.8065 42.7736 53.68 42.8182C53.2952 42.978 52.9565 43.2313 52.6945 43.5553C52.4325 43.8792 52.2557 44.2635 52.18 44.6732C51.9446 45.7573 52.0144 46.8855 52.3816 47.9323C52.7488 48.9792 53.399 49.9037 54.26 50.6032C54.5785 50.8732 54.9589 51.0601 55.3672 51.1474C55.7755 51.2346 56.199 51.2195 56.6 51.1032C56.8575 51.012 57.0927 50.8671 57.29 50.6782L54.07 42.7232Z" fill="#202020"/>
<path d="M54.23 42.4733C54.0149 42.4825 53.8024 42.5246 53.6 42.5983C53.4124 42.6649 53.2343 42.7557 53.07 42.8683L56.57 51.3683C56.6042 51.3613 56.6377 51.3512 56.67 51.3383C57.0162 51.2153 57.327 51.0093 57.575 50.7383L54.23 42.4733Z" fill="white"/>
<path d="M56.61 51.6032C56.5573 51.6066 56.5048 51.5947 56.4587 51.5689C56.4126 51.5432 56.3749 51.5048 56.35 51.4582L52.85 42.9582C52.8286 42.9055 52.8259 42.8469 52.8422 42.7924C52.8586 42.7378 52.8931 42.6905 52.94 42.6582C53.122 42.5332 53.3184 42.4308 53.525 42.3532C53.7525 42.2753 53.9899 42.2298 54.23 42.2182C54.2811 42.2165 54.3314 42.2304 54.3744 42.2581C54.4173 42.2858 54.4507 42.326 54.47 42.3732L57.83 50.6432C57.8473 50.6877 57.8518 50.736 57.8429 50.7829C57.8341 50.8297 57.8123 50.8731 57.78 50.9082C57.5043 51.2074 57.1616 51.437 56.78 51.5782H56.695L56.61 51.6032ZM53.385 42.9582L56.72 51.0482C56.9301 50.9568 57.1229 50.83 57.29 50.6732L54.07 42.7282C53.9372 42.7467 53.8065 42.7786 53.68 42.8232C53.5773 42.8621 53.4786 42.9107 53.385 42.9682V42.9582Z" fill="#202020"/>
<path d="M69.295 37.4482C69.4694 37.3209 69.6614 37.2199 69.865 37.1482C71.515 36.5682 73.545 38.0532 74.4 40.4682C75.255 42.8832 74.605 45.3132 72.955 45.8982C72.6062 46.0163 72.2345 46.0506 71.87 45.9982L69.295 37.4482Z" fill="white"/>
<path d="M72.22 46.2682C72.0929 46.2699 71.9658 46.2615 71.84 46.2432C71.792 46.237 71.7468 46.2172 71.7096 46.1862C71.6724 46.1552 71.6448 46.1143 71.63 46.0682L69.055 37.5232C69.0404 37.4737 69.0412 37.4208 69.0573 37.3717C69.0733 37.3226 69.1039 37.2795 69.145 37.2482C69.3395 37.1066 69.5533 36.9938 69.78 36.9132C71.56 36.2882 73.74 37.8432 74.635 40.3832C75.0604 41.5181 75.1388 42.7538 74.86 43.9332C74.7628 44.4228 74.5451 44.8804 74.2264 45.2646C73.9077 45.6487 73.4982 45.9473 73.035 46.1332C72.7729 46.2237 72.4974 46.2694 72.22 46.2682ZM72.065 45.7682C72.3373 45.7887 72.611 45.7547 72.87 45.6682C73.2554 45.508 73.5946 45.2539 73.8566 44.929C74.1186 44.6041 74.2951 44.2188 74.37 43.8082C74.6236 42.7263 74.5506 41.5935 74.16 40.5532C73.355 38.2732 71.46 36.8532 69.94 37.3882C69.8145 37.4344 69.6939 37.493 69.58 37.5632L72.065 45.7682Z" fill="#202020"/>
<path d="M72.22 46.2683C72.0929 46.2699 71.9658 46.2615 71.84 46.2433C71.792 46.237 71.7468 46.2173 71.7096 46.1863C71.6724 46.1553 71.6448 46.1143 71.63 46.0682L69.055 37.5233C69.0404 37.4737 69.0412 37.4209 69.0573 37.3718C69.0733 37.3226 69.1039 37.2796 69.145 37.2483C69.3395 37.1066 69.5533 36.9938 69.78 36.9133C69.9881 36.8408 70.2051 36.797 70.425 36.7833C70.4825 36.7787 70.5397 36.7941 70.5871 36.8269C70.6345 36.8597 70.6691 36.9079 70.685 36.9633L73.29 45.7833C73.3081 45.8423 73.3033 45.9061 73.2764 45.9617C73.2495 46.0173 73.2026 46.0608 73.145 46.0833L73.035 46.1333C72.7729 46.2238 72.4974 46.2694 72.22 46.2683ZM72.065 45.7683C72.2938 45.7874 72.5241 45.7654 72.745 45.7033L70.245 37.3083C70.0031 37.3452 69.7716 37.432 69.565 37.5633L72.065 45.7683Z" fill="#202020"/>
<path d="M73.605 55.8232C72.74 56.3632 71.83 56.7932 71.01 56.7182C69.665 56.5932 68.2 50.0032 68.2 50.0032C68.2 50.0032 64.66 52.9332 61.61 52.5682C61.61 52.5682 63.805 57.0682 64.05 58.5682C64.25 59.7532 63.165 60.5382 61.84 60.9882C62.475 62.8582 64.545 67.1382 69.935 65.8232C74.65 64.6532 74.285 59.1332 73.605 55.8232Z" fill="#D9D9D9"/>
<path d="M68 66.3032C63.895 66.3032 62.195 62.7482 61.62 61.0482C61.6065 61.0184 61.5995 60.986 61.5995 60.9532C61.5995 60.9205 61.6065 60.8881 61.62 60.8582C61.6343 60.8286 61.6546 60.8022 61.6795 60.7807C61.7045 60.7591 61.7336 60.743 61.765 60.7332C62.615 60.4432 64.01 59.7832 63.81 58.5882C63.575 57.1782 61.41 52.7182 61.39 52.6732C61.3681 52.6352 61.3565 52.5921 61.3565 52.5482C61.3565 52.5043 61.3681 52.4612 61.39 52.4232C61.4164 52.3865 61.452 52.3574 61.4933 52.3389C61.5346 52.3205 61.5801 52.3133 61.625 52.3182C64.535 52.6632 67.99 49.8182 68.025 49.8182C68.0581 49.7912 68.0976 49.7733 68.1397 49.7663C68.1818 49.7593 68.225 49.7634 68.265 49.7782C68.3061 49.7907 68.3431 49.814 68.3721 49.8457C68.4012 49.8773 68.4212 49.9162 68.43 49.9582C69.13 53.1132 70.29 56.4132 71.015 56.4582C71.65 56.5132 72.43 56.2432 73.46 55.6032C73.4938 55.5811 73.5325 55.5677 73.5726 55.5642C73.6128 55.5606 73.6532 55.5671 73.6903 55.5829C73.7274 55.5987 73.7601 55.6235 73.7853 55.6549C73.8105 55.6864 73.8276 55.7236 73.835 55.7632C74.515 59.0832 74.925 64.8282 69.98 66.0382C69.3326 66.2034 68.6681 66.2923 68 66.3032ZM62.16 61.1032C62.865 63.0232 64.91 66.7582 69.875 65.5432C74.25 64.4782 74.03 59.3882 73.43 56.2082C72.7065 56.6921 71.8554 56.9497 70.985 56.9482C69.66 56.8282 68.435 52.1032 68.045 50.4482C67.15 51.1232 64.545 52.9482 62.02 52.8532C62.565 53.9882 64.09 57.2682 64.295 58.5132C64.5 59.6032 63.725 60.5282 62.16 61.1032Z" fill="#202020"/>
<path d="M69.26 53.7932C68.97 52.9383 68.715 52.0482 68.53 51.3433C68.375 50.9383 68.23 50.5133 68.09 50.0883C67.5 50.5533 64.36 52.8982 61.59 52.5882C61.59 52.5882 62.33 54.0882 63 55.6782C64.18 56.0282 65.84 56.2982 67.145 55.6232C67.9668 55.163 68.6864 54.5404 69.26 53.7932Z" fill="#202020"/>
<path d="M65.265 56.2682C64.4796 56.2565 63.7 56.1319 62.95 55.8982C62.9147 55.8881 62.8821 55.8703 62.8544 55.8461C62.8267 55.8219 62.8048 55.7919 62.79 55.7582C62.13 54.2182 61.39 52.6882 61.385 52.6732C61.3631 52.6352 61.3515 52.5921 61.3515 52.5482C61.3515 52.5044 61.3631 52.4612 61.385 52.4232C61.4114 52.3865 61.447 52.3574 61.4883 52.3389C61.5296 52.3205 61.5751 52.3133 61.62 52.3182C64.27 52.6382 67.33 50.3532 67.92 49.8932C67.9514 49.8687 67.9881 49.8518 68.0272 49.844C68.0663 49.8362 68.1066 49.8376 68.145 49.8482C68.1839 49.8603 68.2192 49.8816 68.248 49.9103C68.2767 49.9391 68.298 49.9744 68.31 50.0132C68.455 50.4632 68.6 50.8832 68.745 51.2532C68.985 52.1682 69.245 53.0082 69.475 53.7082C69.4898 53.7483 69.4939 53.7915 69.4869 53.8336C69.4799 53.8756 69.462 53.9152 69.435 53.9482C68.8453 54.7149 68.1052 55.3529 67.26 55.8232C66.6399 56.1281 65.956 56.2807 65.265 56.2682ZM63.205 55.4532C64.325 55.7732 65.86 55.9982 67.05 55.3832C67.7951 54.9669 68.4509 54.408 68.98 53.7382C68.69 52.8782 68.445 52.0032 68.29 51.4082C68.185 51.1382 68.075 50.8332 67.965 50.4982C67.01 51.2032 64.465 52.9182 62.02 52.8482C62.275 53.3832 62.755 54.4082 63.205 55.4532Z" fill="#202020"/>
<path d="M54.53 40.8482C54.53 40.8482 56.24 48.1732 57.46 50.1232C58.68 52.0732 63.075 54.3982 65.15 54.6232C67.225 54.8482 68.69 52.3032 69.91 50.2282C71.13 48.1532 71.495 46.4432 71.01 43.7582C70.2982 40.5419 69.1897 37.4264 67.71 34.4832C66.92 32.9832 63.21 31.4282 59.78 32.2832C56.35 33.1382 53.92 36.9432 54.53 40.8482Z" fill="#D9D9D9"/>
<path d="M65.425 54.9082C65.3235 54.9155 65.2216 54.9155 65.12 54.9082C62.875 54.6432 58.49 52.2632 57.25 50.2782C56.01 48.2932 54.355 41.2282 54.285 40.9232C53.665 36.9582 56.1 33.0032 59.72 32.0982C63.34 31.1932 67.115 32.8632 67.935 34.4182C69.4236 37.3858 70.5388 40.5264 71.255 43.7682C71.755 46.3982 71.425 48.1982 70.125 50.4082L70.055 50.5232C68.895 52.4682 67.46 54.9082 65.425 54.9082ZM54.775 40.8032C54.845 41.0932 56.505 48.1282 57.67 49.9932C58.835 51.8582 63.06 54.1432 65.17 54.3932C67.04 54.6182 68.47 52.1882 69.615 50.2332L69.685 50.1182C70.93 47.9982 71.21 46.3482 70.75 43.8232C70.0542 40.6267 68.9624 37.5295 67.5 34.6032C66.77 33.2182 63.16 31.7032 59.85 32.5332C56.54 33.3632 54.2 37.1032 54.775 40.8032Z" fill="#202020"/>
<path d="M62.22 45.2482H62.175C62.1431 45.2428 62.1126 45.2311 62.0852 45.2138C62.0579 45.1965 62.0342 45.1739 62.0156 45.1474C61.997 45.1209 61.9838 45.091 61.9769 45.0594C61.9699 45.0278 61.9693 44.9951 61.975 44.9632C62.0122 44.7589 62.0914 44.5645 62.2076 44.3924C62.3237 44.2202 62.4744 44.0741 62.65 43.9632C62.9332 43.8188 63.2442 43.7374 63.5618 43.7244C63.8794 43.7115 64.196 43.7674 64.49 43.8882C64.5563 43.9081 64.612 43.9535 64.6448 44.0145C64.6777 44.0754 64.6849 44.1469 64.665 44.2132C64.6451 44.2795 64.5997 44.3352 64.5388 44.368C64.4778 44.4008 64.4063 44.4081 64.34 44.3882C64.1159 44.2879 63.8731 44.2361 63.6275 44.2361C63.382 44.2361 63.1392 44.2879 62.915 44.3882C62.6874 44.5348 62.526 44.7644 62.465 45.0282C62.4588 45.0888 62.4303 45.1448 62.385 45.1855C62.3397 45.2262 62.2809 45.2485 62.22 45.2482Z" fill="#202020"/>
<path d="M62.965 48.1532C62.2391 48.1499 61.5239 47.9787 60.875 47.6532C60.8465 47.6368 60.8214 47.6149 60.8013 47.5889C60.7812 47.5628 60.7664 47.533 60.7578 47.5012C60.7493 47.4693 60.747 47.4362 60.7513 47.4035C60.7555 47.3708 60.7661 47.3393 60.7825 47.3107C60.7989 47.2822 60.8208 47.2571 60.8469 47.237C60.873 47.2169 60.9028 47.2021 60.9346 47.1936C60.9664 47.185 60.9996 47.1827 61.0323 47.187C61.0649 47.1912 61.0965 47.2018 61.125 47.2182C61.255 47.2932 64.365 48.9932 66.625 45.2182C66.6424 45.1903 66.6651 45.166 66.6918 45.1469C66.7186 45.1277 66.7489 45.1141 66.7809 45.1066C66.813 45.0992 66.8462 45.0982 66.8786 45.1036C66.9111 45.109 66.9421 45.1208 66.97 45.1382C66.9978 45.1551 67.022 45.1774 67.041 45.2037C67.0601 45.23 67.0738 45.2598 67.0813 45.2915C67.0887 45.3231 67.0898 45.3559 67.0844 45.388C67.0791 45.4201 67.0674 45.4507 67.05 45.4782C65.78 47.6282 64.205 48.1532 62.965 48.1532Z" fill="#202020"/>
<path d="M58.54 45.0332C58.2102 45.0385 57.8836 44.9684 57.585 44.8282C57.4677 44.7619 57.3815 44.6517 57.3454 44.5219C57.3093 44.392 57.3262 44.2531 57.3925 44.1357C57.4588 44.0184 57.569 43.9322 57.6989 43.8961C57.8288 43.86 57.9677 43.8769 58.085 43.9432C58.14 43.9732 59.15 44.4432 60.535 42.9432C60.6259 42.8458 60.7517 42.7884 60.8849 42.7837C61.018 42.779 61.1476 42.8274 61.245 42.9182C61.3425 43.0091 61.3999 43.1349 61.4046 43.2681C61.4093 43.4012 61.3609 43.5308 61.27 43.6282C60.185 44.7682 59.215 45.0332 58.54 45.0332Z" fill="#202020"/>
<path d="M65.86 42.5132C65.3999 42.5133 64.9426 42.4408 64.505 42.2982C64.3791 42.257 64.2747 42.1675 64.2147 42.0494C64.1547 41.9313 64.144 41.7942 64.185 41.6682C64.2054 41.6053 64.238 41.547 64.2811 41.4968C64.3241 41.4466 64.3767 41.4054 64.4357 41.3757C64.4948 41.3459 64.5592 41.3281 64.6251 41.3234C64.6911 41.3187 64.7573 41.3272 64.82 41.3482C64.905 41.3782 66.935 42.0282 67.49 40.5532C67.5102 40.4882 67.5434 40.428 67.5877 40.3763C67.632 40.3246 67.6863 40.2824 67.7474 40.2525C67.8086 40.2225 67.8752 40.2053 67.9432 40.202C68.0111 40.1987 68.0791 40.2093 68.1429 40.2331C68.2066 40.257 68.2648 40.2936 68.3139 40.3408C68.363 40.3879 68.4019 40.4446 68.4284 40.5074C68.4548 40.5701 68.4681 40.6376 68.4675 40.7056C68.467 40.7737 68.4525 40.8409 68.425 40.9032C68.2284 41.4123 67.8723 41.8442 67.41 42.1344C66.9477 42.4246 66.404 42.5574 65.86 42.5132Z" fill="#202020"/>
<path d="M56.97 42.3183C56.9071 42.3185 56.8463 42.2949 56.8 42.2522C56.7536 42.2096 56.7251 42.151 56.72 42.0883C56.691 41.6531 56.7485 41.2165 56.8893 40.8037C57.03 40.3909 57.2512 40.0101 57.54 39.6833C57.8661 39.4032 58.2517 39.2009 58.6674 39.0917C59.0832 38.9826 59.5184 38.9694 59.94 39.0533C60.006 39.062 60.0659 39.0962 60.107 39.1485C60.1481 39.2008 60.1671 39.2671 60.16 39.3333C60.1563 39.3662 60.1461 39.398 60.13 39.427C60.1138 39.4559 60.0921 39.4814 60.0661 39.5018C60.04 39.5223 60.0101 39.5374 59.9782 39.5462C59.9463 39.555 59.9129 39.5574 59.88 39.5533C59.5306 39.4795 59.1689 39.4862 58.8224 39.5728C58.4759 39.6594 58.1537 39.8237 57.88 40.0533C57.4064 40.6082 57.1663 41.325 57.21 42.0533C57.2128 42.0861 57.209 42.1192 57.1989 42.1506C57.1888 42.1819 57.1726 42.211 57.1512 42.2361C57.1298 42.2612 57.1037 42.2818 57.0743 42.2968C57.0449 42.3117 57.0129 42.3207 56.98 42.3233L56.97 42.3183Z" fill="#202020"/>
<path d="M63.32 38.4133C63.257 38.4148 63.196 38.3914 63.15 38.3483C63.1266 38.325 63.108 38.2974 63.0953 38.2669C63.0826 38.2365 63.0761 38.2038 63.0761 38.1708C63.0761 38.1378 63.0826 38.1051 63.0953 38.0746C63.108 38.0442 63.1266 38.0165 63.15 37.9933C63.15 37.9933 64.78 36.2733 67.125 37.7083C67.1532 37.7248 67.1778 37.7467 67.1974 37.7728C67.217 37.7989 67.2312 37.8287 67.2391 37.8604C67.247 37.8921 67.2485 37.925 67.2435 37.9573C67.2386 37.9895 67.2272 38.0205 67.21 38.0483C67.1931 38.0766 67.1707 38.1014 67.1441 38.121C67.1175 38.1407 67.0873 38.1548 67.0553 38.1627C67.0232 38.1706 66.9899 38.1721 66.9572 38.1671C66.9246 38.162 66.8932 38.1505 66.865 38.1333C64.865 36.9083 63.53 38.3183 63.515 38.3333C63.4913 38.3612 63.4612 38.383 63.4272 38.3969C63.3933 38.4109 63.3566 38.4165 63.32 38.4133Z" fill="#202020"/>
<path d="M50.26 44.2683C50.26 44.2683 49.89 48.0483 50.26 49.0283C50.63 50.0083 53.92 53.6633 54.53 54.5283C55.14 55.3933 55.26 55.5033 54.03 57.8233C52.8 60.1433 42.68 75.1583 42.315 78.9433C41.95 82.7283 42.19 86.1433 46.22 85.4083C50.25 84.6733 52.565 74.5483 54.275 68.8083C55.985 63.0683 57.815 55.6283 57.815 54.0433C57.815 52.4583 52.685 48.4983 52.135 48.0433C51.585 47.5883 51.345 45.5083 51.345 44.4083C51.345 43.3083 50.745 43.2883 50.26 44.2683Z" fill="#D9D9D9"/>
<path d="M45.22 85.7482C44.4566 85.7866 43.7078 85.5287 43.13 85.0282C41.795 83.8032 41.85 81.2482 42.075 78.9082C42.355 76.0332 48.075 66.9682 51.46 61.5482C52.605 59.7232 53.515 58.2832 53.82 57.6982C54.955 55.5432 54.885 55.4482 54.35 54.6982C54.135 54.3982 53.64 53.8132 53.075 53.1382C51.83 51.6382 50.285 49.8182 50.025 49.1382C49.65 48.1382 49.97 44.6382 50.025 44.2682C50.0184 44.2386 50.0184 44.2078 50.025 44.1782C50.335 43.5582 50.72 43.2532 51.08 43.3382C51.27 43.3832 51.58 43.5832 51.58 44.4132C51.58 45.7332 51.89 47.5232 52.285 47.8582L52.595 48.1132C56.32 51.1132 58.05 53.0082 58.05 54.0582C58.05 55.7282 56.175 63.2732 54.5 68.8982C54.285 69.6232 54.055 70.4232 53.82 71.2632C52.175 77.0632 49.92 85.0032 46.25 85.6682C45.9098 85.7257 45.5651 85.7525 45.22 85.7482ZM50.5 44.3382C50.4 45.4082 50.215 48.1932 50.5 48.9382C50.735 49.5532 52.38 51.5132 53.465 52.8082C54.065 53.5232 54.54 54.0882 54.745 54.3732C55.45 55.3732 55.47 55.6532 54.275 57.9332C53.955 58.5332 53.045 59.9832 51.89 61.8182C48.51 67.1932 42.85 76.1982 42.585 78.9532C42.38 81.0432 42.3 83.5782 43.475 84.6632C44.08 85.2132 44.975 85.3782 46.195 85.1632C49.56 84.5532 51.765 76.7832 53.375 71.1132C53.61 70.2682 53.84 69.4682 54.055 68.7382C55.87 62.6482 57.585 55.5082 57.585 54.0432C57.585 53.4482 56.67 52.0032 52.32 48.4882L51.995 48.2282C51.33 47.6632 51.115 45.4032 51.115 44.3982C51.115 43.9532 51.01 43.8182 50.985 43.8082C50.96 43.7982 50.745 43.8682 50.5 44.3382Z" fill="#202020"/>
<path d="M54.285 68.7982C54.455 68.2332 54.625 67.6432 54.785 67.0482L49.58 65.0082C46.345 70.2232 42.535 76.6382 42.315 78.9332C41.95 82.7132 42.19 86.1332 46.22 85.3982C50.25 84.6632 52.575 74.5382 54.285 68.7982Z" fill="#FFDA8A"/>
<path d="M45.22 85.7483C44.4566 85.7866 43.7078 85.5287 43.13 85.0283C41.795 83.8033 41.85 81.2483 42.075 78.9083C42.3 76.5683 46.355 69.7433 49.38 64.8733C49.4102 64.8238 49.4568 64.7867 49.5117 64.7684C49.5666 64.7501 49.6263 64.7518 49.68 64.7733L54.89 66.8183C54.9476 66.8408 54.9945 66.8842 55.0214 66.9398C55.0483 66.9954 55.0531 67.0592 55.035 67.1183C54.865 67.7133 54.695 68.3033 54.535 68.8733C54.32 69.5983 54.09 70.3983 53.855 71.2383C52.21 77.0383 49.955 84.9783 46.285 85.6433C45.9341 85.7113 45.5775 85.7464 45.22 85.7483ZM49.695 65.3133C46.695 70.1283 42.795 76.6783 42.575 78.9533C42.37 81.0433 42.29 83.5783 43.465 84.6633C44.07 85.2133 44.965 85.3783 46.185 85.1633C49.55 84.5533 51.755 76.7833 53.365 71.1133C53.6 70.2683 53.83 69.4683 54.045 68.7383C54.195 68.2383 54.345 67.7283 54.495 67.2083L49.695 65.3133Z" fill="#202020"/>
<path d="M47.255 68.8383L47.195 68.9383L47.045 69.1883C46.935 69.3733 46.825 69.5583 46.72 69.7433C48.9945 70.2977 51.2268 71.0129 53.4 71.8833L53.675 70.9183C51.5842 70.0814 49.4394 69.3865 47.255 68.8383Z" fill="#202020"/>
<path d="M49 83.2182C49.215 82.9082 49.425 82.5682 49.63 82.2182C47.1025 82.3086 44.5809 81.9167 42.2 81.0632C42.2 81.4432 42.215 81.8082 42.245 82.1582C44.4223 82.8839 46.7051 83.2422 49 83.2182Z" fill="#202020"/>
<path d="M44.1 74.4432C44.055 74.5282 44.01 74.6132 43.97 74.6982C43.93 74.7832 43.875 74.8832 43.83 74.9732L43.615 75.4082C46.3948 75.6816 49.1082 76.4237 51.64 77.6032C51.75 77.2882 51.86 76.9682 51.965 76.6482C49.4798 75.4929 46.8237 74.7483 44.1 74.4432Z" fill="#202020"/>
<path d="M72.945 35.6633C72.945 35.6633 76.05 37.8533 76.555 38.7683C77.06 39.6833 77.685 44.5683 77.935 45.5883C78.185 46.6083 78.2 46.7783 80.75 47.3633C83.3 47.9483 101.295 50.0533 104.405 52.2383C107.515 54.4233 109.945 56.8433 106.765 59.4183C103.585 61.9933 94.39 57.1533 88.925 54.7083C83.46 52.2633 76.62 48.8033 75.425 47.7683C74.23 46.7333 74.57 40.2683 74.575 39.5483C74.58 38.8283 73.165 37.2933 72.33 36.5783C71.495 35.8633 71.885 35.3983 72.945 35.6633Z" fill="#D9D9D9"/>
<path d="M104.225 60.3932C100.635 60.3932 95.255 57.8932 91.065 55.9632C90.27 55.5982 89.515 55.2482 88.825 54.9382C83.465 52.5432 76.52 49.0482 75.255 47.9382C74.46 47.2532 74.155 44.7082 74.3 39.9382C74.3 39.7482 74.3 39.6132 74.3 39.5382C74.3 39.0382 73.14 37.6182 72.14 36.7582C71.51 36.2182 71.57 35.8382 71.665 35.6632C71.835 35.3332 72.315 35.2432 72.99 35.4132C73.0197 35.4194 73.0473 35.4332 73.07 35.4532C73.395 35.6782 76.24 37.6982 76.755 38.6382C77.115 39.2882 77.505 41.6382 77.815 43.5682C77.96 44.4382 78.085 45.1932 78.16 45.5182C78.39 46.4532 78.42 46.5682 80.795 47.1132C81.435 47.2582 83.12 47.5132 85.255 47.8332C91.58 48.7782 102.17 50.3632 104.535 52.0282C106.455 53.3782 108.43 55.0282 108.49 56.8132C108.525 57.7882 107.99 58.7232 106.905 59.6032C106.129 60.1669 105.183 60.4459 104.225 60.3932ZM72.405 35.8382C72.3054 35.8264 72.2047 35.8494 72.12 35.9032C72.12 35.9282 72.12 36.0982 72.48 36.4032C73.245 37.0582 74.82 38.6932 74.815 39.5632C74.815 39.6432 74.815 39.7832 74.815 39.9782C74.645 45.5732 75.145 47.2082 75.595 47.5932C76.705 48.5482 83.24 51.9032 89.04 54.4982C89.735 54.8082 90.49 55.1582 91.285 55.5232C96.64 58.0232 103.965 61.3932 106.625 59.2382C107.59 58.4532 108.05 57.6732 108.02 56.8582C107.965 55.2582 105.99 53.6682 104.275 52.4582C102.01 50.8632 91.495 49.2932 85.21 48.3482C83.065 48.0282 81.375 47.7782 80.71 47.6232C78.21 47.0482 77.995 46.8482 77.71 45.6982C77.62 45.3182 77.5 44.5932 77.35 43.6982C77.075 42.0282 76.66 39.5082 76.35 38.9282C75.965 38.2282 73.735 36.5582 72.85 35.9282C72.7062 35.8793 72.5566 35.8491 72.405 35.8382Z" fill="#202020"/>
<path d="M88.925 54.7082L87.265 53.9582L89.11 48.6782C95.175 49.6232 102.52 50.9132 104.405 52.2382C107.515 54.4282 109.945 56.8432 106.765 59.4182C103.585 61.9932 94.39 57.1532 88.925 54.7082Z" fill="#FFDA8A"/>
<path d="M104.225 60.3932C100.635 60.3932 95.255 57.8932 91.065 55.9632C90.27 55.5982 89.515 55.2482 88.825 54.9382L87.16 54.1832C87.1029 54.1579 87.0576 54.1117 87.0335 54.054C87.0093 53.9964 87.0081 53.9317 87.03 53.8732L88.87 48.6032C88.8892 48.5478 88.9273 48.501 88.9776 48.4708C89.0278 48.4406 89.0871 48.4291 89.145 48.4382C94.81 49.3232 102.57 50.6532 104.55 52.0482C106.53 53.4432 108.445 55.0482 108.505 56.8332C108.54 57.8082 108.005 58.7432 106.92 59.6232C106.137 60.1831 105.185 60.4552 104.225 60.3932ZM89.025 54.4832C89.72 54.7932 90.48 55.1432 91.275 55.5082C96.625 58.0082 103.95 61.3782 106.61 59.2232C107.575 58.4382 108.035 57.6582 108.005 56.8432C107.95 55.2432 105.975 53.6532 104.26 52.4432C102.39 51.1282 94.87 49.8282 89.26 48.9432L87.56 53.8082L89.01 54.4682L89.025 54.4832Z" fill="#202020"/>
<path d="M97.285 58.4183C97.6 58.5433 97.91 58.6582 98.22 58.7732L101.265 51.0232L100.615 50.8483L100.475 50.8132L100.29 50.7682L97.285 58.4183Z" fill="#202020"/>
<path d="M95.4 49.7332L95.135 49.6882L94.445 49.5632L91.815 56.0632L92.52 56.3882L92.725 56.4782L95.45 49.7682L95.4 49.7332Z" fill="#202020"/>
<path d="M105.97 53.4282C105.295 54.9282 104.055 57.7182 102.9 60.0532C103.255 60.1059 103.612 60.1376 103.97 60.1482C105.01 58.0182 106.09 55.6482 106.75 54.1482C106.5 53.8932 106.245 53.6582 105.97 53.4282Z" fill="#202020"/>
<path d="M139.5 141.133C140.194 141.521 140.814 142.029 141.33 142.633C141.33 142.633 140.88 143.848 138.185 145.938C139.975 147.713 141.575 149.553 142.255 149.468C143.59 149.303 147.255 143.303 148.425 141.638C149.595 139.973 151.62 138.913 151.95 136.078C152.28 133.243 150.62 133.078 149.95 133.913C149.28 134.748 145.205 137.478 143.04 138.148C140.875 138.818 139.165 139.463 139.165 139.463C139.165 139.463 138.5 140.633 139.5 141.133Z" fill="white"/>
<path d="M142.22 149.723C141.59 149.723 140.65 148.793 139.085 147.198C138.745 146.843 138.385 146.478 138.02 146.113C137.995 146.089 137.975 146.059 137.962 146.026C137.949 145.993 137.943 145.958 137.945 145.923C137.947 145.888 137.957 145.853 137.973 145.821C137.99 145.789 138.012 145.761 138.04 145.738C140.135 144.118 140.85 143.028 141.04 142.673C140.567 142.145 140.009 141.699 139.39 141.353C139.24 141.285 139.106 141.187 138.996 141.064C138.887 140.94 138.805 140.795 138.755 140.638C138.659 140.197 138.73 139.735 138.955 139.343C138.981 139.292 139.026 139.253 139.08 139.233C139.08 139.233 140.82 138.568 142.97 137.908C145.12 137.248 149.125 134.548 149.76 133.758C149.932 133.529 150.174 133.363 150.449 133.283C150.724 133.204 151.018 133.216 151.285 133.318C151.64 133.463 152.45 134.038 152.205 136.108C151.96 138.178 150.87 139.318 149.815 140.418C149.386 140.84 148.992 141.294 148.635 141.778C148.41 142.098 148.1 142.568 147.73 143.128C145.495 146.523 143.395 149.578 142.295 149.718L142.22 149.723ZM138.57 145.958C138.87 146.258 139.16 146.558 139.445 146.848C140.555 147.983 141.815 149.268 142.235 149.223C143.2 149.103 145.98 144.883 147.32 142.853C147.69 142.288 148.005 141.813 148.23 141.493C148.603 140.988 149.014 140.511 149.46 140.068C150.46 139.028 151.49 137.953 151.715 136.068C151.855 134.863 151.625 134.013 151.095 133.793C150.928 133.735 150.747 133.732 150.577 133.784C150.408 133.836 150.26 133.941 150.155 134.083C149.475 134.933 145.39 137.703 143.12 138.398C141.265 138.973 139.735 139.538 139.355 139.678C139.225 139.934 139.185 140.226 139.24 140.508C139.27 140.6 139.32 140.685 139.385 140.757C139.451 140.828 139.531 140.885 139.62 140.923C140.348 141.324 140.997 141.855 141.535 142.488C141.562 142.522 141.581 142.562 141.588 142.605C141.595 142.648 141.59 142.692 141.575 142.733C141.555 142.768 141.095 143.958 138.57 145.958Z" fill="#202020"/>
<path d="M151.525 133.778C151.095 137.203 150.025 138.313 146.025 142.613C142.91 145.963 141.71 148.038 141.25 149.063C141.536 149.295 141.884 149.436 142.25 149.468C143.585 149.303 147.25 143.303 148.42 141.638C149.59 139.973 151.615 138.913 151.945 136.078C152.105 134.863 151.88 134.143 151.525 133.778Z" fill="white"/>
<path d="M142.21 149.723C141.808 149.676 141.426 149.521 141.105 149.273C141.056 149.239 141.021 149.189 141.004 149.132C140.988 149.074 140.992 149.013 141.015 148.958C141.545 147.783 142.81 145.698 145.835 142.458L146.065 142.208C149.845 138.138 150.865 137.043 151.275 133.763C151.281 133.717 151.3 133.673 151.33 133.636C151.361 133.6 151.4 133.573 151.445 133.558C151.489 133.541 151.536 133.538 151.582 133.548C151.627 133.559 151.669 133.584 151.7 133.618C152.03 133.953 152.38 134.663 152.2 136.118C151.955 138.188 150.865 139.328 149.81 140.428C149.381 140.85 148.987 141.304 148.63 141.788C148.405 142.108 148.095 142.578 147.725 143.138C145.49 146.533 143.39 149.588 142.29 149.728L142.21 149.723ZM141.565 148.968C141.759 149.116 141.992 149.204 142.235 149.223C143.2 149.103 145.98 144.883 147.32 142.853C147.69 142.288 148.005 141.813 148.23 141.493C148.603 140.988 149.015 140.511 149.46 140.068C150.46 139.028 151.49 137.953 151.715 136.068C151.792 135.569 151.773 135.06 151.66 134.568C151.16 137.463 149.915 138.793 146.43 142.568L146.2 142.813C143.27 145.938 142.055 147.953 141.565 148.968Z" fill="#202020"/>
<path d="M76.31 104.073C76.2576 104.073 76.2064 104.057 76.1639 104.026C76.1213 103.995 76.0894 103.952 76.0729 103.902C76.0563 103.853 76.0558 103.799 76.0714 103.749C76.087 103.699 76.1181 103.655 76.16 103.623C76.16 103.623 76.705 103.223 77.61 102.578C77.6369 102.559 77.6674 102.546 77.6995 102.538C77.7317 102.531 77.765 102.53 77.7975 102.536C77.83 102.541 77.861 102.553 77.8889 102.571C77.9168 102.588 77.941 102.611 77.96 102.638C77.9791 102.665 77.9926 102.696 77.9999 102.728C78.0072 102.76 78.0081 102.793 78.0025 102.826C77.9969 102.858 77.985 102.889 77.9674 102.917C77.9499 102.945 77.927 102.969 77.9 102.988L76.455 104.023C76.414 104.056 76.3627 104.074 76.31 104.073Z" fill="white"/>
<path d="M74.435 104.968C74.435 104.968 90.935 92.3032 103.765 87.6382C116.595 82.9732 120.935 86.1382 120.1 90.6382C119.265 95.1382 113.435 109.638 108.935 117.638C104.435 125.638 96.765 138.803 96.765 138.803C96.765 138.803 104.1 148.968 104.765 150.138C105.43 151.308 100.6 151.468 98.6 150.303C96.8815 149.392 95.2125 148.391 93.6 147.303C87.77 143.473 87.435 141.973 88.265 140.638C90.93 136.363 94.145 132.788 95.435 127.638C97.775 118.268 102.11 106.138 102.6 107.468C98.4057 111.475 93.4066 114.543 87.935 116.468C79.1 119.468 73.34 118.693 69.435 113.468" fill="#202020"/>
<path d="M102.425 151.343C101.02 151.343 99.3951 151.058 98.475 150.518C98.01 150.248 97.685 150.073 97.365 149.903C96.0244 149.175 94.7226 148.377 93.465 147.513C87.66 143.698 87.085 142.058 88.055 140.513C88.735 139.418 89.46 138.358 90.16 137.333C92.26 134.273 94.24 131.378 95.19 127.583C96.65 121.748 99.43 112.983 101.19 109.083C97.2989 112.413 92.8277 114.998 88 116.708C78.92 119.788 73.125 118.838 69.205 113.623C69.1665 113.57 69.1502 113.503 69.1595 113.438C69.1688 113.373 69.2031 113.314 69.255 113.273C69.3081 113.233 69.3747 113.216 69.4404 113.226C69.506 113.235 69.5653 113.27 69.605 113.323C73.375 118.323 78.995 119.238 87.84 116.233C92.9907 114.404 97.7272 111.571 101.775 107.898C102.06 107.398 102.275 107.128 102.465 107.118C102.545 107.118 102.623 107.144 102.687 107.192C102.751 107.239 102.797 107.307 102.82 107.383C102.836 107.427 102.84 107.475 102.83 107.521C102.82 107.567 102.798 107.609 102.765 107.643C102.765 107.643 102.515 107.898 102.07 108.303C100.77 110.828 97.68 119.633 95.66 127.698C94.69 131.583 92.66 134.513 90.56 137.613C89.86 138.613 89.14 139.688 88.465 140.773C87.79 141.858 87.7 143.133 93.725 147.093C94.9707 147.951 96.2608 148.742 97.59 149.463C97.91 149.633 98.2401 149.813 98.7101 150.088C100.375 151.058 103.91 151.033 104.515 150.433C104.57 150.378 104.585 150.343 104.515 150.258C103.86 149.118 96.605 139.053 96.515 138.948C96.488 138.908 96.4735 138.861 96.4735 138.813C96.4735 138.765 96.488 138.718 96.515 138.678C96.595 138.543 104.235 125.418 108.68 117.513C113.23 109.423 119 95.0132 119.82 90.5932C120.115 89.0032 119.725 87.7082 118.7 86.8382C117.35 85.6932 113.62 84.3082 103.82 87.8732C91.17 92.4732 74.715 105.043 74.55 105.168C74.5244 105.191 74.4944 105.208 74.4619 105.218C74.4294 105.229 74.3951 105.232 74.3611 105.229C74.3271 105.226 74.2942 105.215 74.2644 105.199C74.2345 105.182 74.2083 105.16 74.1875 105.133C74.1666 105.106 74.1515 105.075 74.1431 105.042C74.1346 105.009 74.1331 104.974 74.1385 104.941C74.1439 104.907 74.1561 104.875 74.1744 104.846C74.1928 104.817 74.2168 104.792 74.245 104.773C74.41 104.643 90.925 92.0282 103.645 87.4032C111.09 84.6982 116.545 84.3632 119.025 86.4582C120.195 87.4582 120.64 88.9082 120.31 90.6832C119.485 95.1532 113.685 109.633 109.115 117.758C104.915 125.228 97.87 137.348 97.03 138.788C97.93 140.033 104.315 148.908 104.95 150.013C105.027 150.134 105.059 150.277 105.04 150.419C105.022 150.56 104.955 150.691 104.85 150.788C104.5 151.168 103.53 151.343 102.425 151.343Z" fill="#202020"/>
<path d="M79.925 101.503C79.8845 101.503 79.8447 101.493 79.8089 101.474C79.7732 101.454 79.7427 101.427 79.72 101.393C79.7012 101.366 79.688 101.336 79.681 101.304C79.6741 101.272 79.6737 101.239 79.6797 101.207C79.6858 101.175 79.6982 101.144 79.7163 101.117C79.7344 101.09 79.7578 101.066 79.785 101.048C83.14 98.7133 87.855 95.5483 91.285 93.7783C91.3142 93.7583 91.3472 93.7448 91.382 93.7385C91.4168 93.7322 91.4525 93.7334 91.4867 93.742C91.521 93.7505 91.5531 93.7663 91.5808 93.7881C91.6086 93.81 91.6314 93.8374 91.6478 93.8687C91.6641 93.9001 91.6737 93.9345 91.6758 93.9697C91.6779 94.005 91.6725 94.0403 91.6599 94.0733C91.6474 94.1064 91.628 94.1364 91.603 94.1613C91.578 94.1863 91.548 94.2057 91.515 94.2183C88.12 95.9883 83.42 99.1283 80.08 101.458C80.0344 101.489 79.9802 101.505 79.925 101.503Z" fill="white"/>
<path d="M96.645 112.073C96.6087 112.073 96.5728 112.065 96.5399 112.05C96.507 112.034 96.478 112.011 96.455 111.983C96.4127 111.932 96.3922 111.866 96.3978 111.8C96.4034 111.733 96.4347 111.672 96.485 111.628L100.77 108.023C101.04 107.063 103.89 97.4383 110.2 92.4333C110.226 92.4123 110.256 92.3966 110.287 92.3872C110.319 92.3778 110.353 92.3749 110.386 92.3786C110.419 92.3824 110.451 92.3927 110.48 92.4089C110.509 92.4252 110.535 92.447 110.555 92.4733C110.596 92.5251 110.615 92.5909 110.607 92.6565C110.6 92.7221 110.567 92.782 110.515 92.8233C104.015 97.9683 101.255 108.128 101.23 108.228C101.216 108.278 101.189 108.324 101.15 108.358L96.81 112.013C96.7637 112.052 96.7053 112.073 96.645 112.073Z" fill="white"/>
<path d="M113.555 108.643C113.525 108.65 113.495 108.65 113.465 108.643C113.435 108.632 113.407 108.614 113.383 108.592C113.36 108.569 113.341 108.542 113.328 108.513C113.315 108.483 113.308 108.451 113.307 108.418C113.307 108.386 113.313 108.353 113.325 108.323L114.24 106.038C114.252 106.007 114.269 105.979 114.292 105.955C114.315 105.931 114.342 105.912 114.373 105.899C114.403 105.886 114.436 105.879 114.469 105.879C114.502 105.879 114.535 105.885 114.565 105.898C114.626 105.924 114.674 105.972 114.701 106.032C114.727 106.093 114.728 106.161 114.705 106.223L113.79 108.508C113.767 108.551 113.734 108.586 113.692 108.61C113.65 108.633 113.603 108.645 113.555 108.643Z" fill="white"/>
<path d="M115.275 104.348C115.244 104.353 115.212 104.353 115.18 104.348C115.119 104.323 115.071 104.275 115.044 104.214C115.018 104.153 115.017 104.085 115.04 104.023L118.35 95.7483C118.362 95.7177 118.38 95.6898 118.403 95.6663C118.426 95.6427 118.453 95.6239 118.483 95.6108C118.514 95.5978 118.546 95.5909 118.579 95.5905C118.612 95.59 118.644 95.5961 118.675 95.6083C118.706 95.6204 118.733 95.6384 118.757 95.6613C118.781 95.6842 118.799 95.7115 118.812 95.7417C118.825 95.7719 118.832 95.8044 118.833 95.8372C118.833 95.8701 118.827 95.9027 118.815 95.9332L115.5 104.193C115.482 104.238 115.451 104.277 115.411 104.304C115.371 104.332 115.324 104.347 115.275 104.348Z" fill="white"/>
<path d="M98.6 150.303C100.6 151.468 105.435 151.303 104.765 150.138C104.095 148.973 96.765 138.803 96.765 138.803C96.765 138.803 98.795 135.303 101.38 130.843C98.16 130.428 96.35 129.063 95.38 127.883C94.05 132.883 90.88 136.433 88.28 140.638C87.45 141.973 87.78 143.473 93.615 147.303C95.2226 148.39 96.8866 149.392 98.6 150.303Z" fill="#D9D9D9"/>
<path d="M102.425 151.343C101.02 151.343 99.395 151.058 98.475 150.518C98.01 150.248 97.685 150.073 97.365 149.903C96.0243 149.175 94.7226 148.377 93.465 147.513C87.66 143.698 87.085 142.058 88.055 140.513C88.735 139.423 89.455 138.368 90.155 137.343C92.21 134.343 94.155 131.508 95.125 127.843C95.1361 127.799 95.1592 127.759 95.1919 127.727C95.2246 127.695 95.2655 127.673 95.31 127.663C95.3547 127.655 95.4007 127.659 95.4436 127.674C95.4865 127.689 95.5249 127.714 95.555 127.748C96.46 128.833 98.215 130.208 101.41 130.618C101.451 130.625 101.49 130.641 101.524 130.665C101.558 130.69 101.586 130.721 101.605 130.758C101.625 130.794 101.635 130.835 101.635 130.876C101.635 130.917 101.625 130.957 101.605 130.993C99.325 134.943 97.48 138.123 97.075 138.813C97.975 140.058 104.36 148.933 104.995 150.038C105.072 150.159 105.104 150.302 105.085 150.444C105.067 150.586 105 150.716 104.895 150.813C104.5 151.168 103.53 151.343 102.425 151.343ZM95.5 128.393C94.47 131.943 92.58 134.703 90.58 137.623C89.885 138.623 89.165 139.693 88.495 140.773C87.825 141.853 87.73 143.133 93.755 147.093C95.0007 147.951 96.2908 148.742 97.62 149.463C97.94 149.633 98.27 149.813 98.74 150.088C100.405 151.058 103.94 151.033 104.545 150.433C104.6 150.378 104.615 150.343 104.545 150.258C103.89 149.118 96.635 139.053 96.545 138.948C96.5179 138.908 96.5035 138.861 96.5035 138.813C96.5035 138.765 96.5179 138.718 96.545 138.678C96.545 138.678 98.48 135.358 100.975 131.038C98.17 130.603 96.5 129.428 95.5 128.393Z" fill="#202020"/>
<path d="M96.765 138.803C96.765 138.803 96.1 138.303 95.265 139.638C94.7439 140.486 94.2988 141.377 93.935 142.303L90.065 137.913C89.455 138.803 88.85 139.703 88.265 140.638C87.435 141.973 87.765 143.473 93.6 147.303C95.2125 148.391 96.8815 149.392 98.6 150.303C100.6 151.468 105.435 151.303 104.765 150.138C104.095 148.973 96.765 138.803 96.765 138.803Z" fill="white"/>
<path d="M102.425 151.343C101.02 151.343 99.3951 151.058 98.475 150.518C98.01 150.248 97.685 150.073 97.365 149.903C96.0243 149.175 94.7226 148.377 93.465 147.513C87.66 143.698 87.085 142.058 88.055 140.513C88.66 139.543 89.305 138.593 89.86 137.778C89.8812 137.747 89.9094 137.72 89.9423 137.701C89.9752 137.682 90.0121 137.671 90.05 137.668C90.0885 137.665 90.1271 137.671 90.1627 137.686C90.1983 137.701 90.23 137.724 90.255 137.753L93.855 141.838C94.1962 141.033 94.5974 140.254 95.055 139.508C95.1756 139.264 95.3447 139.048 95.5519 138.872C95.7591 138.695 96 138.563 96.26 138.483C96.372 138.459 96.4877 138.458 96.6002 138.48C96.7126 138.501 96.8197 138.545 96.915 138.608C96.937 138.623 96.9557 138.641 96.97 138.663C97.27 139.078 104.32 148.853 104.97 150.018C105.047 150.139 105.079 150.282 105.06 150.424C105.042 150.565 104.975 150.696 104.87 150.793C104.5 151.168 103.53 151.343 102.425 151.343ZM90.09 138.318C89.59 139.068 89.015 139.913 88.48 140.773C87.835 141.798 87.715 143.133 93.74 147.093C94.9857 147.951 96.2758 148.742 97.605 149.463C97.925 149.633 98.255 149.813 98.725 150.088C100.39 151.058 103.925 151.033 104.53 150.433C104.585 150.378 104.6 150.343 104.53 150.258C103.9 149.158 97.1 139.718 96.575 138.993C96.4904 138.966 96.3996 138.966 96.315 138.993C96.125 139.033 95.815 139.203 95.46 139.788C94.9468 140.624 94.5069 141.502 94.145 142.413C94.1302 142.453 94.1054 142.488 94.0729 142.515C94.0405 142.542 94.0016 142.561 93.96 142.568C93.9173 142.576 93.8734 142.572 93.8324 142.558C93.7913 142.544 93.7544 142.52 93.725 142.488L90.09 138.318Z" fill="#202020"/>
<path d="M93.6 147.303C95.2125 148.391 96.8815 149.392 98.6 150.303C100.4 151.353 104.49 151.303 104.81 150.458C97.22 150.053 90.93 144.013 88.145 140.853C87.5 142.138 88.085 143.678 93.6 147.303Z" fill="white"/>
<path d="M102.38 151.353C101.031 151.389 99.6919 151.103 98.475 150.518C98.01 150.248 97.685 150.073 97.365 149.903C96.0243 149.175 94.7226 148.377 93.465 147.513C87.85 143.823 87.18 142.188 87.92 140.743C87.9383 140.707 87.9651 140.675 87.9983 140.652C88.0315 140.628 88.07 140.613 88.1105 140.607C88.1509 140.602 88.1921 140.606 88.2303 140.62C88.2686 140.635 88.3028 140.658 88.33 140.688C91.33 144.078 97.435 149.818 104.83 150.188C104.869 150.189 104.907 150.199 104.941 150.219C104.976 150.238 105.004 150.265 105.025 150.298C105.047 150.331 105.061 150.368 105.066 150.407C105.072 150.446 105.068 150.486 105.055 150.523C104.986 150.658 104.89 150.776 104.771 150.87C104.653 150.964 104.516 151.031 104.37 151.068C103.727 151.271 103.054 151.367 102.38 151.353ZM88.225 141.323C87.965 142.258 88.56 143.688 93.725 147.093C94.9707 147.951 96.2608 148.742 97.59 149.463C97.91 149.633 98.24 149.813 98.71 150.088C100.04 150.863 102.79 151.048 104.07 150.653C97.05 149.963 91.25 144.683 88.225 141.323Z" fill="#202020"/>
</svg>
