<svg width="161" height="50" viewBox="0 0 161 50" fill="none" xmlns="http://www.w3.org/2000/svg">
<path d="M39.476 10.8H45.128L47.648 28.836H47.72L50.24 10.8H55.892V36H52.148V16.92H52.076L49.196 36H45.884L43.004 16.92H42.932V36H39.476V10.8ZM64.6071 36.36C62.6871 36.36 61.2231 35.82 60.2151 34.74C59.2071 33.636 58.7031 32.064 58.7031 30.024V10.8H62.6631V30.312C62.6631 31.176 62.8311 31.8 63.1671 32.184C63.5271 32.568 64.0311 32.76 64.6791 32.76C65.3271 32.76 65.8191 32.568 66.1551 32.184C66.5151 31.8 66.6951 31.176 66.6951 30.312V10.8H70.5111V30.024C70.5111 32.064 70.0071 33.636 68.9991 34.74C67.9911 35.82 66.5271 36.36 64.6071 36.36ZM78.4795 36.36C76.5595 36.36 75.1075 35.82 74.1235 34.74C73.1395 33.636 72.6475 32.064 72.6475 30.024V28.584H76.3915V30.312C76.3915 31.944 77.0755 32.76 78.4435 32.76C79.1155 32.76 79.6195 32.568 79.9555 32.184C80.3155 31.776 80.4955 31.128 80.4955 30.24C80.4955 29.184 80.2555 28.26 79.7755 27.468C79.2955 26.652 78.4075 25.68 77.1115 24.552C75.4795 23.112 74.3395 21.816 73.6915 20.664C73.0435 19.488 72.7195 18.168 72.7195 16.704C72.7195 14.712 73.2235 13.176 74.2315 12.096C75.2395 10.992 76.7035 10.44 78.6235 10.44C80.5195 10.44 81.9475 10.992 82.9075 12.096C83.8915 13.176 84.3835 14.736 84.3835 16.776V17.82H80.6395V16.524C80.6395 15.66 80.4715 15.036 80.1355 14.652C79.7995 14.244 79.3075 14.04 78.6595 14.04C77.3395 14.04 76.6795 14.844 76.6795 16.452C76.6795 17.364 76.9195 18.216 77.3995 19.008C77.9035 19.8 78.8035 20.76 80.0995 21.888C81.7555 23.328 82.8955 24.636 83.5195 25.812C84.1435 26.988 84.4555 28.368 84.4555 29.952C84.4555 32.016 83.9395 33.6 82.9075 34.704C81.8995 35.808 80.4235 36.36 78.4795 36.36ZM86.726 10.8H90.686V36H86.726V10.8ZM99.2318 36.36C97.3358 36.36 95.8838 35.82 94.8758 34.74C93.8918 33.66 93.3998 32.136 93.3998 30.168V16.632C93.3998 14.664 93.8918 13.14 94.8758 12.06C95.8838 10.98 97.3358 10.44 99.2318 10.44C101.128 10.44 102.568 10.98 103.552 12.06C104.56 13.14 105.064 14.664 105.064 16.632V19.296H101.32V16.38C101.32 14.82 100.66 14.04 99.3398 14.04C98.0198 14.04 97.3598 14.82 97.3598 16.38V30.456C97.3598 31.992 98.0198 32.76 99.3398 32.76C100.66 32.76 101.32 31.992 101.32 30.456V26.604H105.064V30.168C105.064 32.136 104.56 33.66 103.552 34.74C102.568 35.82 101.128 36.36 99.2318 36.36ZM113.199 10.8H117.159V36H113.199V10.8ZM120.124 10.8H125.092L128.944 25.884H129.016V10.8H132.544V36H128.476L123.724 17.604H123.652V36H120.124V10.8ZM135.488 10.8H145.964V14.4H139.448V21.42H144.56V25.02H139.448V36H135.488V10.8ZM153.587 36.36C151.643 36.36 150.155 35.808 149.123 34.704C148.091 33.6 147.575 32.04 147.575 30.024V16.776C147.575 14.76 148.091 13.2 149.123 12.096C150.155 10.992 151.643 10.44 153.587 10.44C155.531 10.44 157.019 10.992 158.051 12.096C159.083 13.2 159.599 14.76 159.599 16.776V30.024C159.599 32.04 159.083 33.6 158.051 34.704C157.019 35.808 155.531 36.36 153.587 36.36ZM153.587 32.76C154.955 32.76 155.639 31.932 155.639 30.276V16.524C155.639 14.868 154.955 14.04 153.587 14.04C152.219 14.04 151.535 14.868 151.535 16.524V30.276C151.535 31.932 152.219 32.76 153.587 32.76Z" fill="white"/>
<path d="M2.17741 23.9762C2.17741 16.8901 7.93967 11.1266 15.0219 11.1266C17.3018 11.1266 19.4429 11.7267 21.3029 12.7731L22.3203 10.9128C20.1556 9.69431 17.7206 9.03674 15.2369 9H14.9931C6.76222 9.0125 0.0899962 15.6349 0 23.855V23.9988C0.00178455 26.0417 0.421297 28.0627 1.23275 29.9375C2.0442 31.8122 3.23044 33.5012 4.71855 34.9006L6.19974 33.3003C4.92928 32.1022 3.91711 30.6569 3.22541 29.0533C2.5337 27.4496 2.17707 25.7215 2.17741 23.975V23.9762ZM25.4514 13.2532L24.009 14.8035C25.2314 15.9977 26.2027 17.4245 26.8656 18.9998C27.5284 20.5751 27.8696 22.2671 27.8688 23.9762C27.8688 31.0599 22.1066 36.8234 15.0244 36.8234C12.7957 36.8234 10.6996 36.2533 8.87213 35.2506L7.80467 37.1534C10.0092 38.3648 12.484 38.9996 14.9994 38.9988C23.2815 38.9988 30 32.2814 30 23.9963C29.9993 21.9923 29.5965 20.0089 28.8154 18.1636C28.0343 16.3182 26.8908 14.6484 25.4527 13.2532H25.4514ZM2.45365 23.9762C2.45358 25.6842 2.80234 27.3741 3.47854 28.9424C4.15473 30.5107 5.14411 31.9243 6.38598 33.0965L7.86092 31.5013C6.8396 30.5321 6.0263 29.3652 5.47057 28.0714C4.91485 26.7777 4.62836 25.3843 4.62856 23.9762C4.62856 18.2428 9.29086 13.5808 15.0219 13.5808C16.8755 13.5808 18.6155 14.0696 20.1242 14.9247L21.1679 13.0169C19.2928 11.9578 17.1753 11.4026 15.0219 11.4054C8.09341 11.4029 2.45365 17.0438 2.45365 23.9762ZM25.4152 23.9762C25.4152 29.7097 20.7529 34.3717 15.0219 34.3717C13.292 34.3738 11.5893 33.9418 10.0696 33.1153L9.00462 35.0106C10.8493 36.0206 12.9189 36.5491 15.0219 36.5471C21.9503 36.5471 27.5901 30.9062 27.5901 23.9762C27.5901 20.4657 26.1439 17.2914 23.819 15.0085L22.3403 16.6013C23.3157 17.5656 24.0898 18.7141 24.6177 19.9801C25.1455 21.2462 25.4166 22.6045 25.4152 23.9762V23.9762ZM22.9803 23.9762C22.9783 26.086 22.1394 28.1088 20.6478 29.6005C19.1562 31.0922 17.1337 31.9309 15.0244 31.9326C13.713 31.9339 12.4218 31.6091 11.267 30.9874L10.2071 32.8715C11.6853 33.6756 13.3417 34.0956 15.0244 34.0929C20.6041 34.0929 25.1427 29.5547 25.1427 23.9737C25.1427 21.1733 24.0002 18.6354 22.1553 16.8001L20.6816 18.3841C22.1547 19.8723 22.9807 21.8821 22.9803 23.9762V23.9762ZM4.9073 23.9762C4.9073 26.853 6.116 29.4547 8.05091 31.3L9.5171 29.7122C8.74236 28.9714 8.12583 28.0811 7.70475 27.0952C7.28367 26.1093 7.06678 25.0483 7.06721 23.9762C7.06919 21.8667 7.90791 19.8441 9.39927 18.3525C10.8906 16.8608 12.9128 16.0219 15.0219 16.0199C16.4004 16.019 17.7553 16.3789 18.9517 17.0638L19.9892 15.1673C18.4745 14.3083 16.7631 13.8569 15.0219 13.8571C9.44586 13.8571 4.9073 18.3953 4.9073 23.9762ZM20.5691 23.9762C20.5688 25.4476 19.9842 26.8585 18.9439 27.8988C17.9037 28.939 16.4929 29.5234 15.0219 29.5234C14.1242 29.5238 13.24 29.3054 12.4457 28.8871L11.402 30.7474C12.515 31.3449 13.7587 31.6572 15.0219 31.6563C17.0577 31.6543 19.0096 30.8445 20.4492 29.4047C21.8887 27.9648 22.6983 26.0125 22.7003 23.9762C22.7016 21.9599 21.9075 20.0245 20.4904 18.5903L19.038 20.1531C20.0203 21.1834 20.5681 22.5526 20.5679 23.9762H20.5691ZM7.34344 23.9762C7.34276 25.01 7.55151 26.0332 7.95711 26.984C8.36271 27.9348 8.95674 28.7936 9.70335 29.5084L11.1495 27.9457L11.167 27.9632C10.631 27.4473 10.2047 26.8285 9.91371 26.1438C9.62267 25.4591 9.47289 24.7227 9.47336 23.9787C9.47319 23.2502 9.61653 22.5288 9.89519 21.8557C10.1738 21.1827 10.5824 20.5711 11.0974 20.0559C11.6124 19.5408 12.2239 19.1322 12.8968 18.8535C13.5698 18.5748 14.291 18.4314 15.0194 18.4316C16.0293 18.4316 16.9743 18.7054 17.7905 19.1792L18.8155 17.3064C17.6599 16.6445 16.351 16.2971 15.0194 16.2987C10.7896 16.2925 7.34344 19.7405 7.34344 23.9762V23.9762ZM15.6931 23.9762C15.6827 24.1472 15.6074 24.3078 15.4827 24.4251C15.3579 24.5425 15.1931 24.6079 15.0219 24.6079C14.8506 24.6079 14.6858 24.5425 14.5611 24.4251C14.4364 24.3078 14.3611 24.1472 14.3507 23.9762C14.3507 23.798 14.4214 23.6271 14.5474 23.5011C14.6734 23.3751 14.8443 23.3043 15.0225 23.3043C15.2007 23.3043 15.3716 23.3751 15.4976 23.5011C15.6236 23.6271 15.6943 23.798 15.6943 23.9762H15.6931ZM10.7683 23.9762C10.7683 22.8487 11.2161 21.7674 12.0132 20.9701C12.8103 20.1728 13.8915 19.7249 15.0187 19.7249C16.146 19.7249 17.2272 20.1728 18.0243 20.9701C18.8214 21.7674 19.2692 22.8487 19.2692 23.9762C19.2692 25.1036 18.8214 26.1848 18.0245 26.982C17.2275 27.7791 16.1465 28.227 15.0194 28.227C13.8923 28.227 12.8113 27.7791 12.0143 26.982C11.2173 26.1848 10.7696 25.1036 10.7696 23.9762H10.7683ZM10.9545 23.9762C10.9559 25.0541 11.3845 26.0875 12.1466 26.8497C12.9086 27.6118 13.9417 28.0406 15.0194 28.0419C16.0976 28.0416 17.1315 27.6132 17.8942 26.8509C18.6568 26.0886 19.0857 25.0547 19.0867 23.9762C19.0867 23.4422 18.9815 22.9133 18.7772 22.4199C18.5729 21.9265 18.2733 21.4781 17.8958 21.1005C17.5182 20.7228 17.07 20.4233 16.5766 20.2189C16.0833 20.0145 15.5546 19.9093 15.0206 19.9093C14.4867 19.9093 13.9579 20.0145 13.4646 20.2189C12.9713 20.4233 12.523 20.7228 12.1455 21.1005C11.7679 21.4781 11.4684 21.9265 11.2641 22.4199C11.0597 22.9133 10.9545 23.4422 10.9545 23.9762V23.9762Z" fill="white"/>
</svg>
