<svg width="25" height="25" viewBox="0 0 25 25" fill="none" xmlns="http://www.w3.org/2000/svg">
<path d="M25 22.9167C25 24.0673 24.0673 25 22.9167 25H14.5833C13.4327 25 12.5 24.0673 12.5 22.9167V22.9167C12.5 21.7661 13.4327 20.8333 14.5833 20.8333H22.9167C24.0673 20.8333 25 21.7661 25 22.9167V22.9167ZM25 12.5C25 13.6506 24.0673 14.5833 22.9167 14.5833H2.08333C0.932738 14.5833 0 13.6506 0 12.5V12.5C0 11.3494 0.93274 10.4167 2.08333 10.4167H22.9167C24.0673 10.4167 25 11.3494 25 12.5V12.5ZM25 2.08333C25 3.23393 24.0673 4.16667 22.9167 4.16667H2.08333C0.932738 4.16667 0 3.23393 0 2.08333V2.08333C0 0.93274 0.93274 0 2.08333 0H22.9167C24.0673 0 25 0.93274 25 2.08333V2.08333Z" fill="white"/>
</svg>
