<svg width="180" height="180" viewBox="0 0 180 180" fill="none" xmlns="http://www.w3.org/2000/svg">
<rect width="180" height="180" rx="5" fill="white"/>
<path d="M88.9911 51.1965C88.5232 51.0212 88.0198 50.962 87.524 51.0237C87.0282 51.0854 86.5548 51.2663 86.1441 51.5509C85.7334 51.8355 85.3978 52.2153 85.1659 52.6579C84.934 53.1004 84.8128 53.5926 84.8125 54.0922V104.116C81.954 101.827 78.4154 100.555 74.754 100.498C71.0925 100.442 67.5164 101.605 64.5888 103.805C61.6612 106.004 59.5485 109.115 58.5834 112.648C57.6183 116.18 57.8557 119.933 59.2581 123.316C60.6606 126.698 63.1484 129.518 66.3298 131.332C69.5112 133.145 73.2054 133.848 76.8306 133.331C80.4557 132.814 83.8058 131.105 86.3532 128.475C88.9005 125.844 90.5005 122.441 90.901 118.801C90.9664 118.549 90.9996 118.29 91 118.03V79.1804L119.821 89.9879C120.289 90.1631 120.793 90.2224 121.288 90.1607C121.784 90.099 122.258 89.9181 122.668 89.6335C123.079 89.3489 123.415 88.9691 123.647 88.5265C123.878 88.084 124 87.5918 124 87.0922V73.6158C124.001 70.8861 123.168 68.2211 121.614 65.9773C120.059 63.7335 117.856 62.0177 115.3 61.0593L88.9911 51.1965V51.1965Z" fill="#202020"/>
</svg>
