<svg width="30" height="30" viewBox="0 0 30 30" fill="none" xmlns="http://www.w3.org/2000/svg">
<path d="M10.7143 25.4893C10.7143 27.8572 8.31429 29.775 5.35714 29.775C2.4 29.775 0 27.8572 0 25.4893C0 23.1236 2.4 21.2036 5.35714 21.2036C8.31429 21.2036 10.7143 23.1236 10.7143 25.4893ZM30 21.2036C30 23.5715 27.6 25.4893 24.6429 25.4893C21.6857 25.4893 19.2857 23.5715 19.2857 21.2036C19.2857 18.8357 21.6857 16.9179 24.6429 16.9179C27.6 16.9179 30 18.8357 30 21.2036Z" fill="#202020"/>
<path fill-rule="evenodd" clip-rule="evenodd" d="M27.8571 21.2036V1.91789H30V21.2036H27.8571ZM10.7143 4.06075V25.4893H8.57141V4.06075H10.7143Z" fill="#202020"/>
<path d="M8.57141 3.85717C8.5714 3.32594 8.76872 2.81365 9.12507 2.41968C9.48143 2.02571 9.97142 1.77815 10.5 1.72503L27.6428 0.0107414C27.9408 -0.0192064 28.2418 0.0136372 28.5263 0.107154C28.8108 0.20067 29.0725 0.352784 29.2946 0.553681C29.5167 0.754579 29.6942 0.999799 29.8157 1.27353C29.9372 1.54725 30 1.84341 30 2.14288V4.06074L8.57141 6.2036V3.85717Z" fill="#202020"/>
</svg>
