<svg width="25" height="28" viewBox="0 0 25 28" fill="none" xmlns="http://www.w3.org/2000/svg">
<path d="M21 12.5H3.5C2.11929 12.5 1 13.6193 1 15V23.75C1 25.1307 2.11929 26.25 3.5 26.25H21C22.3807 26.25 23.5 25.1307 23.5 23.75V15C23.5 13.6193 22.3807 12.5 21 12.5Z" stroke="#B5B5B5" stroke-width="2" stroke-linecap="round" stroke-linejoin="round"/>
<path d="M5.75 12.25V7.25C5.75 5.5924 6.40848 4.00269 7.58058 2.83058C8.75269 1.65848 10.3424 1 12 1C13.6576 1 15.2473 1.65848 16.4194 2.83058C17.5915 4.00269 18.25 5.5924 18.25 7.25V12.25" stroke="#B5B5B5" stroke-width="2" stroke-linecap="round" stroke-linejoin="round"/>
</svg>
