<svg width="30" height="30" viewBox="0 0 30 30" fill="none"
   xmlns="http://www.w3.org/2000/svg">
   <path d="M29.5788 27.4664L24.0171 21.9464C26.1759 19.253 27.2214 15.8343 26.9386 12.3933C26.6557 8.9523 25.066 5.75052 22.4963 3.44632C19.9266 1.14211 16.5722 -0.0893842 13.1229 0.00505644C9.67366 0.0994971 6.39163 1.51269 3.95171 3.95406C1.51179 6.39543 0.0994379 9.67941 0.00505344 13.1307C-0.0893311 16.5821 1.14143 19.9384 3.44427 22.5096C5.74711 25.0809 8.94698 26.6715 12.3859 26.9546C15.8249 27.2376 19.2415 26.1915 21.9333 24.0314L27.45 29.5514C27.5894 29.6919 27.7552 29.8035 27.9379 29.8797C28.1206 29.9558 28.3165 29.995 28.5144 29.995C28.7123 29.995 28.9082 29.9558 29.0909 29.8797C29.2736 29.8035 29.4394 29.6919 29.5788 29.5514C29.849 29.2717 30 28.8979 30 28.5089C30 28.1198 29.849 27.7461 29.5788 27.4664V27.4664ZM13.5233 24.0314C11.4478 24.0314 9.41898 23.4155 7.69329 22.2618C5.9676 21.108 4.62259 19.4682 3.82834 17.5495C3.03409 15.6309 2.82628 13.5197 3.23118 11.4829C3.63609 9.4461 4.63552 7.57518 6.1031 6.10673C7.57068 4.63828 9.44049 3.63825 11.4761 3.23311C13.5117 2.82796 15.6216 3.0359 17.5391 3.83062C19.4566 4.62534 21.0955 5.97115 22.2486 7.69786C23.4016 9.42458 24.0171 11.4546 24.0171 13.5314C24.0171 16.3161 22.9115 18.9868 20.9435 20.956C18.9756 22.9251 16.3064 24.0314 13.5233 24.0314V24.0314Z" fill="#0B0C10"/>
</svg>
